<?xml version="1.0" encoding="iso-8859-1"?>
<!-- Generator: Adobe Illustrator 19.0.0, SVG Export Plug-In . SVG Version: 6.00 Build 0)  -->
<svg version="1.1" id="Layer_1" xmlns="http://www.w3.org/2000/svg" xmlns:xlink="http://www.w3.org/1999/xlink" x="0px" y="0px"
	 viewBox="0 0 512.003 512.003" style="enable-background:new 0 0 512.003 512.003;" xml:space="preserve">
<g>
	<g>
		
			<rect x="240.968" y="169.018" transform="matrix(0.7071 -0.7071 0.7071 0.7071 -68.6872 271.4767)" width="104.78" height="99.266"/>
	</g>
</g>
<g>
	<g>
		<path d="M197.816,243.992L14.537,427.272c-19.383,19.382-19.381,50.809,0,70.194c19.383,19.38,50.81,19.383,70.194,0
			l183.279-183.28L197.816,243.992z"/>
	</g>
</g>
<g>
	<g>
		
			<rect x="372.068" y="79.258" transform="matrix(0.7071 -0.7071 0.7071 0.7071 54.1557 322.3478)" width="88.236" height="33.088"/>
	</g>
</g>
<g>
	<g>
		<rect x="274.868" y="0.001" width="33.089" height="88.237"/>
	</g>
</g>
<g>
	<g>
		
			<rect x="150.076" y="51.693" transform="matrix(0.7071 -0.7071 0.7071 0.7071 -18.9466 145.8805)" width="33.089" height="88.236"/>
	</g>
</g>
<g>
	<g>
		<rect x="70.809" y="204.049" width="88.236" height="33.089"/>
	</g>
</g>
<g>
	<g>
		<rect x="274.868" y="352.949" width="33.089" height="88.237"/>
	</g>
</g>
<g>
	<g>
		
			<rect x="399.659" y="301.272" transform="matrix(0.7071 -0.7071 0.7071 0.7071 -122.3241 395.4623)" width="33.088" height="88.235"/>
	</g>
</g>
<g>
	<g>
		<rect x="423.767" y="204.049" width="88.236" height="33.088"/>
	</g>
</g>
<g>
</g>
<g>
</g>
<g>
</g>
<g>
</g>
<g>
</g>
<g>
</g>
<g>
</g>
<g>
</g>
<g>
</g>
<g>
</g>
<g>
</g>
<g>
</g>
<g>
</g>
<g>
</g>
<g>
</g>
</svg>
