<svg width="500" height="500" viewBox="0 0 500 500" fill="none" xmlns="http://www.w3.org/2000/svg">
<path d="M364.75 141.62H314.6V214.31H364.75V141.62Z" fill="#E0E0E0"/>
<path d="M362.24 141.62H312.09V214.31H362.24V141.62Z" fill="#F5F5F5"/>
<path d="M356.01 149.49H318.32V206.44H356.01V149.49Z" fill="white"/>
<path d="M356 206.43C356 206.43 356 206.34 356 206.16V205.35C356 204.63 356 203.59 356 202.23C356 199.5 356 195.52 356 190.49C356 180.49 356 166.23 355.94 149.49L356.06 149.61H318.38L318.52 149.47C318.52 170.95 318.52 190.76 318.52 206.41L318.41 206.31H345.85H353.42H356H355.34H353.34H345.78H318.28H318.17V206.2C318.17 190.55 318.17 170.74 318.17 149.26V149.12H356.12V149.25C356.12 166.03 356.07 180.25 356.06 190.34C356.06 195.34 356.06 199.34 356.06 202.04C356.06 203.39 356.06 204.43 356.06 205.14V205.93C356.058 206.098 356.037 206.266 356 206.43Z" fill="#E0E0E0"/>
<path d="M362.38 141.62C362.123 142.079 361.825 142.514 361.49 142.92C360.91 143.69 360.08 144.75 359.14 145.92C358.2 147.09 357.31 148.08 356.66 148.8C356.322 149.207 355.951 149.585 355.55 149.93C355.852 149.489 356.186 149.071 356.55 148.68L358.97 145.75L361.38 142.82C361.677 142.391 362.012 141.99 362.38 141.62Z" fill="#E0E0E0"/>
<path d="M356.2 206.25C358.078 209.228 360.286 211.985 362.78 214.47L356.2 206.25Z" fill="white"/>
<path d="M362.78 214.47C362.361 214.18 361.976 213.844 361.63 213.47C360.756 212.579 359.929 211.645 359.15 210.67C358.371 209.709 357.643 208.708 356.97 207.67C356.666 207.248 356.408 206.796 356.2 206.32C356.546 206.705 356.857 207.12 357.13 207.56C357.68 208.34 358.46 209.4 359.36 210.56C360.26 211.72 361.14 212.69 361.77 213.4C362.132 213.731 362.47 214.089 362.78 214.47Z" fill="#E0E0E0"/>
<path d="M312.09 214.25L318.65 206.15L312.09 214.25Z" fill="white"/>
<path d="M318.65 206.15C317.666 207.581 316.608 208.959 315.48 210.28C313.66 212.52 312.14 214.28 312.09 214.28C313.073 212.845 314.131 211.463 315.26 210.14C316.322 208.754 317.454 207.422 318.65 206.15Z" fill="#E0E0E0"/>
<path d="M312.09 141.62C313.224 142.829 314.289 144.101 315.28 145.43C316.349 146.71 317.35 148.046 318.28 149.43C317.146 148.221 316.081 146.949 315.09 145.62C314.017 144.343 313.015 143.008 312.09 141.62Z" fill="#E0E0E0"/>
<path d="M344.27 161.05H331.65V196.88H344.27V161.05Z" fill="#E0E0E0"/>
<path d="M265 345C262.719 345.753 260.614 346.959 258.809 348.545C257.005 350.131 255.54 352.064 254.5 354.23C252.451 358.58 251.424 363.342 251.5 368.15C251.38 377.42 255.39 387.3 260.05 395.31C268.6 389.57 271.86 378.09 273.15 372.16C275.15 362.78 273.15 344.61 265.01 345" fill="#F5F5F5"/>
<path d="M249.19 409.27C250.05 406.722 250.219 403.992 249.682 401.358C249.144 398.723 247.919 396.278 246.13 394.27C244.313 392.298 242.122 390.707 239.684 389.591C237.246 388.475 234.61 387.856 231.93 387.77C229.46 387.64 226.72 388.02 225.06 389.86C224.338 390.767 223.87 391.85 223.707 392.999C223.543 394.147 223.689 395.317 224.13 396.39C225.043 398.53 226.506 400.389 228.37 401.78C234.5 406.78 241.37 410.55 249.19 409.25" fill="#F5F5F5"/>
<path d="M255.6 431.55C255.715 429.506 255.621 427.455 255.32 425.43C255.076 423.204 254.566 421.015 253.8 418.91C252.943 416.322 251.918 413.794 250.73 411.34C248.54 406.833 245.269 402.938 241.21 400C239.954 399.142 238.614 398.415 237.21 397.83C236.709 397.589 236.172 397.434 235.62 397.37C235.54 397.54 237.77 398.37 240.74 400.59C244.536 403.615 247.611 407.448 249.74 411.81C250.904 414.225 251.936 416.702 252.83 419.23C253.612 421.266 254.182 423.377 254.53 425.53C255.15 429.24 255.44 431.57 255.6 431.55Z" fill="#E0E0E0"/>
<path d="M265.31 359C264.989 359.978 264.755 360.981 264.61 362C264.23 364 263.72 366.8 263.12 370.31C261.91 377.31 260.36 387.05 258.9 397.83C257.44 408.61 256.41 418.4 255.81 425.51C255.51 429.06 255.3 431.93 255.19 433.92C255.071 434.949 255.051 435.987 255.13 437.02C255.372 436.015 255.526 434.991 255.59 433.96C255.84 431.79 256.16 428.96 256.59 425.58C257.38 418.5 258.53 408.73 259.98 397.97C261.43 387.21 262.87 377.65 263.89 370.42C264.37 367.04 264.76 364.22 265.06 362.07C265.231 361.056 265.315 360.029 265.31 359Z" fill="#E0E0E0"/>
<path d="M260.35 414.25C262.712 409.108 266.266 404.602 270.716 401.107C275.166 397.612 280.385 395.227 285.94 394.15C288.76 393.63 292.24 393.73 293.79 396.15C295.34 398.57 293.98 401.79 292.27 404.15C288.611 408.908 283.625 412.477 277.942 414.408C272.258 416.338 266.13 416.544 260.33 415" fill="#F5F5F5"/>
<path d="M282 401.6C281.455 401.626 280.918 401.741 280.41 401.94C279.41 402.22 277.96 402.71 276.21 403.36C271.581 405.042 267.303 407.564 263.59 410.8C261.588 412.649 259.9 414.81 258.59 417.2C257.542 419.161 256.772 421.257 256.3 423.43C255.979 424.883 255.791 426.363 255.74 427.85C255.648 428.389 255.648 428.941 255.74 429.48C255.95 429.48 256.03 427.17 256.96 423.61C258.181 418.974 260.716 414.789 264.26 411.56C267.9 408.419 272.018 405.88 276.46 404.04C279.91 402.55 282.08 401.76 282 401.6Z" fill="#E0E0E0"/>
<path d="M455.59 169.76C455.59 169.76 445.11 166.67 440.87 190.76C436.63 214.85 436.29 228.12 436.29 228.12C436.29 228.12 434.82 233.35 430.94 231.41C427.06 229.47 420.47 222.64 415.82 225.66C410.99 228.79 411.06 235.23 414.73 243.59C418.4 251.95 425.73 270.59 426.41 272.27C427.09 273.95 426.85 276.72 424 275.83C421.15 274.94 403 264 398.3 273C393.6 282 407.66 303.56 409.15 306C410.64 308.44 410.47 309.66 409.43 310.68C408.39 311.7 402.63 307.45 397.33 304.55C392.03 301.65 385.38 299.22 383.12 304.6C380.86 309.98 385.12 328.12 410.94 351.83L423.6 362.03L438.93 356.39C471 342.31 480.93 326.55 480.55 320.72C480.17 314.89 473.07 315 467.12 316C461.17 317 454.34 319.19 453.68 317.88C453.02 316.57 453.28 315.32 455.47 313.54C457.66 311.76 477.95 295.84 476.42 285.87C474.89 275.9 454.15 280.37 451.16 280.29C448.17 280.21 448.89 277.5 450.03 276.15C451.17 274.8 464.2 259.53 470.38 252.8C476.56 246.07 478.71 240.01 475.16 235.48C471.74 231.11 463.28 235.48 458.99 236.02C454.7 236.56 454.99 231.18 454.99 231.18C454.99 231.18 458.99 218.52 462.76 194.34C466.53 170.16 455.36 169.74 455.36 169.74" fill="#F5F5F5"/>
<path d="M451.76 191.35C451.76 191.35 451.76 191.52 451.71 191.86L451.5 193.35C451.3 194.68 451.01 196.61 450.65 199.07C449.9 204.07 448.77 211.23 447.34 220.07C444.48 237.82 440.34 262.3 435.65 289.33C430.96 316.36 426.75 340.83 423.8 358.56C422.33 367.41 421.14 374.56 420.32 379.56C419.91 382.02 419.59 383.94 419.32 385.27C419.21 385.9 419.13 386.39 419.06 386.75C418.99 387.11 418.95 387.25 418.95 387.25C418.95 387.25 418.95 387.08 419.01 386.74C419.07 386.4 419.13 385.89 419.21 385.25C419.41 383.92 419.7 381.99 420.06 379.53C420.81 374.53 421.94 367.37 423.37 358.53C426.23 340.78 430.37 316.29 435.07 289.26C439.77 262.23 444 237.77 447 220C448.46 211.15 449.65 204 450.48 199L451.43 193.29L451.69 191.81C451.705 191.656 451.729 191.502 451.76 191.35Z" fill="#E0E0E0"/>
<path d="M424.66 235.62C424.934 235.902 425.176 236.214 425.38 236.55C425.82 237.17 426.38 238.08 427.16 239.21C428.63 241.48 430.58 244.66 432.66 248.21L437.95 257.34L439.56 260.09C439.789 260.396 439.974 260.733 440.11 261.09C439.832 260.813 439.587 260.504 439.38 260.17C438.95 259.55 438.38 258.64 437.62 257.5C436.17 255.21 434.26 252 432.18 248.45L426.83 239.36C426.19 238.28 425.64 237.36 425.2 236.61C424.977 236.305 424.796 235.972 424.66 235.62Z" fill="#E0E0E0"/>
<path d="M441.63 261C441.54 260.87 447.93 256.57 455.9 251.38C463.87 246.19 470.38 242.1 470.47 242.22C470.56 242.34 464.16 246.66 456.2 251.84C448.24 257.02 441.71 261.11 441.63 261Z" fill="#E0E0E0"/>
<path d="M432.57 302.16C432.931 301.982 433.309 301.845 433.7 301.75L436.82 300.8C439.45 299.99 443.09 298.87 447.05 297.48C451.01 296.09 454.57 294.74 457.14 293.73L460.14 292.54C460.505 292.362 460.891 292.235 461.29 292.16C460.958 292.388 460.603 292.579 460.23 292.73C459.53 293.07 458.52 293.54 457.23 294.09C454.71 295.19 451.17 296.62 447.23 298C443.29 299.38 439.59 300.46 436.93 301.17C435.59 301.52 434.51 301.79 433.75 301.96C433.366 302.074 432.97 302.141 432.57 302.16Z" fill="#E0E0E0"/>
<path d="M412.17 282.6C412.49 282.79 412.785 283.018 413.05 283.28C413.59 283.74 414.37 284.42 415.31 285.28C417.21 286.99 419.8 289.37 422.64 292.02C425.48 294.67 428.03 297.1 429.86 298.88C430.77 299.76 431.5 300.49 432 301C432.276 301.249 432.524 301.527 432.74 301.83C432.416 301.649 432.12 301.424 431.86 301.16C431.31 300.7 430.54 300.01 429.59 299.16C427.7 297.46 425.1 295.08 422.26 292.42C419.42 289.76 416.87 287.34 415.05 285.57C414.13 284.68 413.4 283.96 412.9 283.44C412.621 283.193 412.376 282.91 412.17 282.6Z" fill="#E0E0E0"/>
<path d="M399.55 317.94C399.954 318.192 400.33 318.487 400.67 318.82L403.58 321.37C406.02 323.54 409.36 326.56 413.04 329.93C416.72 333.3 420.04 336.37 422.39 338.61L425.18 341.29C425.546 341.589 425.881 341.924 426.18 342.29C425.781 342.031 425.406 341.736 425.06 341.41L422.15 338.86C419.71 336.69 416.37 333.66 412.69 330.3C409.01 326.94 405.69 323.86 403.35 321.62L400.53 319C400.167 318.682 399.839 318.327 399.55 317.94Z" fill="#E0E0E0"/>
<path d="M425.68 341.56C426.133 341.336 426.605 341.152 427.09 341.01L431.01 339.66C434.31 338.52 438.87 336.93 443.86 335.04C448.85 333.15 453.32 331.33 456.54 329.99L460.37 328.4C460.83 328.183 461.308 328.009 461.8 327.88C461.38 328.167 460.931 328.408 460.46 328.6C459.58 329.03 458.3 329.6 456.7 330.34C453.51 331.78 449.05 333.66 444.05 335.55C439.05 337.44 434.47 339 431.13 340C429.46 340.52 428.13 340.92 427.13 341.18C426.66 341.354 426.175 341.481 425.68 341.56Z" fill="#E0E0E0"/>
<path d="M103.84 383.35C126.93 370.17 134.43 342.49 135.84 317.12C136.08 312.88 136.95 308.48 135.28 304.59C133.61 300.7 129.16 297.74 125.22 299.17C121.95 300.36 120.22 303.88 118.22 306.74C115.506 310.547 111.773 313.51 107.45 315.29C104.63 316.44 101.23 316.98 98.71 315.29C95.25 312.94 95.28 307.87 95.71 303.68C96.5034 295.84 97.2667 288.013 98 280.2C98.41 276.01 98.82 271.72 97.88 267.62C96.94 263.52 94.39 259.54 90.5 258.06C86.61 256.58 81.45 258.42 80.23 262.46C79.73 264.14 79.91 265.94 79.64 267.67C79.37 269.4 78.37 271.26 76.64 271.6C74.91 271.94 73.35 270.6 72.21 269.25C68.21 264.61 65.82 258.88 63.57 253.19C61.32 247.5 59.16 241.71 55.65 236.72C52.14 231.73 47.04 227.58 41.06 226.72C35.08 225.86 28.33 228.96 26.27 234.72C24.21 240.48 27.1 246.82 30.42 251.96C35.372 259.567 41.3939 266.42 48.3 272.31C49.54 273.37 50.88 274.52 51.3 276.12C51.95 279 49.04 281.54 46.2 282.21C42.97 282.96 39.6 282.32 36.3 282.41C33 282.5 29.3 283.61 27.79 286.6C25.67 290.73 28.85 295.6 32.11 298.83C38.6434 305.382 46.2584 310.758 54.62 314.72C57.62 316.13 60.76 317.42 63.05 319.82C65.34 322.22 66.5 326.13 64.73 328.95C62.96 331.77 59 332.37 55.82 331.47C52.64 330.57 49.91 328.55 46.93 327.11C41.36 324.4 33.87 324.11 29.72 328.76C26.99 331.82 26.36 336.36 27.23 340.38C28.1 344.4 30.28 348 32.64 351.38C40.89 363.08 51.93 372.9 64.9 378.77C77.87 384.64 90.14 387.03 103.9 383.39" fill="#F5F5F5"/>
<path d="M102.46 402.13C102.354 390.293 101.119 378.492 98.7701 366.89C95.829 352.724 92.0796 338.738 87.5401 325L84.0001 314.19C82.8401 310.64 81.6901 307.12 80.3501 303.74C77.7738 297.265 74.8392 290.939 71.5601 284.79C68.4701 278.9 65.3301 273.42 62.3501 268.32C59.3701 263.22 56.4801 258.52 53.6801 254.32C49.2857 247.729 44.3771 241.497 39.0001 235.68C37.1001 233.62 35.5801 232.07 34.5301 231.03L33.3301 229.86C33.1974 229.722 33.0536 229.595 32.9001 229.48C33.0128 229.632 33.1365 229.776 33.2701 229.91L34.4201 231.14C35.4201 232.21 36.9201 233.8 38.7801 235.89C44.0601 241.779 48.8903 248.057 53.2301 254.67C56.0001 258.84 58.8401 263.55 61.8001 268.67C64.7601 273.79 67.8801 279.27 70.9401 285.15C74.1945 291.271 77.1155 297.563 79.6901 304C81.0101 307.36 82.1501 310.85 83.3001 314.41C84.4501 317.97 85.6201 321.57 86.8101 325.23C91.3338 338.934 95.0929 352.879 98.0701 367C100.441 378.555 101.727 390.306 101.91 402.1" fill="#E0E0E0"/>
<path d="M80.1699 303.69C80.4354 303.133 80.6303 302.545 80.7499 301.94C81.0799 300.8 81.4899 299.14 81.9799 297.07C82.9799 292.94 84.1099 287.2 85.3599 280.86C86.6099 274.52 87.8399 268.81 88.8799 264.71C89.3899 262.71 89.8199 261 90.1399 259.86C90.3351 259.275 90.4692 258.672 90.5399 258.06C90.2435 258.601 90.0119 259.175 89.8499 259.77C89.4499 260.89 88.9299 262.53 88.3499 264.57C87.1699 268.64 85.8499 274.36 84.5999 280.71L81.4399 297C81.0499 298.95 80.7199 300.6 80.4399 301.92C80.2943 302.5 80.2039 303.093 80.1699 303.69Z" fill="#E0E0E0"/>
<path d="M27.1101 288.66C27.8058 288.871 28.5185 289.022 29.2401 289.11C30.6201 289.36 32.6101 289.71 35.0501 290.23C39.9501 291.23 46.6601 292.81 53.9901 294.9C61.3201 296.99 67.8701 299.19 72.5701 300.9C74.9201 301.74 76.8101 302.47 78.1101 302.97C78.772 303.273 79.4619 303.511 80.1701 303.68C79.558 303.283 78.9082 302.949 78.2301 302.68C76.9601 302.09 75.1001 301.28 72.7601 300.37C68.1001 298.51 61.5601 296.24 54.2001 294.13C47.9312 292.313 41.5728 290.821 35.1501 289.66C32.6901 289.22 30.6801 288.95 29.2901 288.79C28.5697 288.673 27.8393 288.629 27.1101 288.66Z" fill="#E0E0E0"/>
<path d="M98.1899 365.84C98.3638 365.653 98.5087 365.44 98.6199 365.21L99.7299 363.34C100.73 361.72 101.99 359.34 103.57 356.34C106.74 350.4 110.87 342.05 115.29 332.77C119.71 323.49 123.75 315.11 126.8 309.11L130.42 302.01L131.42 300.07C131.543 299.849 131.64 299.614 131.71 299.37C131.541 299.558 131.397 299.766 131.28 299.99L130.18 301.86C129.23 303.49 127.92 305.86 126.33 308.86C123.16 314.81 119.04 323.16 114.61 332.44C110.18 341.72 106.15 350.09 103.11 356.1L99.4799 363.2L98.4799 365.14C98.3513 365.359 98.2537 365.594 98.1899 365.84Z" fill="#E0E0E0"/>
<path d="M28.5701 336.14C28.7815 336.293 29.0139 336.414 29.2601 336.5L31.2601 337.39L38.7101 340.59C45.0101 343.28 53.7101 347.11 63.2101 351.35C72.7101 355.59 81.4501 359.35 87.8101 361.91C90.9801 363.2 93.5601 364.21 95.3601 364.91L97.4301 365.67C97.6679 365.768 97.9162 365.839 98.1701 365.88C97.9634 365.725 97.734 365.604 97.4901 365.52L95.4901 364.63L88.0001 361.4C81.7001 358.7 73.0001 354.87 63.5001 350.63C54.0001 346.39 45.2501 342.63 38.9001 340.07C35.7301 338.79 33.1501 337.77 31.3501 337.07L29.2801 336.32C29.0513 336.232 28.813 336.172 28.5701 336.14Z" fill="#E0E0E0"/>
<path d="M174.84 81.7V164.24H56.3L52.02 82.28L174.84 81.7Z" fill="#E0E0E0"/>
<path d="M52.02 82.29L52.02 164.07H170.56V82.29L52.02 82.29Z" fill="white"/>
<path d="M171.13 164.63H51.46V81.72H171.13V164.63ZM52.59 163.5H170V82.84H52.59V163.5Z" fill="#E0E0E0"/>
<path d="M157.72 92.44H64.8601V153.9H157.72V92.44Z" fill="white"/>
<path d="M157.73 92.44H157.27H156H150.9L131.76 92.51L64.91 92.64L65.18 92.37C65.18 111.15 65.18 131.96 65.18 153.83L64.88 153.54L157.75 153.6L157.51 153.83C157.57 135.13 157.61 119.83 157.64 109.12C157.64 103.78 157.64 99.61 157.7 96.75C157.7 95.34 157.7 94.25 157.7 93.5C157.7 92.75 157.7 92.37 157.7 92.37C157.7 92.37 157.7 92.73 157.7 93.45C157.7 94.17 157.7 95.26 157.7 96.66C157.7 99.5 157.7 103.66 157.76 108.97C157.76 119.68 157.83 135.07 157.88 153.83V154.07H157.65L64.78 154.13H64.49V153.83C64.49 131.96 64.49 111.15 64.49 92.37V92.1H64.75L131.75 92.24L150.83 92.31H155.83H157.12L157.73 92.44Z" fill="#E0E0E0"/>
<path d="M51.9999 82.05C52.7153 82.4113 53.3865 82.8543 53.9999 83.37C55.2199 84.25 56.8699 85.49 58.6499 86.92C60.4299 88.35 61.9999 89.69 63.1099 90.7C63.7454 91.2053 64.3134 91.7901 64.7999 92.44C64.6899 92.57 61.7999 90.22 58.2799 87.37C54.7599 84.52 51.9199 82.19 51.9999 82.05Z" fill="#E0E0E0"/>
<path d="M170.57 82.28C168.62 84.197 166.534 85.9716 164.33 87.59C162.249 89.3631 160.044 90.984 157.73 92.44C159.693 90.5255 161.788 88.7511 164 87.13C166.072 85.3592 168.268 83.7385 170.57 82.28Z" fill="#E0E0E0"/>
<path d="M170.47 164.08L157.26 153.36L170.47 164.08Z" fill="white"/>
<path d="M157.26 153.36C159.633 154.919 161.901 156.633 164.05 158.49C166.317 160.202 168.462 162.07 170.47 164.08C168.094 162.525 165.825 160.811 163.68 158.95C160 156 157.15 153.49 157.26 153.36Z" fill="#E0E0E0"/>
<path d="M52 164.07C53.9317 162.171 55.997 160.413 58.18 158.81C60.2408 157.058 62.4229 155.454 64.71 154.01C62.7833 155.91 60.7212 157.668 58.54 159.27C56.476 161.022 54.2905 162.626 52 164.07Z" fill="#E0E0E0"/>
<path d="M83.72 111.6V132.18H142.15V111.6H83.72Z" fill="#E0E0E0"/>
<path d="M448.56 62.52H385.18V154.39H448.56V62.52Z" fill="#E0E0E0"/>
<path d="M445.39 62.52H382.01V154.39H445.39V62.52Z" fill="#F5F5F5"/>
<path d="M437.51 72.47H389.88V144.44H437.51V72.47Z" fill="white"/>
<path d="M437.52 144.44C437.52 144.44 437.52 144.32 437.52 144.09V143.09C437.52 142.18 437.52 140.86 437.52 139.14C437.52 135.69 437.52 130.67 437.52 124.32C437.52 111.63 437.47 93.65 437.44 72.49L437.6 72.65H389.88L390.06 72.48C390.06 99.63 390.06 124.66 390.06 144.48L389.92 144.34L424.59 144.42H434.17H436.69H437.56H436.72H434.23H424.68L389.92 144.49H389.79V144.35C389.79 124.56 389.79 99.53 389.79 72.35V72.3H437.79V72.46C437.79 93.67 437.74 111.67 437.72 124.39C437.72 130.72 437.72 135.74 437.67 139.18C437.67 140.88 437.67 142.18 437.67 143.09V144.09C437.52 144.33 437.52 144.44 437.52 144.44Z" fill="#E0E0E0"/>
<path d="M445.57 62.52C445.248 63.1025 444.87 63.6518 444.44 64.16C443.7 65.16 442.66 66.49 441.44 67.94C440.22 69.39 439.13 70.67 438.3 71.58C437.889 72.0924 437.434 72.5676 436.94 73C437.296 72.4389 437.701 71.9102 438.15 71.42L441.2 67.72C442.35 66.31 443.4 65.04 444.25 64.01C444.647 63.4768 445.088 62.9783 445.57 62.52Z" fill="#E0E0E0"/>
<path d="M437.76 144.21C440.132 147.974 442.92 151.459 446.07 154.6L437.76 144.21Z" fill="white"/>
<path d="M446.07 154.6C445.543 154.211 445.057 153.769 444.62 153.28C443.77 152.42 442.62 151.19 441.48 149.75C440.5 148.517 439.582 147.235 438.73 145.91C438.34 145.379 438.005 144.809 437.73 144.21C438.16 144.702 438.552 145.227 438.9 145.78C439.6 146.78 440.58 148.1 441.72 149.53C442.86 150.96 443.96 152.22 444.77 153.11C445.239 153.575 445.673 154.073 446.07 154.6Z" fill="#E0E0E0"/>
<path d="M382 154.32L390.3 144.08L382 154.32Z" fill="white"/>
<path d="M390.3 144.08C389.061 145.894 387.726 147.639 386.3 149.31C384 152.13 382.08 154.38 382.01 154.31C383.251 152.498 384.586 150.752 386.01 149.08C387.352 147.34 388.784 145.671 390.3 144.08Z" fill="#E0E0E0"/>
<path d="M382 62.52C383.419 64.0537 384.754 65.6627 386 67.34C387.341 68.9388 388.596 70.6078 389.76 72.34C388.338 70.8092 387.002 69.2 385.76 67.52C384.419 65.9212 383.164 64.2522 382 62.52Z" fill="#E0E0E0"/>
<path d="M422.68 87.08H406.73V132.36H422.68V87.08Z" fill="#E0E0E0"/>
<path d="M461.93 437C461.93 437.15 364.51 437.26 244.38 437.26C124.25 437.26 26.8101 437.19 26.8101 437C26.8101 436.81 124.2 436.74 244.38 436.74C364.56 436.74 461.93 436.9 461.93 437Z" fill="#263238"/>
<path d="M339.7 264C340.443 267.02 340.356 270.184 339.45 273.158C338.543 276.133 336.85 278.808 334.55 280.9C331.5 283.6 327.55 285.16 324.75 288.13C323.017 290.105 321.825 292.495 321.29 295.068C320.756 297.641 320.897 300.308 321.7 302.81C322.55 305.294 323.894 307.579 325.653 309.528C327.411 311.478 329.547 313.05 331.93 314.15C335.176 315.666 338.734 316.393 342.314 316.272C345.894 316.15 349.395 315.183 352.53 313.45C360.26 309.08 364.76 300.31 365.9 291.5C367.04 282.69 365.25 273.77 362.9 265.2" fill="#263238"/>
<path d="M437.19 419.35C445.19 418.04 452.69 420.48 460.61 422.23C462.716 422.854 464.939 422.974 467.1 422.58C470.53 421.7 472.97 418.36 473.5 414.86C473.929 411.794 473.217 408.676 471.5 406.1C470.811 404.989 469.873 404.055 468.76 403.37C467.567 402.772 466.263 402.432 464.93 402.37C460.077 401.979 455.207 402.898 450.83 405.03C446.465 407.152 442.505 410.022 439.13 413.51C437.45 415.19 437.95 417.12 437.21 419.38" fill="#263238"/>
<path d="M275 290.23C273.717 282.602 273.873 274.801 275.46 267.23C276.131 263.528 277.487 259.984 279.46 256.78C280.132 255.585 281.155 254.625 282.39 254.03C283.287 253.732 284.249 253.689 285.169 253.906C286.089 254.124 286.931 254.592 287.6 255.26C288.455 256.149 289.11 257.21 289.524 258.372C289.938 259.534 290.1 260.771 290 262C289.822 264.458 289.22 266.867 288.22 269.12C285.13 277.02 280.22 283.58 274.97 290.22" fill="#263238"/>
<path d="M430 319.14C431.81 320.43 472 407 472 407C468.768 405.619 465.188 405.27 461.75 406L459.57 406.58C455.668 407.629 451.968 409.318 448.62 411.58L437.15 419.34C436.696 419.079 436.311 418.713 436.028 418.273C435.744 417.833 435.57 417.331 435.52 416.81V416.48L404.36 363L430 319.14Z" fill="#EDCF83"/>
<path d="M279.09 181.32L289.81 242.25C293.26 250.45 333.49 300.13 333.49 300.13L320.19 342.87L267.35 270.62C262.443 265.374 259.775 258.422 259.91 251.24L261.97 186.14L279.09 181.32Z" fill="#FFBE9D"/>
<path d="M336.14 290.58L363.73 292.67L387.79 296.4C387.79 296.4 430 307.49 430 312.11C430 313.65 418.48 350.34 412 372.32C410.412 377.659 409.116 383.08 408.12 388.56L430 437H326.17V392.59C326.17 392.59 319.17 334.26 320.4 326.29C321.63 318.32 336.14 290.58 336.14 290.58Z" fill="#EDCF83"/>
<path d="M266 156.7C266.162 150.494 266.797 144.309 267.9 138.2C268.05 137.33 268.41 136.28 269.28 136.2C270.36 136.06 270.91 137.45 271.05 138.53C272.009 145.898 271.701 153.376 270.14 160.64" fill="#EB996E"/>
<path d="M278.3 285.72C290.14 275.14 290.54 256.81 289.53 242.22C289.332 241.155 289.494 240.054 289.99 239.09C291.12 237.48 293.87 238.09 294.99 239.71C296.11 241.33 295.99 243.46 295.93 245.42C296.54 243.76 299.14 243.77 300.36 245.05C301.58 246.33 301.79 248.26 301.93 250.05L302.32 254.93L336.91 287.93C336.91 287.93 337.86 284.93 340.4 286.66C342.94 288.39 344.58 292.04 344.58 292.04L320.21 345.23L274.98 290.23C275.85 288.566 276.969 287.045 278.3 285.72Z" fill="#EDCF83"/>
<path d="M325.24 322.53C321.631 327.133 318.936 332.384 317.3 338C315.67 343.653 315.848 349.674 317.81 355.22C319.328 359.057 321.814 362.436 325.027 365.026C328.239 367.617 332.068 369.33 336.14 370" fill="#EDCF83"/>
<path d="M437.19 419.35L435.88 437H461.51L467.51 405.75C459.703 405.314 452.002 407.727 445.84 412.54L437.19 419.35Z" fill="#FFBE9D"/>
<path d="M290.35 281.81C290.495 281.324 290.682 280.853 290.91 280.4C291.31 279.52 291.85 278.22 292.46 276.6C293.07 274.98 293.72 273.02 294.33 270.82C294.964 268.419 295.468 265.985 295.84 263.53C296.186 261.073 296.396 258.6 296.47 256.12C296.47 253.83 296.47 251.77 296.33 250.04C296.19 248.31 296.06 246.92 295.93 245.96C295.844 245.461 295.797 244.956 295.79 244.45C295.953 244.931 296.067 245.426 296.13 245.93C296.389 247.279 296.58 248.641 296.7 250.01C296.895 252.044 296.979 254.087 296.95 256.13C296.874 261.139 296.148 266.118 294.79 270.94C294.232 272.906 293.564 274.839 292.79 276.73C292.13 278.35 291.54 279.63 291.08 280.49C290.87 280.948 290.626 281.389 290.35 281.81Z" fill="#263238"/>
<path d="M297.88 272.52C298.206 271.66 298.58 270.819 299 270C300.751 265.941 301.766 261.604 302 257.19C301.998 256.271 302.048 255.353 302.15 254.44C302.346 255.346 302.42 256.274 302.37 257.2C302.335 261.685 301.311 266.107 299.37 270.15C298.988 271.007 298.486 271.805 297.88 272.52Z" fill="#263238"/>
<path d="M338.5 300.18C338.42 300.13 338.84 299.48 339.08 298.3C339.36 296.758 339.271 295.171 338.82 293.67C338.345 292.159 337.767 290.682 337.09 289.25C336.774 288.657 336.539 288.025 336.39 287.37C336.786 287.905 337.121 288.481 337.39 289.09C338.182 290.499 338.822 291.987 339.3 293.53C339.778 295.11 339.816 296.79 339.41 298.39C339.284 299.061 338.968 299.683 338.5 300.18Z" fill="#263238"/>
<path d="M332.49 370.62C332.334 370.555 332.186 370.471 332.05 370.37L330.87 369.59C329.87 368.9 328.38 367.89 326.64 366.52C324.583 364.936 322.702 363.136 321.03 361.15C318.972 358.692 317.489 355.805 316.69 352.7C315.927 349.594 315.73 346.376 316.11 343.2C316.417 340.624 316.99 338.087 317.82 335.63C318.37 333.974 319.008 332.348 319.73 330.76C319.99 330.2 320.19 329.76 320.34 329.48C320.406 329.324 320.49 329.177 320.59 329.04C320.401 329.652 320.177 330.253 319.92 330.84C319.47 331.98 318.82 333.64 318.17 335.74C317.402 338.186 316.873 340.701 316.59 343.25C316.242 346.368 316.445 349.523 317.19 352.57C317.968 355.606 319.406 358.433 321.4 360.85C323.037 362.823 324.87 364.626 326.87 366.23C328.57 367.63 330 368.68 330.99 369.43L332.11 370.29C332.37 370.49 332.5 370.6 332.49 370.62Z" fill="#263238"/>
<path d="M389.14 380.51C389.001 380.583 388.853 380.637 388.7 380.67C388.4 380.75 387.97 380.9 387.4 381.01C385.789 381.359 384.148 381.557 382.5 381.6C377.005 381.769 371.585 380.288 366.939 377.349C362.292 374.41 358.632 370.148 356.43 365.11C355.759 363.604 355.233 362.036 354.86 360.43C354.72 359.86 354.67 359.43 354.61 359.11C354.576 358.956 354.559 358.798 354.56 358.64C354.765 359.205 354.932 359.783 355.06 360.37C356.652 366.408 360.216 371.74 365.186 375.52C370.156 379.299 376.247 381.309 382.49 381.23C384.122 381.222 385.751 381.081 387.36 380.81C387.948 380.679 388.542 380.579 389.14 380.51Z" fill="#263238"/>
<path d="M405.05 400C404.91 400 406.23 394.43 408.05 387.65C409.87 380.87 411.37 375.4 411.5 375.44C411.63 375.48 410.32 381 408.55 387.78C406.78 394.56 405.19 400 405.05 400Z" fill="#263238"/>
<path d="M419 388.21C418.88 388.28 414.86 381.71 410 373.53C405.14 365.35 401.34 358.66 401.47 358.59C401.6 358.52 405.61 365.08 410.47 373.26C415.33 381.44 419.17 388.13 419 388.21Z" fill="#263238"/>
<path d="M457.39 404.4C457.39 404.5 455.93 404.62 453.65 405.2C452.318 405.538 451.012 405.969 449.74 406.49C448.189 407.146 446.691 407.922 445.26 408.81C443.848 409.719 442.51 410.739 441.26 411.86C440.241 412.792 439.288 413.794 438.41 414.86C436.91 416.67 436.17 417.94 436.08 417.86C436.2 417.536 436.358 417.227 436.55 416.94C437.013 416.121 437.538 415.339 438.12 414.6C438.974 413.495 439.914 412.458 440.93 411.5C442.188 410.335 443.546 409.284 444.99 408.36C446.446 407.455 447.979 406.679 449.57 406.04C450.868 405.528 452.206 405.123 453.57 404.83C454.484 404.618 455.414 404.478 456.35 404.41C456.694 404.357 457.045 404.353 457.39 404.4Z" fill="#263238"/>
<path d="M462.29 398.38C462.29 398.49 460.68 398.29 458.11 398.51C456.611 398.645 455.126 398.906 453.67 399.29C450.101 400.238 446.766 401.909 443.87 404.2C442.693 405.137 441.595 406.171 440.59 407.29C438.88 409.21 438.08 410.61 437.99 410.56C438.125 410.206 438.303 409.87 438.52 409.56C438.734 409.174 438.975 408.803 439.24 408.45C439.573 407.966 439.93 407.498 440.31 407.05C441.293 405.876 442.384 404.798 443.57 403.83C445.037 402.654 446.618 401.629 448.29 400.77C449.973 399.946 451.735 399.296 453.55 398.83C455.038 398.456 456.558 398.225 458.09 398.14C458.673 398.111 459.257 398.111 459.84 398.14C460.284 398.142 460.729 398.168 461.17 398.22C461.549 398.226 461.925 398.279 462.29 398.38Z" fill="#263238"/>
<g opacity="0.3">
<path opacity="0.3" d="M355.63 360.77C353.28 365.23 355.24 370.67 357.39 375.24C359.06 378.78 360.92 382.37 363.96 384.84C365.454 386.061 367.184 386.96 369.042 387.481C370.899 388.002 372.845 388.133 374.755 387.866C376.666 387.6 378.501 386.941 380.146 385.931C381.79 384.922 383.208 383.583 384.31 382C377.935 381.905 371.739 379.884 366.534 376.202C361.33 372.52 357.361 367.349 355.15 361.37" fill="black"/>
</g>
<g opacity="0.3">
<path opacity="0.3" d="M401.54 358.59C399.74 362.88 401.1 368.75 402.98 373C404.86 377.25 406.86 382 405.35 386.41C404.961 387.193 404.759 388.056 404.76 388.93C404.86 389.79 405.76 390.62 406.57 390.22C406.989 389.926 407.279 389.482 407.38 388.98C408.8 384.7 410.223 380.423 411.65 376.15" fill="black"/>
</g>
<path d="M306.94 302.1C307.101 299.415 307.435 296.742 307.94 294.1C308.28 291.443 308.791 288.811 309.47 286.22C309.319 288.906 308.985 291.579 308.47 294.22C308.133 296.877 307.622 299.51 306.94 302.1Z" fill="#FAFAFA"/>
<path d="M296.41 299.89C296.28 299.97 294.56 297.57 292.18 294.81C289.8 292.05 287.7 289.98 287.8 289.87C289.593 291.181 291.201 292.729 292.58 294.47C294.086 296.103 295.374 297.925 296.41 299.89Z" fill="#FAFAFA"/>
<path d="M305.45 274.13C305.149 274.774 304.769 275.379 304.32 275.93C303.56 277 302.45 278.43 301.16 279.93C299.87 281.43 298.63 282.78 297.7 283.7C297.234 284.234 296.699 284.705 296.11 285.1C296 285 298.19 282.63 300.76 279.59C303.33 276.55 305.33 274 305.45 274.13Z" fill="#FAFAFA"/>
<path d="M301.92 261.54C301.77 261.6 301.2 260.33 300.1 259.06C299 257.79 297.82 257.06 297.9 256.91C298.94 257.209 299.851 257.846 300.49 258.72C301.259 259.481 301.761 260.47 301.92 261.54Z" fill="#FAFAFA"/>
<path d="M292.8 269.3C291.983 269.685 291.101 269.912 290.2 269.97C289.326 270.198 288.415 270.253 287.52 270.13C289.21 269.517 291.003 269.235 292.8 269.3Z" fill="#FAFAFA"/>
<path d="M315.81 280.41C315.833 278.853 315.722 277.298 315.48 275.76C315.066 274.258 314.521 272.796 313.85 271.39C314.984 272.555 315.728 274.044 315.98 275.65C316.408 277.217 316.349 278.877 315.81 280.41Z" fill="#FAFAFA"/>
<path d="M328.1 293.63C326.256 290.686 323.779 288.189 320.85 286.32C322.504 286.962 324.004 287.944 325.253 289.203C326.502 290.463 327.472 291.971 328.1 293.63Z" fill="#FAFAFA"/>
<path d="M308.37 316.57C305.393 317.685 302.095 317.574 299.2 316.26C299.25 316.11 301.2 316.74 303.77 316.81C306.34 316.88 308.33 316.42 308.37 316.57Z" fill="#FAFAFA"/>
<path d="M317.63 321.32C317.49 321.26 318.27 318.96 318.92 316.04C319.57 313.12 319.86 310.7 320.01 310.72C320.113 312.549 319.917 314.383 319.43 316.15C319.112 317.959 318.504 319.705 317.63 321.32Z" fill="#FAFAFA"/>
<path d="M337.86 322.09C336.278 320.753 334.816 319.281 333.49 317.69C332.027 316.217 330.689 314.625 329.49 312.93C331.066 314.274 332.524 315.749 333.85 317.34C335.312 318.813 336.653 320.401 337.86 322.09Z" fill="#FAFAFA"/>
<path d="M347.28 345.46C346.081 344.59 344.987 343.583 344.02 342.46C342.936 341.453 341.97 340.325 341.14 339.1C342.339 339.97 343.433 340.977 344.4 342.1C345.494 343.098 346.461 344.226 347.28 345.46Z" fill="#FAFAFA"/>
<path d="M329.77 347.69C328.62 348.914 327.267 349.929 325.77 350.69C324.362 351.627 322.797 352.305 321.15 352.69C321.15 352.55 323.15 351.69 325.51 350.28C327.87 348.87 329.67 347.57 329.77 347.69Z" fill="#FAFAFA"/>
<path d="M337.83 369.92C337.68 369.92 338.28 367.26 338.58 363.97C338.88 360.68 338.79 357.97 338.94 357.97C339.307 359.949 339.361 361.974 339.1 363.97C339 366.009 338.571 368.018 337.83 369.92Z" fill="#FAFAFA"/>
<path d="M368.14 351.85C366.488 350.839 365.023 349.55 363.81 348.04C362.473 346.644 361.393 345.022 360.62 343.25C360.75 343.16 362.12 345.33 364.2 347.7C366.28 350.07 368.24 351.72 368.14 351.85Z" fill="#FAFAFA"/>
<path d="M379.21 361.28C379.09 361.19 380.61 359.11 382.31 356.44C384.01 353.77 385.26 351.53 385.39 351.6C384.741 353.418 383.85 355.14 382.74 356.72C381.78 358.396 380.592 359.931 379.21 361.28Z" fill="#FAFAFA"/>
<path d="M377.59 338.2C374.176 337.633 370.826 336.728 367.59 335.5C369.314 335.706 371.015 336.074 372.67 336.6C374.36 336.966 376.008 337.502 377.59 338.2Z" fill="#FAFAFA"/>
<path d="M369.52 378.82C369.343 377.245 369.343 375.655 369.52 374.08C369.533 372.495 369.714 370.916 370.06 369.37C370.24 370.945 370.24 372.535 370.06 374.11C370.05 375.695 369.869 377.274 369.52 378.82Z" fill="#FAFAFA"/>
<path d="M376.5 392.73C377.024 391.115 377.445 389.468 377.76 387.8C377.898 386.107 377.925 384.407 377.84 382.71C378.356 384.374 378.503 386.131 378.272 387.858C378.041 389.585 377.436 391.24 376.5 392.71V392.73Z" fill="#FAFAFA"/>
<path d="M358.41 389.66C357.9 386.205 358.577 382.68 360.33 379.66C360.47 379.72 359.55 381.83 359.03 384.6C358.51 387.37 358.56 389.65 358.41 389.66Z" fill="#FAFAFA"/>
<path d="M341.91 396.71C340.28 395.577 338.711 394.359 337.21 393.06C335.604 391.897 334.059 390.652 332.58 389.33C334.378 390.226 336.057 391.341 337.58 392.65C339.177 393.829 340.63 395.192 341.91 396.71Z" fill="#FAFAFA"/>
<path d="M353.08 377.09C349.253 379.518 345.241 381.641 341.08 383.44C342.963 382.144 344.942 380.994 347 380C348.949 378.875 350.981 377.902 353.08 377.09Z" fill="#FAFAFA"/>
<path d="M387.79 421.12C387.578 421.189 387.36 421.243 387.14 421.28C386.71 421.36 386.08 421.52 385.26 421.63C382.944 421.984 380.602 422.135 378.26 422.08C372.21 421.992 366.248 420.622 360.766 418.061C355.285 415.499 350.409 411.804 346.46 407.22C344.166 404.581 342.202 401.673 340.61 398.56C339.525 396.474 338.628 394.295 337.93 392.05C337.66 391.26 337.53 390.63 337.41 390.21C337.343 389.995 337.3 389.774 337.28 389.55C337.376 389.753 337.453 389.963 337.51 390.18C337.66 390.59 337.82 391.18 338.12 391.99C340.037 397.472 342.991 402.534 346.82 406.9C350.779 411.379 355.61 415.002 361.017 417.549C366.425 420.096 372.296 421.511 378.27 421.71C380.607 421.797 382.947 421.703 385.27 421.43C386.1 421.35 386.73 421.22 387.16 421.18C387.367 421.136 387.578 421.116 387.79 421.12Z" fill="#263238"/>
<path d="M357.91 415.94C357.569 414.353 357.733 412.699 358.38 411.21C358.868 409.661 359.834 408.306 361.14 407.34C360.257 408.619 359.497 409.978 358.87 411.4C358.412 412.881 358.091 414.4 357.91 415.94Z" fill="#FAFAFA"/>
<path d="M349.68 412.5C348.73 413.235 347.859 414.066 347.08 414.98C346.43 415.987 345.881 417.055 345.44 418.17C345.473 416.902 345.899 415.676 346.659 414.661C347.418 413.646 348.474 412.891 349.68 412.5Z" fill="#FAFAFA"/>
<path d="M381.33 431.34C379.693 431.209 378.112 430.686 376.72 429.816C375.328 428.946 374.165 427.754 373.33 426.34C375.505 428.688 378.266 430.414 381.33 431.34Z" fill="#FAFAFA"/>
<path d="M386.25 403.64C386.04 405.11 385.419 406.491 384.458 407.623C383.497 408.755 382.236 409.593 380.82 410.04C381.989 409.233 383.074 408.312 384.06 407.29C384.914 406.152 385.648 404.929 386.25 403.64Z" fill="#FAFAFA"/>
<path d="M400.24 424.29C400.12 424.19 401.44 422.52 402.66 420.22C403.88 417.92 404.53 415.89 404.66 415.94C404.094 419.121 402.54 422.042 400.22 424.29H400.24Z" fill="#FAFAFA"/>
<path d="M418.73 427C418.79 427.15 416.97 427.87 415.14 429.38C413.31 430.89 412.21 432.51 412.08 432.38C412.655 431 413.6 429.806 414.81 428.93C415.912 427.935 417.27 427.267 418.73 427Z" fill="#FAFAFA"/>
<path d="M404.63 403.33C404.47 403.38 403.63 400.46 401.76 397.22C399.89 393.98 397.89 391.7 398.02 391.6C398.569 391.987 399.052 392.459 399.45 393C401.554 395.459 403.158 398.306 404.17 401.38C404.421 402.003 404.576 402.66 404.63 403.33Z" fill="#FAFAFA"/>
<path d="M407.39 373.56C404.277 374.635 401.059 375.376 397.79 375.77C400.903 374.698 404.121 373.957 407.39 373.56Z" fill="#FAFAFA"/>
<path d="M398.88 364.66C397.738 363.598 396.712 362.418 395.82 361.14C394.802 359.962 393.913 358.678 393.17 357.31C394.323 358.357 395.349 359.535 396.23 360.82C397.258 361.994 398.147 363.283 398.88 364.66Z" fill="#FAFAFA"/>
<path d="M420 359.32C416.76 359.239 413.572 358.483 410.64 357.1C412.224 357.371 413.79 357.735 415.33 358.19C416.908 358.472 418.468 358.849 420 359.32Z" fill="#FAFAFA"/>
<path d="M435 359.05C435.43 357.635 435.941 356.246 436.53 354.89C436.952 353.469 437.463 352.077 438.06 350.72C437.979 352.217 437.64 353.688 437.06 355.07C436.614 356.508 435.916 357.855 435 359.05Z" fill="#FAFAFA"/>
<path d="M431.58 379.37C428.479 378.677 425.677 377.018 423.58 374.63C423.68 374.51 425.26 375.89 427.45 377.18C429.64 378.47 431.63 379.22 431.58 379.37Z" fill="#FAFAFA"/>
<path d="M441.32 378.75C441.521 376.743 441.889 374.756 442.42 372.81C442.782 370.832 443.31 368.889 444 367C443.439 370.991 442.532 374.926 441.29 378.76L441.32 378.75Z" fill="#FAFAFA"/>
<path d="M433.19 401.47C430.694 398.645 428.464 395.596 426.53 392.36C427.84 393.717 429.025 395.189 430.07 396.76C431.253 398.231 432.297 399.807 433.19 401.47Z" fill="#FAFAFA"/>
<path d="M447.07 392.78C446.93 392.85 446.02 391.04 444.58 389.02C443.14 387 441.75 385.53 441.86 385.42C443.118 386.301 444.188 387.423 445.01 388.72C445.965 389.919 446.666 391.301 447.07 392.78Z" fill="#FAFAFA"/>
<path d="M460.09 390.83C458.95 389.491 457.882 388.092 456.89 386.64C455.754 385.301 454.685 383.906 453.69 382.46C456.35 384.804 458.525 387.648 460.09 390.83Z" fill="#FAFAFA"/>
<path d="M457 399.46C456.822 398.258 456.418 397.102 455.81 396.05C455.078 395.079 454.173 394.252 453.14 393.61C453.14 393.55 453.6 393.61 454.23 393.92C455.043 394.353 455.731 394.986 456.23 395.76C456.739 396.531 457.045 397.419 457.12 398.34C457.22 399 457.09 399.46 457 399.46Z" fill="#FAFAFA"/>
<path d="M446.88 411.29C446.8 411.29 446.83 411.02 446.75 410.67C446.655 410.22 446.412 409.815 446.06 409.52C445.691 409.247 445.239 409.109 444.78 409.13C444.42 409.13 444.19 409.22 444.15 409.13C444.11 409.04 444.3 408.86 444.73 408.74C445.013 408.666 445.309 408.659 445.595 408.718C445.881 408.777 446.15 408.901 446.38 409.081C446.61 409.261 446.796 409.492 446.923 409.755C447.049 410.019 447.113 410.308 447.11 410.6C447.1 411.08 446.94 411.31 446.88 411.29Z" fill="#FAFAFA"/>
<path d="M342.84 430.2C340.972 429.48 339.275 428.38 337.857 426.968C336.438 425.556 335.329 423.864 334.6 422C336.64 425.373 339.467 428.2 342.84 430.24V430.2Z" fill="#FAFAFA"/>
<path d="M279.19 182C277.58 166.79 274.67 152.48 273.88 137.57C273.911 137.196 273.864 136.82 273.742 136.465C273.62 136.11 273.425 135.785 273.17 135.51C272.952 135.383 272.711 135.301 272.46 135.27C272.21 135.239 271.956 135.259 271.714 135.329C271.472 135.399 271.246 135.518 271.051 135.678C270.856 135.838 270.696 136.036 270.58 136.26C270.144 137.196 269.971 138.233 270.08 139.26C270.097 147.189 268.744 155.062 266.08 162.53C264.37 167.38 262.08 172.03 260.8 177C259.52 181.97 261.93 183.66 264.17 188.29" fill="#FFBE9D"/>
<path d="M264.2 188.27C262.219 186.75 260.682 184.726 259.752 182.409C258.821 180.092 258.53 177.568 258.91 175.1C259.42 172.1 260.91 169.38 262.09 166.58C263.27 163.78 264.18 160.67 263.46 157.72C263.062 156.625 262.793 155.487 262.66 154.33C262.66 153.17 263.41 151.87 264.57 151.82C265.008 151.855 265.433 151.992 265.809 152.219C266.186 152.447 266.504 152.759 266.74 153.13C268.69 155.54 270.25 162.58 269.27 167.84" fill="#FFBE9D"/>
<path d="M269.27 167.84C269.27 167.84 269.37 167.03 269.43 165.57C269.493 163.511 269.322 161.451 268.92 159.43C268.651 158.038 268.249 156.675 267.72 155.36C267.442 154.644 267.065 153.971 266.6 153.36C266.391 153.032 266.118 152.75 265.796 152.532C265.475 152.313 265.112 152.163 264.73 152.09C264.337 152.109 263.961 152.256 263.659 152.509C263.357 152.761 263.147 153.106 263.06 153.49C262.846 154.343 262.902 155.241 263.22 156.06C263.556 156.975 263.791 157.924 263.92 158.89C264.017 159.89 263.98 160.899 263.81 161.89C263.11 165.95 260.95 169.23 259.81 172.48C259.248 173.998 258.947 175.601 258.92 177.22C258.914 178.63 259.123 180.033 259.54 181.38C260.146 183.345 261.169 185.157 262.54 186.69C263.54 187.76 264.19 188.23 264.16 188.28C263.981 188.189 263.814 188.079 263.66 187.95C263.208 187.606 262.784 187.228 262.39 186.82C260.928 185.312 259.833 183.489 259.19 181.49C258.734 180.112 258.498 178.671 258.49 177.22C258.499 175.549 258.793 173.892 259.36 172.32C260.46 169 262.59 165.72 263.25 161.81C263.421 160.86 263.458 159.89 263.36 158.93C263.24 157.991 263.015 157.069 262.69 156.18C262.344 155.261 262.295 154.258 262.55 153.31C262.699 152.837 262.972 152.412 263.34 152.08C263.524 151.908 263.742 151.776 263.979 151.692C264.217 151.607 264.469 151.573 264.72 151.59C265.178 151.651 265.618 151.808 266.011 152.051C266.404 152.294 266.741 152.617 267 153C267.486 153.662 267.877 154.389 268.16 155.16C268.689 156.503 269.077 157.897 269.32 159.32C269.699 161.37 269.816 163.46 269.67 165.54C269.635 166.104 269.561 166.666 269.45 167.22C269.42 167.434 269.359 167.643 269.27 167.84Z" fill="#EB996E"/>
<path d="M400 249.05C400.327 250.48 401.101 251.769 402.211 252.73C403.321 253.69 404.707 254.272 406.17 254.39C407.636 254.462 409.096 254.16 410.413 253.513C411.73 252.866 412.861 251.894 413.7 250.69C415.361 248.241 416.029 245.253 415.57 242.33C415 238.12 412.2 234.07 408.14 232.82C404.08 231.57 399.03 233.82 397.91 237.9L393.23 244.43L400 249.05Z" fill="#263238"/>
<path d="M394.47 236.22C394.924 232.601 394.646 228.928 393.654 225.419C392.661 221.909 390.973 218.635 388.691 215.79C386.409 212.946 383.578 210.588 380.367 208.858C377.157 207.129 373.631 206.061 370 205.72C355.49 204.34 342.58 215.15 340.41 229.57C338.5 242.21 336.86 254.97 336.92 259.57C337.1 273.57 345.27 278.99 348.59 280.57C349.782 281 351.015 281.305 352.27 281.48C352.282 281.482 352.293 281.487 352.303 281.494C352.314 281.501 352.322 281.51 352.329 281.52C352.335 281.53 352.34 281.542 352.342 281.554C352.343 281.566 352.343 281.578 352.34 281.59L349.24 297.59C347.83 308.1 353.7 317.48 364.19 319.01C374.68 320.54 382.95 312.47 384.56 301.95L394.47 236.22Z" fill="#FFBE9D"/>
<path d="M342.82 237.74C343.05 238.07 344.89 237.08 347.26 237.43C349.63 237.78 351.18 239.22 351.48 238.96C351.63 238.85 351.42 238.3 350.75 237.64C349.83 236.78 348.667 236.225 347.42 236.05C346.189 235.871 344.933 236.085 343.83 236.66C343 237.11 342.7 237.59 342.82 237.74Z" fill="#263238"/>
<path d="M363.86 242.3C364.09 242.63 365.94 241.64 368.3 241.99C370.66 242.34 372.23 243.78 372.53 243.52C372.67 243.41 372.47 242.86 371.79 242.19C370.872 241.335 369.713 240.783 368.47 240.61C367.239 240.43 365.983 240.644 364.88 241.22C364.07 241.67 363.75 242.15 363.86 242.3Z" fill="#263238"/>
<path d="M355.68 253.48C354.49 252.91 353.233 252.49 351.94 252.23C351.34 252.08 350.79 251.87 350.75 251.45C350.789 250.82 351.019 250.216 351.41 249.72L353.87 245.38C357.3 239.19 359.87 234.07 359.63 233.93C359.39 233.79 356.39 238.7 352.96 244.93L350.57 249.3C350.091 249.979 349.858 250.801 349.91 251.63C349.973 251.85 350.084 252.054 350.234 252.226C350.384 252.399 350.571 252.537 350.78 252.63C351.1 252.767 351.436 252.864 351.78 252.92C353.051 253.271 354.361 253.459 355.68 253.48Z" fill="#263238"/>
<path d="M352.36 281.58C352.36 281.58 361.36 283.66 373.81 278.46C373.81 278.46 368.45 290.01 351.53 285.9L352.36 281.58Z" fill="#EB996E"/>
<path d="M355.85 259.33C356.38 258.842 357.024 258.495 357.723 258.321C358.421 258.146 359.153 258.149 359.85 258.33C360.365 258.457 360.849 258.685 361.275 259.001C361.7 259.317 362.059 259.714 362.33 260.17C362.59 260.609 362.707 261.118 362.666 261.626C362.624 262.135 362.427 262.618 362.1 263.01C361.66 263.382 361.119 263.612 360.546 263.671C359.973 263.73 359.396 263.614 358.89 263.34C357.828 262.787 356.89 262.025 356.13 261.1C355.886 260.874 355.689 260.602 355.55 260.3C355.481 260.157 355.457 259.995 355.482 259.838C355.507 259.681 355.579 259.535 355.69 259.42" fill="#EB996E"/>
<path d="M362.4 256.13C362.02 256.05 361.64 258.62 359.18 260.13C356.72 261.64 354.02 260.95 353.95 261.31C353.89 261.47 354.49 261.9 355.64 262.1C357.14 262.337 358.676 262.04 359.98 261.26C361.231 260.508 362.141 259.3 362.52 257.89C362.77 256.82 362.58 256.14 362.4 256.13Z" fill="#263238"/>
<path d="M365.49 234.6C365.63 235.28 368.04 235.32 370.76 236.06C373.48 236.8 375.63 237.88 376.08 237.36C376.28 237.11 375.98 236.45 375.17 235.69C374.072 234.751 372.775 234.073 371.377 233.709C369.979 233.346 368.516 233.305 367.1 233.59C366 233.85 365.44 234.28 365.49 234.6Z" fill="#263238"/>
<path d="M345.21 230.45C345.54 231.05 347.26 230.73 349.21 230.99C351.16 231.25 352.78 231.87 353.21 231.37C353.42 231.12 353.21 230.54 352.58 229.93C351.696 229.176 350.607 228.703 349.453 228.571C348.299 228.439 347.131 228.655 346.1 229.19C345.37 229.64 345.06 230.16 345.21 230.45Z" fill="#263238"/>
<path d="M337.67 226.44C340.56 230.85 349.74 228.12 355.28 225.09C358.174 226.936 361.674 227.58 365.035 226.885C368.397 226.191 371.355 224.212 373.28 221.37C376.45 225.37 382.9 224.07 385.28 219.52C387.66 214.97 386.28 208.7 383.08 204.72C379.88 200.74 375.14 198.72 370.48 197.87C359.43 195.87 347.4 200.11 340.79 210.1C337.74 214.71 335.91 220.92 337.72 226.44" fill="#263238"/>
<path d="M368.21 199.44C368.21 199.64 365.6 199.14 361.5 199.82C356.174 200.706 351.293 203.333 347.62 207.29C344.163 211.433 341.877 216.426 341 221.75C340.696 223.97 340.579 226.211 340.65 228.45C340.437 227.872 340.312 227.265 340.28 226.65C340.105 224.986 340.132 223.307 340.36 221.65C341.085 216.119 343.383 210.913 346.98 206.65C350.782 202.533 355.905 199.876 361.46 199.14C363.118 198.917 364.796 198.89 366.46 199.06C367.059 199.096 367.65 199.225 368.21 199.44Z" fill="#455A64"/>
<path d="M353.27 220C353.105 219.494 353.031 218.962 353.05 218.43C352.997 216.979 353.149 215.529 353.5 214.12C354.035 211.758 355.048 209.53 356.476 207.574C357.904 205.618 359.718 203.974 361.805 202.745C363.892 201.516 366.208 200.727 368.612 200.427C371.015 200.127 373.455 200.322 375.78 201C377.183 201.385 378.529 201.957 379.78 202.7C380.262 202.951 380.693 203.29 381.05 203.7C379.306 202.875 377.492 202.205 375.63 201.7C371.101 200.546 366.299 201.23 362.272 203.601C358.245 205.973 355.318 209.84 354.13 214.36C353.15 217.7 353.46 220 353.27 220Z" fill="#455A64"/>
<path d="M379.78 215.2C378.696 219.114 378.072 223.141 377.92 227.2C377.77 231.281 379.039 235.288 381.51 238.54C385.37 243.19 391.81 244.61 397.75 245.74C400.928 237.813 401.885 229.17 400.52 220.74C399.84 216.65 398.52 212.48 395.64 209.5C393.499 207.388 390.717 206.045 387.731 205.684C384.746 205.322 381.724 205.96 379.14 207.5" fill="#263238"/>
<path d="M383.08 234.56C381.52 237.94 381.63 241.85 382.17 245.56C382.71 249.27 383.65 252.9 383.61 256.62C383.57 260.34 382.39 264.29 379.47 266.62C378.584 267.21 377.754 267.88 376.99 268.62C376.613 268.996 376.36 269.479 376.267 270.003C376.174 270.527 376.245 271.067 376.47 271.55C377.03 272.45 378.72 272.43 378.96 271.4L378.81 271.66C378.663 271.909 378.583 272.193 378.58 272.482C378.577 272.771 378.65 273.057 378.792 273.309C378.934 273.561 379.139 273.772 379.388 273.919C379.637 274.067 379.921 274.146 380.21 274.15C381.232 274.101 382.233 273.843 383.151 273.393C384.07 272.942 384.886 272.308 385.55 271.53C387.46 269.32 388.22 266.35 388.72 263.53C390.26 254.7 389.96 245.53 392.4 236.92" fill="#263238"/>
<path d="M349.17 292.55C349.859 295.558 351.187 298.383 353.063 300.832C354.94 303.282 357.322 305.299 360.047 306.746C362.773 308.194 365.777 309.038 368.858 309.221C371.938 309.405 375.022 308.924 377.9 307.81C383.08 305.81 387.26 301.91 391.29 298.1C392.011 302.437 391.813 306.878 390.707 311.133C389.602 315.389 387.614 319.365 384.873 322.803C382.132 326.24 378.699 329.064 374.796 331.089C370.894 333.115 366.609 334.297 362.22 334.56C355.59 334.96 348.47 332.94 344.3 327.77C341.39 324.17 340.22 319.4 340.3 314.77C340.502 310.133 341.385 305.55 342.92 301.17C344.1 297.39 345.97 293.17 349.79 292.12" fill="#EDCF83"/>
<path d="M396.61 246C400.61 248.15 402.75 252.65 403.52 257.09C404.29 261.53 403.9 266.09 404.09 270.58C404.28 275.07 405.14 279.79 407.99 283.28C410.99 287 415.74 288.76 419.99 291.03C429.31 296.03 436.99 304.56 439.79 314.78C442.59 325 440.05 336.78 432.4 344.13C425.4 350.79 415.3 353.13 405.66 353.13C398.79 353.13 391.24 351.65 386.95 346.28C382.66 340.91 382.95 333.38 384.45 326.76C385.95 320.14 388.7 313.71 388.81 306.92C387.783 311.124 385.994 315.103 383.53 318.66C382.82 319.66 381.61 320.76 380.53 320.18C379.45 319.6 379.78 317.73 380.34 316.48C388.62 298.05 385.74 260.9 390.65 240.55" fill="#263238"/>
<path d="M389.79 243.91C390.04 243.83 399.71 242 398.46 251.56C397.21 261.12 387.88 257.9 387.9 257.63C387.92 257.36 389.79 243.91 389.79 243.91Z" fill="#FFBE9D"/>
<path d="M391.29 254.39C391.29 254.39 391.44 254.52 391.71 254.69C392.084 254.91 392.528 254.978 392.95 254.88C394.01 254.64 395.07 253.14 395.34 251.43C395.466 250.611 395.412 249.775 395.18 248.98C395.13 248.669 395.004 248.376 394.814 248.125C394.624 247.874 394.375 247.673 394.09 247.54C393.91 247.476 393.715 247.474 393.534 247.534C393.353 247.594 393.197 247.712 393.09 247.87C392.93 248.12 392.96 248.32 392.91 248.33C392.86 248.34 392.73 248.14 392.85 247.76C392.936 247.529 393.098 247.335 393.31 247.21C393.459 247.121 393.624 247.063 393.796 247.041C393.969 247.018 394.143 247.032 394.31 247.08C394.693 247.209 395.036 247.434 395.307 247.734C395.579 248.033 395.769 248.397 395.86 248.79C396.156 249.672 396.235 250.611 396.09 251.53C395.78 253.45 394.56 255.12 393.09 255.34C392.824 255.383 392.551 255.364 392.293 255.286C392.035 255.209 391.798 255.073 391.6 254.89C391.28 254.62 391.26 254.4 391.29 254.39Z" fill="#EB996E"/>
<path d="M339.29 313.15C339.759 312.129 340.301 311.144 340.91 310.2C342.304 307.893 343.46 305.451 344.36 302.91C345.235 300.367 345.529 297.661 345.22 294.99C345.025 293.894 344.772 292.809 344.46 291.74C344.648 291.983 344.794 292.257 344.89 292.55C345.216 293.316 345.451 294.119 345.59 294.94C346.011 297.669 345.76 300.46 344.86 303.07C343.952 305.649 342.733 308.107 341.23 310.39C340.67 311.27 340.23 311.97 339.86 312.44C339.49 312.91 339.32 313.17 339.29 313.15Z" fill="#263238"/>
<path d="M344.16 302.12C344.02 302.12 343.75 301.3 342.89 300.73C342.03 300.16 341.17 300.16 341.15 300.01C341.13 299.86 341.36 299.84 341.75 299.83C342.267 299.835 342.77 299.999 343.19 300.3C343.613 300.596 343.94 301.01 344.13 301.49C344.26 301.86 344.23 302.1 344.16 302.12Z" fill="#FAFAFA"/>
<path d="M350.34 302.1C349.591 301.258 348.768 300.485 347.88 299.79C346.895 299.239 345.856 298.79 344.78 298.45C345.376 298.368 345.982 298.406 346.562 298.562C347.143 298.718 347.686 298.99 348.16 299.36C349.217 299.954 349.999 300.937 350.34 302.1Z" fill="#FAFAFA"/>
<path d="M354.22 322.39C354.243 321.011 354.438 319.641 354.8 318.31C354.993 316.936 355.359 315.592 355.89 314.31C355.867 315.692 355.672 317.066 355.31 318.4C355.116 319.771 354.75 321.111 354.22 322.39Z" fill="#FAFAFA"/>
<path d="M369.82 325.45C369.57 322.579 369.66 319.689 370.09 316.84C370.353 319.71 370.263 322.602 369.82 325.45Z" fill="#FAFAFA"/>
<path d="M51.3099 369.89L35.8899 437.04L68.4999 437.14L83.5599 378.09L51.3099 369.89Z" fill="#B78876"/>
<path d="M211.45 287.39C208.35 283.24 204.79 279.25 203.16 274.33C202.37 271.95 202.06 269.43 201.22 267.07C200.38 264.71 198.85 262.41 196.51 261.52C194.17 260.63 192.39 261.52 190.87 263.2L179.68 295.93L186.13 321.07C192.57 319.62 200.63 317.9 206.65 315.19C212.67 312.48 216.65 308.14 217.07 301.55C217.36 296.38 214.55 291.55 211.45 287.39Z" fill="#263238"/>
<path d="M109.62 281.61C109.62 281.61 70.72 298.54 65.86 306.18C61 313.82 45 368.29 45 368.29L86 380.29L85.3 437H185.8L184.97 337L172.37 281.74C172.37 281.74 150.18 280.31 148.12 279.3C146.06 278.29 109.62 281.61 109.62 281.61Z" fill="#EDCF83"/>
<path d="M247.86 143C248.18 140.71 246.57 138.19 247.73 136.18C248.497 135.144 249.594 134.4 250.84 134.07C251.444 133.794 252.096 133.641 252.76 133.62C253.091 133.615 253.416 133.707 253.695 133.884C253.974 134.062 254.195 134.318 254.33 134.62C254.402 135.002 254.368 135.397 254.232 135.762C254.097 136.127 253.864 136.448 253.56 136.69C252.951 137.169 252.438 137.759 252.05 138.43C251.778 140.076 251.905 141.763 252.42 143.35C253.752 146.842 254.858 150.416 255.73 154.05" fill="#B78876"/>
<path d="M239.65 143.78C239.79 140.31 242.65 126.64 242.75 123.17C245.1 123.89 246.46 126.39 246.9 128.81C247.34 131.23 247.11 133.72 247.53 136.14C248.09 139.39 249.78 142.32 251.48 145.14C253.18 147.96 254.96 150.83 255.73 154.03C256.5 157.23 259.4 165.55 257.14 167.95" fill="#B78876"/>
<path d="M239 167.18L225.09 233.26C224.6 236.26 172.37 281.81 172.37 281.81L182.68 323L250.68 256.47C255.59 251.221 258.262 244.266 258.13 237.08L256.97 175.08L239 167.18Z" fill="#B78876"/>
<path d="M236.62 144.2L239 167.2L257 175.12C257 175.12 257.22 173.49 258 165.52C258.85 156.74 249.41 152.97 245.2 146.52C243.4 143.75 243.87 138.65 242.48 132.33C242.32 131.6 241.32 127.18 240.78 124.81C240.496 123.493 239.724 122.332 238.62 121.56C237.8 121.02 236.88 120.75 236.21 121.56C235.54 122.37 236.62 144.2 236.62 144.2Z" fill="#B78876"/>
<path d="M247.86 171C249.86 169.27 250.34 166.17 249.59 163.6C248.672 161.069 247.223 158.764 245.34 156.84C243.46 154.92 241.879 152.729 240.65 150.34C239.89 148.62 239.53 146.72 238.65 145.03C237.77 143.34 236.28 141.79 234.4 141.72C235.91 151.23 235.87 156.72 238.96 167.14" fill="#B78876"/>
<path d="M236.27 152.58C236.27 152.58 236.2 152.32 236.09 151.82C235.98 151.32 235.79 150.49 235.61 149.64C235.18 147.64 234.61 145.09 234.02 142.16L233.96 141.88H234.25C234.865 141.858 235.479 141.957 236.056 142.174C236.633 142.39 237.161 142.718 237.61 143.14C238.983 144.447 239.96 146.114 240.43 147.95C240.829 149.377 241.354 150.766 242 152.1C242.489 152.976 243.08 153.792 243.76 154.53C244.008 154.814 244.21 155.134 244.36 155.48C244.086 155.226 243.832 154.952 243.6 154.66C242.856 153.957 242.21 153.156 241.68 152.28C240.973 150.942 240.398 149.539 239.96 148.09C239.495 146.345 238.561 144.762 237.26 143.51C236.449 142.749 235.372 142.336 234.26 142.36L234.5 142.06C235.71 148.08 236.49 152.59 236.27 152.58Z" fill="#7C5142"/>
<path d="M244.36 146.73C243.634 143.636 243.08 140.505 242.7 137.35C242.144 134.22 241.76 131.062 241.55 127.89C242.281 130.986 242.835 134.121 243.21 137.28C243.765 140.407 244.149 143.561 244.36 146.73Z" fill="#7C5142"/>
<path d="M250.09 147.51C250.09 147.51 250.16 147.61 250.22 147.86H250.07C249.326 145.72 248.718 143.536 248.25 141.32C247.82 139.39 247.51 137.63 247.32 136.32C247.166 135.635 247.105 134.932 247.14 134.23C247.29 134.23 247.9 137.34 248.76 141.23C249.45 144.34 250.09 146.96 250.22 147.84H250.07C250.06 147.63 250.06 147.51 250.09 147.51Z" fill="#7C5142"/>
<path d="M253.64 160.18C253.56 160.18 253.2 159.66 252.48 158.89C250.578 156.869 247.996 155.622 245.23 155.39C244.651 155.395 244.073 155.358 243.5 155.28C244.054 155.065 244.648 154.976 245.24 155.02C246.681 155.038 248.101 155.373 249.399 156C250.696 156.627 251.84 157.532 252.75 158.65C253.159 159.085 253.464 159.609 253.64 160.18Z" fill="#7C5142"/>
<path d="M240.63 169C240.135 168.139 239.736 167.227 239.44 166.28C238.618 164.036 237.93 161.745 237.38 159.42C236.82 157.114 236.4 154.776 236.12 152.42C235.956 151.429 235.896 150.424 235.94 149.42C236.191 150.375 236.371 151.348 236.48 152.33C236.78 154.12 237.24 156.6 237.88 159.33C238.52 162.06 239.24 164.45 239.79 166.19C240.135 167.106 240.415 168.045 240.63 169Z" fill="#7C5142"/>
<path d="M160.16 283C161.051 281.636 162.433 280.667 164.019 280.294C165.606 279.922 167.275 280.175 168.68 281C176.02 275 183.53 269.18 190.87 263.21C188.47 275.21 186.87 291.94 192.24 302.92C192.24 302.92 199.01 315.5 209.79 313.58L200.17 323L185 337.07" fill="#EDCF83"/>
<path d="M157.78 288.6C157.791 286.99 158.282 285.42 159.19 284.09C159.956 282.67 161.125 281.508 162.55 280.75C160.29 282.896 158.644 285.606 157.78 288.6Z" fill="#263238"/>
<path d="M165.71 296C165.294 295.333 165.009 294.594 164.87 293.82C164.438 291.965 164.387 290.043 164.719 288.167C165.05 286.292 165.758 284.504 166.8 282.91C167.197 282.228 167.72 281.628 168.34 281.14C168.41 281.2 167.83 281.88 167.12 283.14C166.196 284.734 165.557 286.477 165.23 288.29C164.917 290.107 164.917 291.963 165.23 293.78C165.48 295.08 165.79 295.92 165.71 296Z" fill="#263238"/>
<path d="M202.45 321.68C201.712 322.139 200.905 322.477 200.06 322.68C197.75 323.237 195.333 323.165 193.06 322.47C189.694 321.401 186.749 319.302 184.64 316.47C182.107 312.996 180.397 308.992 179.64 304.76C178.228 297.139 177.824 289.366 178.44 281.64C178.67 278.64 179 276.3 179.28 274.64C179.41 273.82 179.53 273.19 179.62 272.76C179.651 272.538 179.705 272.321 179.78 272.11C179.787 272.335 179.767 272.56 179.72 272.78L179.48 274.67C179.27 276.31 178.99 278.67 178.81 281.67C178.298 289.363 178.749 297.089 180.15 304.67C180.899 308.793 182.555 312.697 185 316.1C187.022 318.903 189.873 321.002 193.15 322.1C195.363 322.813 197.723 322.94 200 322.47C200.833 322.262 201.652 321.998 202.45 321.68Z" fill="#FAFAFA"/>
<path d="M86.1899 397.17C86.0499 397.17 85.9299 382.95 85.9299 365.42C85.9299 347.89 86.0499 333.67 86.1899 333.67C86.3299 333.67 86.4499 347.88 86.4499 365.42C86.4499 382.96 86.3399 397.17 86.1899 397.17Z" fill="#263238"/>
<path d="M85.3898 322.7C85.2798 322.7 85.3098 321.28 84.8198 319.07C84.5279 317.779 84.1092 316.519 83.5698 315.31C82.8978 313.839 82.0697 312.444 81.0998 311.15C80.103 309.874 78.9733 308.707 77.7298 307.67C76.706 306.833 75.6043 306.096 74.4398 305.47C72.4398 304.42 71.0498 304.07 71.0798 303.97C71.4211 303.987 71.758 304.055 72.0798 304.17C72.4588 304.264 72.83 304.388 73.1898 304.54C73.6804 304.709 74.1583 304.913 74.6198 305.15C75.8211 305.738 76.9545 306.456 77.9998 307.29C79.2836 308.338 80.4473 309.526 81.4698 310.83C82.4679 312.157 83.3069 313.597 83.9698 315.12C84.5144 316.365 84.9202 317.666 85.1798 319C85.2824 319.508 85.3526 320.023 85.3898 320.54C85.4366 320.928 85.4566 321.319 85.4498 321.71C85.468 322.041 85.4478 322.373 85.3898 322.7Z" fill="#263238"/>
<path d="M153.88 281.17C153.963 281.447 154.02 281.732 154.05 282.02C154.185 282.831 154.272 283.649 154.31 284.47C154.429 287.504 154.006 290.535 153.06 293.42C151.651 297.722 149.153 301.587 145.81 304.64C141.617 308.305 136.35 310.515 130.797 310.94C125.244 311.365 119.703 309.983 115 307C111.241 304.484 108.195 301.04 106.16 297C104.797 294.289 103.926 291.356 103.59 288.34C103.509 287.523 103.472 286.701 103.48 285.88C103.456 285.594 103.456 285.306 103.48 285.02C103.527 285.301 103.55 285.585 103.55 285.87C103.576 286.686 103.642 287.501 103.75 288.31C104.16 291.283 105.073 294.164 106.45 296.83C108.49 300.788 111.509 304.158 115.22 306.62C119.838 309.523 125.265 310.87 130.704 310.461C136.143 310.053 141.308 307.911 145.44 304.35C148.747 301.36 151.233 297.573 152.66 293.35C153.618 290.506 154.092 287.521 154.06 284.52C154.06 283.46 153.97 282.64 153.89 282.08C153.81 281.52 153.87 281.18 153.88 281.17Z" fill="#263238"/>
<path d="M85.3298 367.93C85.3298 368.07 77.0198 365.46 66.8798 362.11C56.7398 358.76 48.5498 355.93 48.5998 355.79C48.6498 355.65 56.8998 358.26 67.0498 361.61C77.1998 364.96 85.3698 367.79 85.3298 367.93Z" fill="#FAFAFA"/>
<path d="M184 354.05C184 354.2 161.95 354.41 134.75 354.52C107.55 354.63 85.49 354.61 85.49 354.52C85.49 354.43 107.54 354.16 134.75 354.05C161.96 353.94 184 353.91 184 354.05Z" fill="#FAFAFA"/>
<path d="M184.5 362.76C184.5 362.9 162.33 363.02 135 363.02C107.67 363.02 85.49 362.9 85.49 362.76C85.49 362.62 107.65 362.5 135 362.5C162.35 362.5 184.5 362.61 184.5 362.76Z" fill="#FAFAFA"/>
<path d="M170.92 373.34C170.852 373.618 170.759 373.889 170.64 374.15C170.42 374.71 170.12 375.47 169.75 376.43L169.09 378.07C168.83 378.67 168.52 379.3 168.2 379.99C167.54 381.35 166.86 382.93 165.91 384.59L164.47 387.21C163.97 388.12 163.37 389.02 162.79 389.98C161.65 391.91 160.25 393.85 158.79 395.92C155.543 400.319 151.966 404.464 148.09 408.32C144.159 412.122 139.943 415.619 135.48 418.78C133.38 420.18 131.41 421.55 129.48 422.65C128.48 423.21 127.6 423.79 126.68 424.28L124 425.66C122.33 426.57 120.73 427.23 119.36 427.86C118.67 428.16 118.03 428.46 117.43 428.71L115.77 429.34L113.48 430.19C113.216 430.303 112.941 430.39 112.66 430.45C112.91 430.309 113.17 430.188 113.44 430.09L115.7 429.15L117.33 428.48C117.93 428.22 118.56 427.91 119.24 427.59C120.6 426.94 122.18 426.26 123.83 425.33L126.46 423.93C127.37 423.43 128.28 422.84 129.24 422.28C131.17 421.17 133.12 419.79 135.24 418.39C144.147 412.105 151.981 404.423 158.44 395.64C159.89 393.59 161.3 391.64 162.44 389.75C163.03 388.8 163.64 387.91 164.15 387.01L165.6 384.41C166.6 382.78 167.27 381.21 167.95 379.86C168.28 379.18 168.61 378.56 168.88 377.97C169.15 377.38 169.37 376.84 169.58 376.35C169.99 375.41 170.32 374.67 170.58 374.11C170.68 373.848 170.793 373.591 170.92 373.34Z" fill="#263238"/>
<g opacity="0.3">
<path opacity="0.3" d="M166.86 382C160.14 390.18 153.1 396.11 143.23 399.93C138.5 401.75 133.55 403 128.97 405.17C124.39 407.34 120.07 410.61 117.97 415.24C116.38 418.82 117.15 424.24 120.97 425.02C122.454 425.202 123.959 424.97 125.32 424.35C144.87 417.26 157.72 399.35 166.8 382" fill="black"/>
</g>
<path d="M96.9299 204.08C92.7099 207.39 92.4299 213.58 92.6399 218.94C92.8499 224.3 92.9099 230.4 88.9999 234.1C85.7999 237.15 80.1999 238.28 79.2799 242.61C79.0471 243.63 79.1402 244.698 79.5461 245.662C79.952 246.627 80.6503 247.439 81.5426 247.986C82.4349 248.533 83.4762 248.786 84.5198 248.709C85.5635 248.633 86.5568 248.231 87.3599 247.56C85.9999 250.95 86.6199 255.29 89.5099 257.56C92.3999 259.83 97.4499 258.75 98.5099 255.27C98.3461 255.846 98.3009 256.449 98.3771 257.042C98.4533 257.636 98.6493 258.208 98.9532 258.724C99.2571 259.24 99.6625 259.688 100.145 260.042C100.627 260.397 101.177 260.649 101.76 260.785C102.343 260.92 102.947 260.936 103.537 260.831C104.126 260.726 104.688 260.502 105.188 260.174C105.688 259.845 106.117 259.418 106.447 258.919C106.777 258.42 107.003 257.859 107.11 257.27" fill="#263238"/>
<path d="M158.17 242.89C158.371 243.592 158.714 244.246 159.179 244.81C159.643 245.374 160.219 245.837 160.869 246.169C161.52 246.502 162.232 246.697 162.961 246.742C163.69 246.788 164.421 246.683 165.108 246.434C165.795 246.186 166.424 245.798 166.955 245.297C167.486 244.795 167.908 244.189 168.195 243.517C168.482 242.845 168.628 242.122 168.624 241.391C168.619 240.66 168.465 239.938 168.17 239.27C167.34 237.19 165.17 235.62 165.12 233.39C164.99 230.69 167.83 228.9 170.32 227.85C172.81 226.8 175.73 225.4 176.12 222.73C176.51 220.06 174.28 218.01 172.42 216.18C170.56 214.35 168.77 211.57 170.08 209.31C170.75 208.16 172.08 207.54 172.94 206.53C174.88 204.29 174.1 200.53 171.86 198.62C169.62 196.71 166.41 196.27 163.48 196.62C160.55 196.97 157.75 198.07 154.88 198.78C150.121 199.929 145.175 200.077 140.355 199.217C135.536 198.356 130.947 196.505 126.88 193.78" fill="#263238"/>
<path d="M99.7999 224.7L110.09 284.34C110.516 286.836 111.432 289.223 112.786 291.364C114.139 293.504 115.902 295.355 117.974 296.811C120.046 298.267 122.386 299.298 124.858 299.845C127.331 300.393 129.887 300.445 132.38 300C137.103 299.154 141.338 296.57 144.252 292.758C147.165 288.945 148.545 284.179 148.12 279.4C147.65 274.11 147.25 269.73 147.25 269.73C147.25 269.73 162.19 265.89 160.9 250.73C160.27 243.39 157.76 228.38 155.32 214.82C154.055 207.802 150.194 201.517 144.505 197.216C138.817 192.915 131.717 190.914 124.62 191.61L123.16 191.75C119.441 192.333 115.876 193.655 112.676 195.638C109.476 197.621 106.705 200.225 104.528 203.296C102.35 206.367 100.81 209.844 99.9982 213.52C99.1862 217.196 99.1188 220.997 99.7999 224.7Z" fill="#B78876"/>
<path d="M152.13 224.61C152.195 225.174 152.035 225.741 151.685 226.189C151.335 226.636 150.823 226.927 150.26 227C149.987 227.05 149.707 227.045 149.436 226.984C149.165 226.924 148.909 226.809 148.683 226.648C148.458 226.486 148.267 226.281 148.122 226.045C147.977 225.808 147.881 225.544 147.84 225.27C147.775 224.706 147.935 224.139 148.285 223.691C148.635 223.244 149.147 222.952 149.71 222.88C149.983 222.83 150.263 222.835 150.534 222.896C150.805 222.956 151.061 223.071 151.287 223.232C151.512 223.394 151.703 223.599 151.848 223.835C151.993 224.072 152.089 224.336 152.13 224.61Z" fill="#263238"/>
<path d="M152.79 222.54C152.55 222.84 150.79 221.79 148.46 222.02C146.13 222.25 144.53 223.59 144.25 223.33C144.12 223.21 144.34 222.68 145.03 222.06C145.972 221.261 147.139 220.775 148.37 220.67C149.581 220.549 150.799 220.815 151.85 221.43C152.62 221.91 152.91 222.4 152.79 222.54Z" fill="#263238"/>
<path d="M129.33 227.28C129.387 227.843 129.222 228.406 128.872 228.851C128.521 229.295 128.011 229.585 127.45 229.66C127.177 229.709 126.897 229.702 126.627 229.641C126.357 229.58 126.101 229.465 125.876 229.304C125.65 229.143 125.459 228.939 125.314 228.703C125.169 228.467 125.072 228.204 125.03 227.93C124.97 227.367 125.132 226.802 125.481 226.356C125.83 225.91 126.339 225.617 126.9 225.54C127.174 225.491 127.455 225.498 127.727 225.56C127.998 225.621 128.255 225.737 128.481 225.899C128.707 226.061 128.899 226.266 129.045 226.504C129.191 226.741 129.287 227.005 129.33 227.28Z" fill="#263238"/>
<path d="M129.92 225.2C129.68 225.51 127.92 224.46 125.59 224.69C123.26 224.92 121.67 226.26 121.38 226C121.25 225.88 121.47 225.35 122.16 224.73C123.104 223.934 124.27 223.449 125.5 223.34C126.711 223.214 127.931 223.481 128.98 224.1C129.75 224.58 130 225.07 129.92 225.2Z" fill="#263238"/>
<path d="M140.07 241.67C140.07 241.53 141.47 241.14 143.78 240.61C144.37 240.49 144.93 240.32 144.99 239.9C144.973 239.283 144.775 238.685 144.42 238.18L142.21 233.82C139.14 227.6 136.86 222.47 137.11 222.35C137.36 222.23 140.05 227.17 143.11 233.35L145.24 237.75C145.683 238.43 145.871 239.245 145.77 240.05C145.71 240.275 145.598 240.482 145.443 240.656C145.289 240.829 145.096 240.964 144.88 241.05C144.557 241.168 144.221 241.249 143.88 241.29C142.63 241.571 141.351 241.699 140.07 241.67Z" fill="#263238"/>
<path d="M129.63 216C129.46 216.66 127.11 216.58 124.41 217.18C121.71 217.78 119.56 218.74 119.15 218.18C118.96 217.93 119.28 217.29 120.15 216.59C121.261 215.713 122.563 215.11 123.95 214.83C125.334 214.525 126.771 214.556 128.14 214.92C129.15 215.25 129.7 215.7 129.63 216Z" fill="#263238"/>
<path d="M151.28 215.87C150.92 216.44 149.28 216.05 147.28 216.21C145.28 216.37 143.75 216.92 143.28 216.4C143.09 216.15 143.28 215.59 143.96 215.02C144.856 214.312 145.949 213.899 147.09 213.84C148.226 213.747 149.363 214.013 150.34 214.6C151.15 215.08 151.43 215.6 151.28 215.87Z" fill="#263238"/>
<path d="M114.64 206.46L114.56 206.54C112.331 208.679 111.013 211.594 110.88 214.68C110.88 214.79 110.88 214.9 110.88 214.99C110.71 219.38 111.24 223.77 111.03 228.15C110.82 232.53 109.75 237.07 106.84 240.36C105.65 241.71 103.41 242.78 102.19 241.45C101.765 240.89 101.509 240.22 101.45 239.52C99.6298 229.16 95.8699 220.17 94.8299 209.24C94.6806 207.778 94.8833 206.302 95.4208 204.935C95.9583 203.568 96.8152 202.349 97.9198 201.38C100.04 199.51 102.67 197.54 105.33 198.5C107.99 199.46 111.74 203.89 113.91 205.71" fill="#263238"/>
<path d="M105.58 231.06C105.31 230.98 94.8599 229 96.1999 239.33C97.5399 249.66 107.64 246.19 107.62 245.89C107.6 245.59 105.58 231.06 105.58 231.06Z" fill="#B78876"/>
<path d="M104 242.39C104 242.39 103.84 242.54 103.55 242.71C103.351 242.831 103.131 242.912 102.901 242.948C102.671 242.984 102.436 242.975 102.21 242.92C101.07 242.66 99.9199 241.04 99.6299 239.19C99.488 238.305 99.5461 237.4 99.7999 236.54C99.8569 236.204 99.9939 235.887 100.199 235.616C100.405 235.344 100.672 235.126 100.98 234.98C101.18 234.902 101.4 234.895 101.604 234.96C101.808 235.026 101.983 235.16 102.1 235.34C102.28 235.61 102.24 235.83 102.3 235.84C102.36 235.85 102.5 235.64 102.36 235.22C102.269 234.97 102.097 234.759 101.87 234.62C101.565 234.452 101.208 234.406 100.87 234.49C100.456 234.63 100.084 234.873 99.7899 235.197C99.4959 235.521 99.2894 235.914 99.1899 236.34C98.865 237.305 98.7792 238.334 98.9399 239.34C99.2799 241.41 100.6 243.22 102.15 243.46C102.438 243.507 102.733 243.487 103.012 243.402C103.291 243.317 103.547 243.169 103.76 242.97C104 242.64 104 242.4 104 242.39Z" fill="#7C5142"/>
<path d="M105.12 200.14C102.12 196.24 108.58 189.6 113.54 187.49C118.5 185.38 125.49 187.21 130.75 188.4C134.06 189.16 137.41 190.33 140.75 189.86C142.989 189.412 145.15 188.634 147.16 187.55C149.168 186.448 151.38 185.767 153.66 185.55C154.802 185.463 155.946 185.69 156.968 186.206C157.991 186.723 158.852 187.509 159.46 188.48C160.52 190.48 159.57 193.48 157.35 194.03C158.033 193.56 158.819 193.263 159.642 193.164C160.465 193.066 161.3 193.168 162.074 193.463C162.849 193.758 163.54 194.237 164.089 194.858C164.638 195.479 165.028 196.224 165.225 197.029C165.422 197.834 165.421 198.675 165.222 199.479C165.023 200.284 164.631 201.028 164.081 201.647C163.53 202.267 162.838 202.744 162.063 203.037C161.287 203.33 160.453 203.431 159.63 203.33C161 202.07 163.44 203.7 163.44 205.55C163.44 207.4 161.89 208.92 160.27 209.83C156.13 212.15 151.03 212.03 146.41 210.96C141.79 209.89 137.41 207.96 132.81 206.76C128.21 205.56 120.5 203.4 116.2 205.41C113.04 206.88 111.14 211.05 109.2 210.41C108.282 210.029 107.466 209.438 106.818 208.684C106.17 207.93 105.709 207.035 105.47 206.07C105.023 204.13 104.895 202.131 105.09 200.15" fill="#263238"/>
<path d="M105.71 232.83C105.839 238.322 106.468 243.792 107.59 249.17C108.711 254.567 111.272 259.56 115 263.62C120 268.75 126.56 273.62 133.66 274.83C141.41 276.11 150.89 274.49 157.2 269.83C160.2 267.62 162.37 262.83 161.44 259.21C162.71 258.611 163.797 257.683 164.588 256.522C165.379 255.362 165.846 254.011 165.94 252.61C166.1 249.81 164.39 246.31 162.18 245.94C163.84 245.66 164.32 243.02 163.69 241.53C163.06 240.04 160.87 239.59 159.21 239.91C157.569 240.34 156.043 241.125 154.74 242.21C153.444 243.297 151.982 244.168 150.41 244.79C145.05 246.53 139.62 241.79 133.99 242.02C128.9 242.22 124.37 246.45 119.32 245.74C117.918 245.473 116.588 244.914 115.417 244.099C114.245 243.284 113.258 242.231 112.52 241.01C110.96 238.62 111.64 229.79 111.03 227.01" fill="#263238"/>
<g opacity="0.6">
<path opacity="0.6" d="M146.56 256.64C146.138 256.542 145.724 256.415 145.32 256.26C144.34 255.98 143.31 255.929 142.307 256.111C141.305 256.293 140.358 256.703 139.54 257.31C138.9 257.77 138.54 258.14 138.54 258.09C138.54 258.04 138.74 257.6 139.35 257.09C140.171 256.367 141.175 255.882 142.251 255.688C143.328 255.494 144.438 255.599 145.46 255.99C146.2 256.24 146.59 256.59 146.56 256.64Z" fill="#455A64"/>
</g>
<path d="M135.61 245.15C135.99 245.09 136.24 247.62 138.61 249.15C140.98 250.68 143.61 250.2 143.67 250.55C143.72 250.7 143.12 251.1 141.98 251.24C140.503 251.413 139.012 251.059 137.77 250.24C136.581 249.446 135.748 248.219 135.45 246.82C135.22 245.8 135.44 245.15 135.61 245.15Z" fill="white"/>
<path d="M128.09 273.14C128.316 273.192 128.534 273.272 128.74 273.38C129.17 273.54 129.8 273.76 130.63 273.99C132.982 274.626 135.396 275.005 137.83 275.12C139.497 275.218 141.168 275.185 142.83 275.02C144.746 274.848 146.639 274.48 148.48 273.92C150.512 273.313 152.45 272.428 154.24 271.29C156.186 270.116 157.884 268.574 159.24 266.75C160.85 264.602 161.567 261.915 161.24 259.25V259.04L161.42 258.96C162.664 258.382 163.741 257.498 164.55 256.39C164.942 255.867 165.278 255.304 165.55 254.71C165.789 254.133 165.937 253.522 165.99 252.9C166.099 251.773 165.938 250.637 165.52 249.585C165.103 248.533 164.441 247.596 163.59 246.85L163.44 246.73L163.56 246.58C164.011 246.008 164.305 245.328 164.414 244.607C164.523 243.886 164.442 243.15 164.18 242.47C163.974 241.954 163.664 241.487 163.268 241.098C162.872 240.709 162.399 240.407 161.88 240.21C161.217 239.945 160.5 239.846 159.79 239.92C159.3 239.98 159.06 240.07 159.05 240.04C159.281 239.93 159.527 239.856 159.78 239.82C160.73 239.666 161.704 239.831 162.55 240.288C163.397 240.746 164.068 241.471 164.46 242.35C164.756 243.083 164.856 243.881 164.751 244.664C164.646 245.448 164.339 246.191 163.86 246.82V246.55C164.773 247.33 165.488 248.317 165.943 249.428C166.399 250.539 166.583 251.743 166.48 252.94C166.429 253.627 166.27 254.302 166.01 254.94C165.72 255.567 165.368 256.163 164.96 256.72C164.109 257.907 162.965 258.855 161.64 259.47L161.79 259.17C162.191 261.97 161.473 264.816 159.79 267.09C158.394 268.968 156.645 270.554 154.64 271.76C152.814 272.922 150.83 273.814 148.75 274.41C146.877 274.973 144.949 275.335 143 275.49C141.306 275.624 139.604 275.624 137.91 275.49C135.457 275.337 133.031 274.897 130.68 274.18C130.043 273.982 129.418 273.745 128.81 273.47C128.559 273.386 128.317 273.275 128.09 273.14Z" fill="#455A64"/>
<path d="M82.7598 246.75C82.5684 246.697 82.3885 246.609 82.2298 246.49C81.7792 246.153 81.4327 245.695 81.2298 245.17C80.8919 244.325 80.8186 243.397 81.0198 242.51C81.3353 241.335 82.0404 240.302 83.0198 239.58C84.1703 238.713 85.4536 238.037 86.8198 237.58C88.3508 237.099 89.8312 236.469 91.2398 235.7C92.722 234.762 93.8835 233.394 94.5698 231.78C95.3226 230.043 95.7237 228.173 95.7498 226.28C95.8298 222.37 94.9298 218.66 94.8298 215.21C94.7298 211.76 95.3298 208.54 96.8998 206.38C98.0757 204.648 99.861 203.424 101.9 202.95C102.453 202.84 103.019 202.813 103.58 202.87C103.776 202.893 103.969 202.929 104.16 202.98C103.419 202.945 102.677 203.002 101.95 203.15C99.9846 203.669 98.2795 204.894 97.1598 206.59C95.6998 208.69 95.0898 211.81 95.2698 215.19C95.4498 218.57 96.2698 222.28 96.2698 226.3C96.2282 228.265 95.7965 230.203 94.9998 232C94.2646 233.703 93.0258 235.141 91.4498 236.12C90.0027 236.903 88.4777 237.533 86.8998 238C85.5725 238.42 84.3202 239.048 83.1898 239.86C82.2612 240.517 81.5813 241.469 81.2598 242.56C81.0418 243.392 81.0802 244.27 81.3698 245.08C81.6334 245.776 82.1228 246.364 82.7598 246.75Z" fill="#455A64"/>
<path d="M157.73 193.86C157.872 193.774 158.023 193.703 158.18 193.65C158.37 193.565 158.567 193.498 158.77 193.45C159.041 193.37 159.319 193.313 159.6 193.28C160.533 193.178 161.477 193.29 162.361 193.607C163.244 193.924 164.044 194.438 164.7 195.11C165.356 195.989 165.83 196.99 166.096 198.055C166.362 199.119 166.415 200.225 166.25 201.31C166.054 202.655 165.59 203.947 164.885 205.11C164.181 206.273 163.251 207.283 162.15 208.08C159.614 209.926 156.584 210.971 153.45 211.08C150.052 211.214 146.653 210.85 143.36 210C138.129 208.716 133.167 206.519 128.7 203.51C126.79 202.197 124.785 201.031 122.7 200.02C120.874 199.175 118.908 198.673 116.9 198.54C113.975 198.338 111.047 198.882 108.39 200.12C106.52 201 105.63 201.76 105.59 201.7C106.411 200.993 107.322 200.398 108.3 199.93C110.973 198.608 113.943 198.002 116.92 198.17C118.993 198.276 121.027 198.768 122.92 199.62C125.035 200.628 127.071 201.795 129.01 203.11C133.445 206.06 138.358 208.218 143.53 209.49C146.772 210.341 150.12 210.718 153.47 210.61C156.509 210.504 159.448 209.502 161.92 207.73C162.981 206.971 163.88 206.01 164.567 204.901C165.254 203.792 165.713 202.558 165.92 201.27C166.096 200.228 166.064 199.161 165.825 198.131C165.587 197.101 165.146 196.129 164.53 195.27C163.909 194.62 163.153 194.115 162.314 193.792C161.476 193.468 160.576 193.335 159.68 193.4C159.019 193.503 158.367 193.657 157.73 193.86Z" fill="#455A64"/>
<path d="M152.43 185.05C152.429 185.837 152.269 186.616 151.96 187.34C151.093 189.33 149.587 190.973 147.68 192.01C146.393 192.759 144.979 193.267 143.51 193.51C141.825 193.756 140.114 193.756 138.43 193.51C134.86 193.06 131.17 191.66 127.29 190.45C123.41 189.24 119.5 188.52 116.06 189.26C113.012 189.926 110.251 191.535 108.17 193.86C106.752 195.411 105.667 197.235 104.98 199.22C104.52 200.64 104.43 201.47 104.37 201.46C104.345 201.261 104.345 201.059 104.37 200.86C104.45 200.285 104.574 199.716 104.74 199.16C105.361 197.106 106.422 195.212 107.85 193.61C109.951 191.182 112.777 189.493 115.91 188.79C119.47 188 123.49 188.73 127.39 189.95C131.29 191.17 134.95 192.57 138.44 193.03C140.081 193.27 141.749 193.27 143.39 193.03C144.816 192.814 146.191 192.344 147.45 191.64C149.314 190.662 150.811 189.108 151.72 187.21C152.014 186.51 152.251 185.788 152.43 185.05Z" fill="#455A64"/>
<path d="M228.12 121.76C228.03 121.87 222.41 117.3 215.56 111.55C208.71 105.8 203.24 101 203.34 100.93C203.44 100.86 209.05 105.39 215.9 111.15C222.75 116.91 228.22 121.65 228.12 121.76Z" fill="#263238"/>
<path d="M256.64 114.91C256.5 114.91 255.93 106.03 255.38 95.06C254.83 84.09 254.49 75.19 254.63 75.18C254.77 75.17 255.34 84.06 255.9 95.04C256.46 106.02 256.78 114.91 256.64 114.91Z" fill="#263238"/>
<path d="M238.48 108.56C238.34 108.56 236.59 103.56 234.56 97.23C232.53 90.9 231 85.79 231.14 85.75C231.28 85.71 233.03 90.75 235.06 97.07C237.09 103.39 238.61 108.52 238.48 108.56Z" fill="#263238"/>
<path d="M222.29 131.14C219.657 130.214 217.082 129.128 214.58 127.89C212.005 126.804 209.5 125.559 207.08 124.16C209.713 125.086 212.288 126.172 214.79 127.41C217.364 128.498 219.869 129.744 222.29 131.14Z" fill="#263238"/>
<path d="M196 119.65C196 119.79 195.15 119.81 194.14 119.65C193.13 119.49 192.33 119.31 192.35 119.17C192.37 119.03 193.2 119.01 194.2 119.17C195.2 119.33 196 119.51 196 119.65Z" fill="#263238"/>
<path d="M231.79 79.29C231.64 79.29 231.53 78.48 231.53 77.47C231.53 76.46 231.64 75.64 231.79 75.64C231.94 75.64 232.05 76.46 232.05 77.47C232.05 78.48 231.93 79.29 231.79 79.29Z" fill="#263238"/>
<path d="M292 93.41C292.11 93.51 287.49 98.8 281.7 105.23C275.91 111.66 271.13 116.8 271 116.7C270.87 116.6 275.51 111.32 281.3 104.88C287.09 98.44 291.9 93.32 292 93.41Z" fill="#263238"/>
<path d="M299.35 86.14C299.45 86.24 298.92 86.94 298.16 87.7C297.4 88.46 296.71 88.98 296.61 88.88C296.51 88.78 297.04 88.08 297.8 87.33C298.56 86.58 299.25 86 299.35 86.14Z" fill="#263238"/>
<path d="M317.17 111.74C316.741 112.049 316.286 112.32 315.81 112.55C314.92 113.04 313.62 113.73 312 114.55C308.75 116.19 304.2 118.33 299.08 120.46C293.96 122.59 289.23 124.29 285.77 125.46C284.05 126.03 282.65 126.46 281.67 126.75C281.174 126.93 280.662 127.061 280.14 127.14C280.613 126.906 281.105 126.712 281.61 126.56L285.61 125.11C289.03 123.88 293.72 122.11 298.84 120.01C303.96 117.91 308.51 115.8 311.84 114.25L315.72 112.41C316.186 112.151 316.671 111.927 317.17 111.74Z" fill="#263238"/>
<path d="M302.55 136.36C301.696 136.741 300.804 137.032 299.89 137.23C298.23 137.69 295.89 138.23 293.31 138.68C290.73 139.13 288.31 139.38 286.62 139.5C285.695 139.618 284.759 139.635 283.83 139.55C284.738 139.341 285.661 139.2 286.59 139.13C288.29 138.92 290.64 138.6 293.22 138.13C295.8 137.66 298.13 137.21 299.81 136.85C300.706 136.603 301.624 136.439 302.55 136.36Z" fill="#263238"/>
<path d="M315.84 133.9C313.936 134.247 311.984 134.247 310.08 133.9C311.984 133.553 313.936 133.553 315.84 133.9Z" fill="#263238"/>
<path d="M240.68 382C242.087 382.239 243.432 382.759 244.635 383.529C245.837 384.299 246.873 385.302 247.68 386.48C249.273 388.859 250.299 391.572 250.68 394.41C251.59 399.85 250.12 406.03 248.1 411.17C242.55 408.56 239.59 402.1 238.3 398.72C236.3 393.39 235.79 382.5 240.63 382" fill="#EDCF83"/>
<path d="M256.33 418.86C255.494 417.497 255.034 415.937 254.998 414.338C254.961 412.74 255.348 411.16 256.12 409.76C256.911 408.373 257.972 407.158 259.239 406.186C260.506 405.214 261.955 404.505 263.5 404.1C264.191 403.836 264.931 403.726 265.668 403.778C266.406 403.83 267.123 404.042 267.77 404.4C268.309 404.832 268.722 405.4 268.969 406.045C269.215 406.69 269.284 407.389 269.17 408.07C268.922 409.431 268.322 410.703 267.43 411.76C264.53 415.5 261.05 418.58 256.33 418.86Z" fill="#EDCF83"/>
<path d="M254.93 436.1C254.814 435.731 254.75 435.347 254.74 434.96C254.67 434.22 254.57 433.14 254.5 431.81C254.247 428.331 254.459 424.833 255.13 421.41C255.848 417.952 257.481 414.75 259.86 412.14C260.594 411.374 261.42 410.702 262.32 410.14C262.621 409.91 262.959 409.734 263.32 409.62C262.183 410.473 261.119 411.42 260.14 412.45C257.922 415.064 256.395 418.193 255.7 421.55C255.038 424.928 254.769 428.371 254.9 431.81C254.996 433.238 255.006 434.671 254.93 436.1Z" fill="#263238"/>
<path d="M242 390.29C242.28 390.864 242.514 391.459 242.7 392.07C243.11 393.23 243.7 394.91 244.36 397C245.73 401.18 247.52 407 249.36 413.45C251.2 419.9 252.68 425.8 253.7 430.08C254.21 432.22 254.6 433.95 254.85 435.16C255.016 435.776 255.13 436.405 255.19 437.04C254.946 436.452 254.755 435.843 254.62 435.22C254.27 433.92 253.82 432.22 253.28 430.22C252.15 425.97 250.58 420.1 248.76 413.65C246.94 407.2 245.22 401.37 243.96 397.16L242.49 392.16C242.275 391.551 242.111 390.926 242 390.29Z" fill="#263238"/>
<path d="M248.94 424C247.544 420.942 245.442 418.259 242.806 416.173C240.17 414.087 237.077 412.656 233.78 412C232.1 411.68 230.03 411.72 229.09 413.16C228.15 414.6 228.96 416.52 229.97 417.9C232.125 420.762 235.081 422.921 238.463 424.103C241.845 425.284 245.501 425.437 248.97 424.54" fill="#EDCF83"/>
<path d="M235.62 416.79C235.994 416.776 236.368 416.816 236.73 416.91C237.159 416.969 237.584 417.059 238 417.18C238.562 417.312 239.116 417.476 239.66 417.67C241.081 418.168 242.448 418.808 243.74 419.58C246.93 421.468 249.63 424.082 251.62 427.21C252.419 428.473 253.089 429.813 253.62 431.21C253.836 431.745 254.02 432.293 254.17 432.85C254.308 433.265 254.415 433.689 254.49 434.12C254.595 434.477 254.642 434.848 254.63 435.22C254.52 435.22 254.21 433.69 253.22 431.38C252.632 430.03 251.926 428.735 251.11 427.51C250.1 426.019 248.944 424.632 247.66 423.37C246.358 422.128 244.938 421.016 243.42 420.05C242.167 419.27 240.849 418.601 239.48 418.05C237.16 417.17 235.6 416.91 235.62 416.79Z" fill="#263238"/>
</svg>
