<?xml version="1.0" standalone="no"?>
<!DOCTYPE svg PUBLIC "-//W3C//DTD SVG 20010904//EN"
 "http://www.w3.org/TR/2001/REC-SVG-20010904/DTD/svg10.dtd">
<svg version="1.0" xmlns="http://www.w3.org/2000/svg"
 width="700.000000pt" height="440.000000pt" viewBox="0 0 700.000000 440.000000"
 preserveAspectRatio="xMidYMid meet">

<g transform="translate(0.000000,440.000000) scale(0.100000,-0.100000)"
fill="#000000" stroke="none">
<path d="M2530 2619 c0 -90 4 -93 72 -58 67 34 138 -1 138 -68 0 -68 -76 -105
-140 -68 -14 8 -35 14 -47 15 -21 0 -23 -5 -23 -48 0 -58 12 -72 61 -72 21 0
44 -3 53 -6 23 -9 20 -65 -4 -112 -24 -46 -15 -86 22 -95 34 -10 43 -8 31 4
-9 9 -5 19 18 40 l29 27 -22 46 c-18 38 -20 49 -10 71 11 24 15 25 95 25 l84
0 -8 55 c-9 68 -46 148 -93 202 -42 48 -136 98 -208 112 l-48 8 0 -78z"/>
<path d="M2303 2500 c-28 -12 -39 -54 -23 -88 23 -50 30 -84 19 -103 -8 -16
-22 -19 -81 -19 l-71 0 6 -37 c10 -62 57 -142 122 -212 34 -36 69 -80 78 -98
25 -47 45 -63 82 -63 55 0 65 19 65 121 0 49 -4 89 -9 89 -5 0 -28 -9 -52 -20
-59 -26 -91 -25 -123 5 -19 17 -26 34 -26 60 0 26 7 43 26 60 33 30 58 31 115
5 62 -28 69 -26 69 19 0 55 -20 71 -85 71 -43 0 -56 4 -64 19 -11 19 -3 60 18
99 9 18 8 25 -9 42 -11 11 -24 20 -29 20 -5 0 -7 9 -4 20 6 22 6 22 -24 10z"/>
<path d="M4005 2385 c-14 -13 -25 -35 -25 -49 0 -15 -8 -30 -20 -36 -11 -6
-20 -17 -20 -25 0 -8 9 -15 20 -15 19 0 20 -7 20 -105 l0 -105 35 0 34 0 3
103 3 102 28 3 c21 3 27 9 27 28 0 20 -5 24 -31 24 -44 0 -37 34 9 38 20 2 36
11 43 24 15 27 -2 38 -59 38 -32 0 -49 -6 -67 -25z"/>
<path d="M3160 2220 l0 -170 35 0 35 0 0 59 0 58 52 5 c42 4 57 11 80 37 30
34 38 94 17 133 -16 30 -71 48 -149 48 l-70 0 0 -170z m144 94 c33 -32 5 -84
-46 -84 -27 0 -28 2 -28 50 0 49 1 50 29 50 16 0 37 -7 45 -16z"/>
<path d="M3450 2180 l0 -130 35 0 35 0 0 73 c0 86 15 114 63 119 28 3 32 7 35
36 3 28 0 32 -22 32 -13 0 -38 -12 -55 -26 l-31 -26 0 26 c0 22 -4 26 -30 26
l-30 0 0 -130z"/>
<path d="M3721 2298 c-43 -23 -65 -63 -64 -118 1 -58 20 -93 65 -116 42 -22
111 -14 144 17 54 51 54 147 -1 199 -29 28 -108 38 -144 18z m97 -60 c16 -16
16 -100 0 -116 -19 -19 -66 -15 -78 7 -14 27 -13 94 2 109 7 7 24 12 38 12 14
0 31 -5 38 -12z"/>
<path d="M4211 2297 c-42 -21 -65 -62 -65 -116 0 -82 52 -131 138 -131 57 0
86 16 86 46 0 19 -4 25 -14 21 -45 -17 -87 -18 -111 -3 -14 9 -25 23 -25 31 0
12 17 15 86 15 l86 0 -7 43 c-4 23 -11 50 -16 59 -22 42 -108 61 -158 35z m91
-54 c29 -26 22 -33 -32 -33 -52 0 -60 8 -34 34 20 21 43 20 66 -1z"/>
<path d="M4440 2180 l0 -130 35 0 35 0 0 78 c0 86 16 122 54 122 38 0 46 -19
46 -112 l0 -88 35 0 35 0 0 104 c0 123 -11 144 -78 153 -35 5 -49 1 -73 -16
-29 -21 -29 -21 -29 -1 0 16 -7 20 -30 20 l-30 0 0 -130z"/>
<path d="M4800 2303 c-54 -20 -72 -77 -41 -128 11 -20 16 -37 10 -40 -13 -9
-11 -49 3 -63 9 -9 8 -12 -5 -12 -9 0 -24 -11 -32 -24 -38 -57 28 -104 133
-93 74 8 106 32 110 84 4 53 -14 67 -95 73 -76 6 -85 22 -17 32 63 9 99 46 91
94 -5 27 -2 34 14 39 12 4 19 14 17 23 -3 14 -18 17 -88 19 -47 1 -92 -1 -100
-4z m71 -43 c36 -20 17 -90 -25 -90 -12 0 -36 33 -36 50 0 17 24 50 36 50 3 0
14 -5 25 -10z m44 -230 c13 -22 -17 -40 -66 -40 -49 0 -65 10 -55 35 6 18 111
21 121 5z"/>
<path d="M2412 1774 c2 -9 18 -28 36 -42 18 -14 32 -20 30 -13 -3 13 62 38
117 45 16 2 31 8 33 15 3 8 -29 11 -108 11 -98 0 -111 -2 -108 -16z"/>
</g>
</svg>
