<svg width="500" height="500" viewBox="0 0 500 500" fill="none" xmlns="http://www.w3.org/2000/svg">
<path d="M401.7 434.26C417.7 422.971 430.803 408.059 439.94 390.74C497.1 283.65 484.19 125.74 374.11 58.01C323.23 26.71 250 6.89997 195 39.05C150.4 65.12 123.06 114.21 100.44 158.87C86.23 187 74.52 217.19 57 243.47C34.28 277.55 9.27001 323.07 34.52 362.67C68.93 416.61 133.92 441.24 192.85 457.46C256.79 475.05 328.69 477.55 387.75 443.23C392.53 440.45 397.18 437.46 401.7 434.26Z" fill="#EDCF83"/>
<path opacity="0.7" d="M401.7 434.26C417.7 422.971 430.803 408.059 439.94 390.74C497.1 283.65 484.19 125.74 374.11 58.01C323.23 26.71 250 6.89997 195 39.05C150.4 65.12 123.06 114.21 100.44 158.87C86.23 187 74.52 217.19 57 243.47C34.28 277.55 9.27001 323.07 34.52 362.67C68.93 416.61 133.92 441.24 192.85 457.46C256.79 475.05 328.69 477.55 387.75 443.23C392.53 440.45 397.18 437.46 401.7 434.26Z" fill="white"/>
<g opacity="0.3">
<path opacity="0.3" d="M452 80.47H349V215.74H452V80.47Z" stroke="black" stroke-miterlimit="10"/>
<path opacity="0.3" d="M433.1 105.29H367.9V190.92H433.1V105.29Z" stroke="black" stroke-miterlimit="10"/>
</g>
<path d="M324.87 65.31H52.17V308.05H324.87V65.31Z" fill="#263238" stroke="#263238" stroke-miterlimit="10"/>
<path d="M319.7 59.4H47V302.14H319.7V59.4Z" fill="white" stroke="#263238" stroke-linecap="round" stroke-linejoin="round"/>
<path d="M266.6 157.36H280.16V143.8H266.6V157.36Z" fill="white" stroke="#263238" stroke-linecap="round" stroke-linejoin="round"/>
<path d="M284.35 157.36H297.91V143.8H284.35V157.36Z" fill="white" stroke="#263238" stroke-linecap="round" stroke-linejoin="round"/>
<path d="M261.18 151.4H192.29" stroke="#263238" stroke-linecap="round" stroke-linejoin="round"/>
<path d="M266.6 189.37H280.16V175.81H266.6V189.37Z" fill="white" stroke="#263238" stroke-linecap="round" stroke-linejoin="round"/>
<path d="M284.35 189.37H297.91V175.81H284.35V189.37Z" fill="white" stroke="#263238" stroke-linecap="round" stroke-linejoin="round"/>
<path d="M261.18 183.4H192.29" stroke="#263238" stroke-linecap="round" stroke-linejoin="round"/>
<path d="M266.6 221.38H280.16V207.82H266.6V221.38Z" fill="white" stroke="#263238" stroke-linecap="round" stroke-linejoin="round"/>
<path d="M284.35 221.38H297.91V207.82H284.35V221.38Z" fill="white" stroke="#263238" stroke-linecap="round" stroke-linejoin="round"/>
<path d="M261.18 215.41H192.29" stroke="#263238" stroke-linecap="round" stroke-linejoin="round"/>
<path d="M136.96 157.36H150.52V143.8H136.96V157.36Z" fill="white" stroke="#263238" stroke-linecap="round" stroke-linejoin="round"/>
<path d="M154.72 157.36H168.28V143.8H154.72V157.36Z" fill="white" stroke="#263238" stroke-linecap="round" stroke-linejoin="round"/>
<path d="M131.54 151.4H62.65" stroke="#263238" stroke-linecap="round" stroke-linejoin="round"/>
<path d="M136.96 189.37H150.52V175.81H136.96V189.37Z" fill="white" stroke="#263238" stroke-linecap="round" stroke-linejoin="round"/>
<path d="M154.72 189.37H168.28V175.81H154.72V189.37Z" fill="white" stroke="#263238" stroke-linecap="round" stroke-linejoin="round"/>
<path d="M131.54 183.4H62.65" stroke="#263238" stroke-linecap="round" stroke-linejoin="round"/>
<path d="M136.96 221.38H150.52V207.82H136.96V221.38Z" fill="white" stroke="#263238" stroke-linecap="round" stroke-linejoin="round"/>
<path d="M154.72 221.38H168.28V207.82H154.72V221.38Z" fill="white" stroke="#263238" stroke-linecap="round" stroke-linejoin="round"/>
<path d="M131.54 215.41H62.65" stroke="#263238" stroke-linecap="round" stroke-linejoin="round"/>
<path d="M81.87 268H66.93V282.94H81.87V268Z" fill="white" stroke="#263238" stroke-linecap="round" stroke-linejoin="round"/>
<path d="M142.84 268H127.9V282.94H142.84V268Z" fill="white" stroke="#263238" stroke-linecap="round" stroke-linejoin="round"/>
<path d="M206.23 268H191.29V282.94H206.23V268Z" fill="white" stroke="#263238" stroke-linecap="round" stroke-linejoin="round"/>
<path d="M159.17 148.34L161.48 152.98L172.67 142.17" stroke="#263238" stroke-width="2" stroke-linecap="round" stroke-linejoin="round"/>
<path d="M159.17 179.99L161.48 184.62L172.67 173.81" stroke="#263238" stroke-width="2" stroke-linecap="round" stroke-linejoin="round"/>
<path d="M139.87 213.18L142.19 217.81L153.38 207" stroke="#263238" stroke-width="2" stroke-linecap="round" stroke-linejoin="round"/>
<path d="M288.06 147.96L290.37 152.59L301.56 141.78" stroke="#263238" stroke-width="2" stroke-linecap="round" stroke-linejoin="round"/>
<path d="M269.38 180.37L271.69 185L282.88 174.2" stroke="#263238" stroke-width="2" stroke-linecap="round" stroke-linejoin="round"/>
<path d="M269.38 212.89L271.69 217.52L282.88 206.72" stroke="#263238" stroke-width="2" stroke-linecap="round" stroke-linejoin="round"/>
<path d="M319.7 59.4H47V97.32H319.7V59.4Z" fill="#EDCF83" stroke="#263238" stroke-linecap="round" stroke-linejoin="round"/>
<path d="M319.7 59.4H309.43V302.14H319.7V59.4Z" fill="#DBDBDB" stroke="#263238" stroke-linecap="round" stroke-linejoin="round"/>
<path d="M319.7 95.88H309.43V142.73H319.7V95.88Z" fill="#949494" stroke="#263238" stroke-linecap="round" stroke-linejoin="round"/>
<path d="M319.7 59.4H47V77.84H319.7V59.4Z" fill="#DBDBDB" stroke="#263238" stroke-linecap="round" stroke-linejoin="round"/>
<path d="M168.37 64.77H60.83V72.45H168.37V64.77Z" fill="white" stroke="#263238" stroke-linecap="round" stroke-linejoin="round"/>
<path d="M303.6 65.13H313.04" stroke="#263238" stroke-linecap="round" stroke-linejoin="round"/>
<path d="M303.6 69.12H313.04" stroke="#263238" stroke-linecap="round" stroke-linejoin="round"/>
<path d="M303.6 73.12H313.04" stroke="#263238" stroke-linecap="round" stroke-linejoin="round"/>
<path d="M142.26 112.66C142.26 110.29 143.51 108.94 145.79 108.94C148.07 108.94 149.31 110.29 149.31 112.66V120.34C149.31 122.7 148.07 124.05 145.79 124.05C143.51 124.05 142.26 122.7 142.26 120.34V112.66ZM144.59 120.49C144.59 121.54 145.05 121.94 145.79 121.94C146.53 121.94 146.99 121.54 146.99 120.49V112.49C146.99 111.43 146.53 111.03 145.79 111.03C145.05 111.03 144.59 111.43 144.59 112.49V120.49Z" fill="#263238"/>
<path d="M152.88 113.19V123.88H150.79V109.11H153.7L156.09 117.95V109.11H158.16V123.88H155.77L152.88 113.19Z" fill="#263238"/>
<path d="M159.82 109.11H162.15V121.77H166V123.88H159.85L159.82 109.11Z" fill="#263238"/>
<path d="M167 109.11H169.32V123.88H167V109.11Z" fill="#263238"/>
<path d="M173.06 113.19V123.88H171V109.11H173.91L176.3 117.95V109.11H178.36V123.88H176L173.06 113.19Z" fill="#263238"/>
<path d="M182.32 115.34H185.51V117.45H182.32V121.77H186.32V123.88H180V109.11H186.33V111.22H182.33L182.32 115.34Z" fill="#263238"/>
<path d="M190.37 109.11H197.54V111.22H195.11V123.88H192.79V111.22H190.37V109.11Z" fill="#263238"/>
<path d="M200.88 115.34H204.06V117.45H200.88V121.77H204.88V123.88H198.55V109.11H204.88V111.22H200.88V115.34Z" fill="#263238"/>
<path d="M209.44 108.94C211.7 108.94 212.86 110.29 212.86 112.66V113.12H210.67V112.51C210.67 111.45 210.25 111.05 209.51 111.05C208.77 111.05 208.35 111.45 208.35 112.51C208.35 115.51 212.88 116.12 212.88 120.34C212.88 122.7 211.7 124.05 209.42 124.05C207.14 124.05 206 122.7 206 120.34V119.43H208.2V120.49C208.2 121.54 208.66 121.92 209.4 121.92C210.14 121.92 210.6 121.54 210.6 120.49C210.6 117.49 206.07 116.88 206.07 112.66C206 110.29 207.19 108.94 209.44 108.94Z" fill="#263238"/>
<path d="M213.54 109.11H220.71V111.22H218.29V123.88H216V111.22H213.57L213.54 109.11Z" fill="#263238"/>
<path d="M78.56 264.4H76.21L75.81 261.72H73L72.6 264.4H70.43L72.79 249.63H76.19L78.56 264.4ZM73.26 259.71H75.5L74.38 252.24L73.26 259.71Z" fill="#263238"/>
<path d="M138.55 253V253.52C138.55 255.04 138.09 256.01 137.05 256.52C138.3 257 138.78 258.12 138.78 259.68V260.89C138.78 263.17 137.58 264.39 135.26 264.39H131.61V249.63H135.11C137.52 249.63 138.55 250.75 138.55 253ZM133.93 251.71V255.61H134.84C135.7 255.61 136.23 255.23 136.23 254.05V253.23C136.23 252.17 135.87 251.71 135.05 251.71H133.93ZM133.93 257.71V262.25H135.26C136.04 262.25 136.46 261.89 136.46 260.79V259.51C136.46 258.13 136.02 257.71 134.97 257.71H133.93Z" fill="#263238"/>
<path d="M202.54 258.89V260.89C202.54 263.26 201.36 264.61 199.08 264.61C196.8 264.61 195.62 263.26 195.62 260.89V253.21C195.62 250.85 196.8 249.5 199.08 249.5C201.36 249.5 202.54 250.85 202.54 253.21V254.65H200.35V253C200.35 251.94 199.88 251.54 199.14 251.54C198.4 251.54 197.94 251.94 197.94 253V261C197.94 262.06 198.41 262.44 199.14 262.44C199.87 262.44 200.35 262.06 200.35 261V258.89H202.54Z" fill="#263238"/>
<path d="M63.7 241.76H240.95" stroke="#263238" stroke-linecap="round" stroke-linejoin="round"/>
<path opacity="0.3" d="M354.83 60.59H374.4V41.02H354.83V60.59Z" stroke="black" stroke-linecap="round" stroke-linejoin="round"/>
<path opacity="0.3" d="M380.46 60.59H400.03V41.02H380.46V60.59Z" stroke="black" stroke-linecap="round" stroke-linejoin="round"/>
<path opacity="0.3" d="M359.04 48.76L362.38 55.44L372.2 44.63" stroke="black" stroke-width="2" stroke-linecap="round" stroke-linejoin="round"/>
<path opacity="0.3" d="M58.58 347.71H78.15V328.14H58.58V347.71Z" stroke="black" stroke-linecap="round" stroke-linejoin="round"/>
<path opacity="0.3" d="M84.2 347.71H103.77V328.14H84.2V347.71Z" stroke="black" stroke-linecap="round" stroke-linejoin="round"/>
<path opacity="0.3" d="M62.77 335.88L66.11 342.56L75.93 331.75" stroke="black" stroke-width="2" stroke-linecap="round" stroke-linejoin="round"/>
<path opacity="0.3" d="M151.29 347.71H170.86V328.14H151.29V347.71Z" stroke="black" stroke-linecap="round" stroke-linejoin="round"/>
<path opacity="0.3" d="M176.92 347.71H196.49V328.14H176.92V347.71Z" stroke="black" stroke-linecap="round" stroke-linejoin="round"/>
<path opacity="0.3" d="M155.49 335.88L158.83 342.56L168.65 331.75" stroke="black" stroke-width="2" stroke-linecap="round" stroke-linejoin="round"/>
<g opacity="0.3">
<path opacity="0.3" d="M181.641 50.808C188.489 49.7014 193.143 43.253 192.036 36.4051C190.929 29.5573 184.481 24.9031 177.633 26.0098C170.785 27.1164 166.131 33.5648 167.238 40.4127C168.345 47.2605 174.793 51.9147 181.641 50.808Z" stroke="black" stroke-linecap="round" stroke-linejoin="round"/>
<path opacity="0.3" d="M183.15 42.95L179.64 38.41V31.26" stroke="black" stroke-linecap="round" stroke-linejoin="round"/>
</g>
<g opacity="0.3">
<path opacity="0.3" d="M414.08 279.32H412.22L411.9 277.2H409.64L409.32 279.32H407.63L409.51 267.61H412.2L414.08 279.32ZM409.88 275.61H411.65L410.76 269.68L409.88 275.61Z" fill="black"/>
<path opacity="0.3" d="M440.27 270.3V270.72C440.341 271.187 440.265 271.665 440.054 272.087C439.843 272.51 439.506 272.856 439.09 273.08C439.559 273.293 439.947 273.654 440.194 274.106C440.441 274.559 440.534 275.08 440.46 275.59V276.59C440.506 276.967 440.465 277.35 440.34 277.71C440.215 278.069 440.01 278.394 439.74 278.662C439.469 278.929 439.141 279.131 438.781 279.252C438.42 279.373 438.037 279.41 437.66 279.36H434.77V267.61H437.55C439.45 267.61 440.27 268.49 440.27 270.3ZM436.61 269.3V272.4H437.33C438.01 272.4 438.43 272.1 438.43 271.16V270.51C438.43 269.67 438.15 269.3 437.49 269.3H436.61ZM436.61 274.07V277.67H437.66C438.28 277.67 438.66 277.39 438.66 276.52V275.52C438.66 274.44 438.3 274.1 437.47 274.1L436.61 274.07Z" fill="black"/>
<path opacity="0.3" d="M466.79 275V276.55C466.79 278.43 465.86 279.5 464.05 279.5C462.24 279.5 461.3 278.43 461.3 276.55V270.46C461.3 268.58 462.24 267.51 464.05 267.51C465.86 267.51 466.79 268.58 466.79 270.46V271.6H465.05V270.3C465.05 269.46 464.68 269.15 464.1 269.15C463.52 269.15 463.1 269.46 463.1 270.3V276.63C463.1 277.47 463.47 277.77 464.1 277.77C464.73 277.77 465.05 277.47 465.05 276.63V275H466.79Z" fill="black"/>
<path opacity="0.3" d="M417.74 285.71H403.51V299.94H417.74V285.71Z" stroke="black" stroke-miterlimit="10"/>
<path opacity="0.3" d="M444.21 285.71H429.98V299.94H444.21V285.71Z" stroke="black" stroke-miterlimit="10"/>
<path opacity="0.3" d="M470.68 285.71H456.45V299.94H470.68V285.71Z" stroke="black" stroke-miterlimit="10"/>
</g>
<path d="M80.44 450.56H50.33" stroke="#263238" stroke-miterlimit="10"/>
<path d="M473.33 450.56H90.25" stroke="#263238" stroke-miterlimit="10"/>
<path d="M357.64 450.22L364.08 352.42L368.82 305.92L355.82 291.41L349.3 286.67C349.3 286.67 340.12 294.67 333.61 296.44C327.1 298.21 320.84 300 320.84 300C320.84 300 298.63 341.76 296.84 360.71C295.05 379.66 292.1 449.86 292.1 449.86L294.57 450.22H357.64Z" fill="#9E9E9E" stroke="#263238" stroke-miterlimit="10"/>
<path d="M327.11 369.59C327.11 369.59 326 369.02 328.22 363.3" stroke="#263238" stroke-miterlimit="10"/>
<path d="M324.5 299C325.604 306.901 326.215 314.863 326.33 322.84C326.33 322.84 333 320.17 338.33 310.84C341.275 305.833 343.81 300.596 345.91 295.18L324.5 299Z" fill="#263238" stroke="#263238" stroke-miterlimit="10"/>
<path d="M357.64 450.22L363.43 362.29C357.75 365.19 346.54 369.98 334.17 370.19C319.35 370.44 301 358.93 301 358.93L296.87 360.55C296.87 360.6 296.87 360.66 296.87 360.71C295.09 379.71 292.13 449.86 292.13 449.86L294.6 450.22H357.64Z" fill="white" stroke="#263238" stroke-miterlimit="10"/>
<path d="M348 401C348 423.65 348.78 445.44 349 450.2H392.65C393.25 443.14 397.01 399.2 398.94 383.45C401.05 366.24 414.89 340.62 414.89 331.45C414.89 322.28 417.7 323.73 405.06 317.06C392.42 310.39 364.54 295.99 360.68 294.23C356.82 292.47 352.6 288.23 352.6 288.23C352.6 288.23 354 297.01 353.6 320.88C353.2 344.75 348 375.39 348 401Z" fill="#EDCF83"/>
<g opacity="0.2">
<path opacity="0.2" d="M352.6 288.32C353.121 292.475 353.421 296.654 353.5 300.84V289.17C352.94 288.66 352.6 288.32 352.6 288.32Z" fill="black"/>
<path opacity="0.2" d="M410 345.47V348.47C410.34 347.56 410.68 346.68 411 345.81V345.45H411.13C411.26 345.12 411.38 344.78 411.5 344.45H411V332H414.87C414.87 331.85 414.87 331.69 414.87 331.54C414.87 331.39 414.87 331.18 414.87 331H411V320.34C410.69 320.15 410.36 319.97 410 319.77V331H399.5V318.5H407.62L405.74 317.5H399.5V314.2L398.5 313.67V317.47H388V308.21L387 307.69V317.47H376.5V305H381.73L379.79 304H376.5V302.31L375.5 301.79V304H365V296.45C364.65 296.27 364.32 296.1 364 295.95V304H353.6C353.6 304.33 353.6 304.66 353.6 305H364V317.5H353.69C353.69 317.83 353.69 318.16 353.69 318.5H364V331H353.5V326.25C353.3 331.13 352.94 336.25 352.5 341.46V344.46H352.24L352.15 345.46H352.5V358H351L350.9 359H352.55V371.5H349.71L349.62 372.5H352.55V385H348.65L348.59 386H352.59V398.5H348.16C348.16 398.84 348.16 399.17 348.16 399.5H352.6V412H348.19C348.19 412.34 348.19 412.67 348.19 413H352.59V425.5H348.39C348.39 425.84 348.39 426.17 348.39 426.5H352.57V450.25H353.57V426.47H364V450.22H365V426.47H375.5V450.22H376.5V426.47H387V450.22H388V426.47H394.73C394.73 426.14 394.73 425.81 394.82 425.47H388V413H396C396 412.67 396.07 412.34 396.1 412H388V399.5H397.24C397.24 399.16 397.3 398.84 397.34 398.5H388V386H398.5V387.33L398.94 383.5C399.08 382.38 399.27 381.22 399.5 380.03V372.5H401.37L401.67 371.5H399.5V359H406C406.13 358.67 406.25 358.33 406.38 358H399.5V345.5L410 345.47ZM399.5 332H410V344.5H399.5V332ZM364 425.47H353.5V413H364V425.47ZM364 411.97H353.5V399.47H364V411.97ZM364 398.47H353.5V386H364V398.47ZM364 384.97H353.5V372.47H364V384.97ZM364 371.47H353.5V359H364V371.47ZM364 357.97H353.5V345.47H364V357.97ZM364 344.47H353.5V332H364V344.47ZM375.5 425.47H365V413H375.5V425.47ZM375.5 411.97H365V399.47H375.5V411.97ZM375.5 398.47H365V386H375.5V398.47ZM375.5 384.97H365V372.47H375.5V384.97ZM375.5 371.47H365V359H375.5V371.47ZM375.5 357.97H365V345.47H375.5V357.97ZM375.5 344.47H365V332H375.5V344.47ZM375.5 330.97H365V318.47H375.5V330.97ZM375.5 317.47H365V305H375.5V317.47ZM387 425.47H376.5V413H387V425.47ZM387 411.97H376.5V399.47H387V411.97ZM387 398.47H376.5V386H387V398.47ZM387 384.97H376.5V372.47H387V384.97ZM387 371.47H376.5V359H387V371.47ZM387 357.97H376.5V345.47H387V357.97ZM387 344.47H376.5V332H387V344.47ZM387 330.97H376.5V318.47H387V330.97ZM398.5 384.97H388V372.47H398.5V384.97ZM398.5 371.47H388V359H398.5V371.47ZM398.5 357.97H388V345.47H398.5V357.97ZM398.5 344.47H388V332H398.5V344.47ZM398.5 330.97H388V318.47H398.5V330.97Z" fill="black"/>
</g>
<path d="M348 401C348 423.65 348.78 445.44 349 450.2H392.65C393.25 443.14 397.01 399.2 398.94 383.45C401.05 366.24 414.89 340.62 414.89 331.45C414.89 322.28 417.7 323.73 405.06 317.06C392.42 310.39 364.54 295.99 360.68 294.23C356.82 292.47 352.6 288.23 352.6 288.23C352.6 288.23 354 297.01 353.6 320.88C353.2 344.75 348 375.39 348 401Z" stroke="#263238" stroke-miterlimit="10"/>
<path d="M352.6 288.32C352.6 288.32 354 297.1 353.6 320.97C353.52 326.97 353.11 333.45 352.6 340.13C353.8 338.48 357.67 333.21 358.6 332.91C359.65 332.56 365.27 337.83 369.83 338.53C374.39 339.23 376.15 339.23 371.24 333.96C366.33 328.69 364.24 313.25 362.46 301.66C362.121 299.179 361.576 296.73 360.83 294.34H360.71C356.81 292.54 352.6 288.32 352.6 288.32Z" fill="#263238" stroke="#263238" stroke-miterlimit="10"/>
<path d="M381.41 396.92C384.64 395.45 387.18 394.18 387.18 394.18L388.37 403.36C388.37 403.36 370.89 411.06 361.12 411.65C351.35 412.24 350.46 412.54 350.46 412.54L350.75 403.66" stroke="#263238" stroke-miterlimit="10"/>
<path d="M372.66 400.51C374.45 399.91 376.55 399.06 378.6 398.17" stroke="#263238" stroke-miterlimit="10"/>
<path d="M354 402.77C359.112 402.64 364.209 402.176 369.26 401.38" stroke="#263238" stroke-miterlimit="10"/>
<path d="M388.37 403.36L388.96 410.47" stroke="#263238" stroke-miterlimit="10"/>
<path d="M254.39 450.22H303.51C303.62 446.37 305.04 397.44 306 372.47C307 346.47 324.64 307.03 324.64 307.03C324.64 307.03 327 301.47 324.5 298.97C322 296.47 316 297.47 311.5 300.97C307 304.47 265.5 322.47 263 324.97C260.5 327.47 261 335.97 260 345.97C259 355.97 242.5 424.97 242.5 424.97C242.5 424.97 238 425.97 236.5 426.97C235 427.97 235 430.97 235 430.97C235 430.97 237 431.47 243 434.47C248.52 437.23 253.61 448.43 254.39 450.22Z" fill="#EDCF83"/>
<path opacity="0.2" d="M318 318.47V323.58C318.34 322.66 318.67 321.77 319 320.91V318.47H319.94L320.33 317.47H319V305H325.3C325.37 304.69 325.45 304.35 325.5 304H319V297.72C318.67 297.77 318.34 297.82 318 297.9V304H307.5V303.32L306.5 303.83V304H306.16L304.16 305H306.5V317.5H296V308.9L295 309.37V317.47H284.5V314.28L283.5 314.75V317.47H277.69L275.57 318.47H283.5V331H273V319.7L272 320.18V331H261.5V328.48C260.938 332.122 260.604 335.796 260.5 339.48V344.48H260.14L260.05 345.48H260.5V358H257.81L257.6 359H260.5V371.5H254.89C254.82 371.83 254.74 372.17 254.67 372.5H260.5V385H251.85C251.77 385.34 251.7 385.67 251.62 386H260.5V398.5H250V393L249 397.32V398.45H248.74L248.51 399.45H249V412H245.58L245.34 413H249V425.5H240.51C239.491 425.773 238.489 426.107 237.51 426.5V431.94C237.81 432.06 238.14 432.2 238.51 432.37V426.5H249V440.5C249.35 441 249.68 441.5 250 442.01V426.51H260.5V450.26H261.5V426.47H272V450.22H273V426.47H283.5V450.22H284.5V426.47H295V450.22H296V426.47H304.21V425.47H296V413H304.63V412H296V399.5H305.06V398.5H296V386H305.51C305.51 385.67 305.51 385.33 305.51 385H296V372.5H306C306 372.17 306 371.84 306.05 371.5H296V359H306.5V366.39C306.76 364.26 307.09 362.07 307.5 359.85V359H307.66C307.72 358.67 307.79 358.34 307.85 358H307.5V345.5H310.85C310.94 345.17 311.04 344.84 311.13 344.5H307.5V332H315C315.12 331.67 315.23 331.33 315.34 331H307.5V318.5L318 318.47ZM307.5 305H318V317.5H307.5V305ZM260.5 425.5H250V413H260.5V425.5ZM260.5 412H250V399.5H260.5V412ZM272 425.5H261.5V413H272V425.5ZM272 412H261.5V399.5H272V412ZM272 398.5H261.5V386H272V398.5ZM272 385H261.5V372.5H272V385ZM272 371.5H261.5V359H272V371.5ZM272 358H261.5V345.5H272V358ZM272 344.5H261.5V332H272V344.5ZM283.5 425.5H273V413H283.5V425.5ZM283.5 412H273V399.5H283.5V412ZM283.5 398.5H273V386H283.5V398.5ZM283.5 385H273V372.5H283.5V385ZM283.5 371.5H273V359H283.5V371.5ZM283.5 358H273V345.5H283.5V358ZM283.5 344.5H273V332H283.5V344.5ZM295 425.5H284.5V413H295V425.5ZM295 412H284.5V399.5H295V412ZM295 398.5H284.5V386H295V398.5ZM295 385H284.5V372.5H295V385ZM295 371.5H284.5V359H295V371.5ZM295 358H284.5V345.5H295V358ZM295 344.5H284.5V332H295V344.5ZM295 331H284.5V318.5H295V331ZM306.5 358H296V345.5H306.5V358ZM306.5 344.5H296V332H306.5V344.5ZM306.5 331H296V318.5H306.5V331Z" fill="black"/>
<path d="M254.39 450.22H303.51C303.62 446.37 305.04 397.44 306 372.47C307 346.47 324.64 307.03 324.64 307.03C324.64 307.03 327 301.47 324.5 298.97C322 296.47 316 297.47 311.5 300.97C307 304.47 265.5 322.47 263 324.97C260.5 327.47 261 335.97 260 345.97C259 355.97 242.5 424.97 242.5 424.97C242.5 424.97 238 425.97 236.5 426.97C235 427.97 235 430.97 235 430.97C235 430.97 237 431.47 243 434.47C248.52 437.23 253.61 448.43 254.39 450.22Z" stroke="#263238" stroke-miterlimit="10"/>
<path d="M235 431C235 431 237 431.5 243 434.5C249 437.5 254.5 450.5 254.5 450.5H264.19C264.8 448.68 266.29 442.06 259.5 434C251.5 424.5 242.5 425 242.5 425C242.5 425 238 426 236.5 427C235 428 235 431 235 431Z" fill="#263238" stroke="#263238" stroke-miterlimit="10"/>
<path d="M318.46 297.78C316.31 303.47 311.22 316.34 307 322.47C301.5 330.47 291.5 336.97 295 339.97C298.5 342.97 308.5 333.47 308.5 333.47C308.5 333.47 311 340.47 311.5 342.47C311.527 342.561 311.571 342.646 311.63 342.72C315.24 330.572 319.581 318.654 324.63 307.03C324.63 307.03 326.99 301.47 324.49 298.97C323.2 297.67 321 297.33 318.46 297.78Z" fill="#263238" stroke="#263238" stroke-miterlimit="10"/>
<path d="M281.94 346.05C282.227 344.201 282.414 342.339 282.5 340.47" stroke="#263238" stroke-miterlimit="10"/>
<path d="M274 451.47C274 451.47 275.5 419.47 275.5 400.97C275.5 387.64 279.13 365.22 281.17 351.49" stroke="#263238" stroke-miterlimit="10"/>
<path d="M276.5 394C276.5 394 284.5 396.5 288.5 397L300.5 398.5L299.59 409.83C299.59 409.83 299 409.5 290 406.5C281 403.5 275.5 401 275.5 401" stroke="#263238" stroke-miterlimit="10"/>
<path d="M299.59 409.8C299.59 409.8 299 432 299 435C299 438 290 436 290 436" stroke="#263238" stroke-miterlimit="10"/>
<path d="M306.77 287.22C306.77 287.22 316.2 300.78 324.64 307.03C333.08 313.28 340.28 304.53 345.91 295.15C351.54 285.77 355.29 278.89 358.1 270.76C360.91 262.63 358.1 249.19 346.85 238.56C335.6 227.93 309.32 212.29 302.76 220.42C296.2 228.55 289.94 246.42 294.31 261.69C296.92 270.87 301.139 279.514 306.77 287.22Z" fill="#9E9E9E" stroke="#263238" stroke-miterlimit="10"/>
<path d="M302.8 258.05C306.358 256.983 310.152 256.983 313.71 258.05" stroke="#263238" stroke-width="2" stroke-miterlimit="10" stroke-linecap="round"/>
<path d="M310.87 266.42C311.17 268.04 310.79 269.47 310.02 269.61C309.25 269.75 308.4 268.55 308.1 266.92C307.8 265.29 308.18 263.87 308.95 263.73C309.72 263.59 310.57 264.79 310.87 266.42Z" fill="#263238"/>
<path d="M338.69 266.85C338.98 268.47 338.6 269.85 337.84 270.04C337.08 270.23 336.22 268.98 335.92 267.35C335.62 265.72 336 264.3 336.77 264.16C337.54 264.02 338.39 265.22 338.69 266.85Z" fill="#263238"/>
<path d="M318.08 288.9C321.693 290.145 325.514 290.675 329.33 290.46C335.9 290.15 341.53 285.46 341.53 285.46" stroke="#263238" stroke-miterlimit="10"/>
<path d="M303.73 227.33C303.73 227.33 317.62 259.01 319.36 259.88C321.1 260.75 324.57 250.33 324.57 250.33C324.57 250.33 329.34 259 335 261.61C340.66 264.22 342.38 259.88 342.38 259.88C345.216 261.477 347.969 263.216 350.63 265.09L352.8 266.82L354.97 274.63C354.97 274.63 348.46 295.9 350.63 298.51C352.8 301.12 364.95 297.64 364.95 297.64C364.95 297.64 361.95 301.98 365.82 301.98C369.69 301.98 376.67 302.85 386.65 289.39C396.63 275.93 397.5 254.24 397.5 254.24C397.5 254.24 402.27 259.44 402.71 252.93C403.15 246.42 397.07 235.57 397.07 235.57C397.07 235.57 406.61 245.12 405.75 235.14C404.89 225.16 399.24 213.87 397.07 211.27C394.9 208.67 381.87 201.27 381.87 201.27C381.87 201.27 387.08 200.4 383.18 194.32C379.28 188.24 364.95 186.51 359.74 186.51C354.53 186.51 343.68 188.25 343.68 188.25C343.68 188.25 350.63 174.79 343.25 173.92C335.87 173.05 322.85 187.38 322.85 187.38C322.85 187.38 309.85 176.96 305.92 179.13C301.99 181.3 304.62 184.34 304.62 184.34C304.62 184.34 287.7 185.64 282.92 193.02C278.14 200.4 283.79 204.74 283.79 204.74C283.79 204.74 253.41 225.57 258.18 233.38C262.95 241.19 271.64 233.82 271.64 233.82C271.64 233.82 259.48 265.07 261.22 267.24C262.96 269.41 271.22 266.37 271.22 266.37C271.22 266.37 270.79 291.54 277.3 294.15C283.81 296.76 285.11 291.98 285.11 291.98C285.11 291.98 288.58 295.45 296.4 295.88C304.22 296.31 306.81 287.2 306.81 287.2C306.81 287.2 298.13 266.8 298.57 249.88C299.01 232.96 303.73 227.33 303.73 227.33Z" fill="#263238" stroke="#263238" stroke-miterlimit="10"/>
<path d="M321.21 263.88C321.21 263.88 318.08 280.14 320.58 283.58C323.08 287.02 331.84 283.58 332.46 281.71" fill="#9E9E9E"/>
<path d="M321.21 263.88C321.21 263.88 318.08 280.14 320.58 283.58C323.08 287.02 331.84 283.58 332.46 281.71" stroke="#263238" stroke-miterlimit="10"/>
<path d="M308.23 273.89C315.051 273.89 320.58 269.829 320.58 264.82C320.58 259.811 315.051 255.75 308.23 255.75C301.409 255.75 295.88 259.811 295.88 264.82C295.88 269.829 301.409 273.89 308.23 273.89Z" stroke="#263238" stroke-miterlimit="10"/>
<path d="M337.93 273.27C344.751 273.27 350.28 269.209 350.28 264.2C350.28 259.191 344.751 255.13 337.93 255.13C331.109 255.13 325.58 259.191 325.58 264.2C325.58 269.209 331.109 273.27 337.93 273.27Z" stroke="#263238" stroke-miterlimit="10"/>
<path d="M321.21 263.88C321.21 263.88 323.71 262.01 325.58 264.2" stroke="#263238" stroke-miterlimit="10"/>
<path d="M218.31 436.91C218.31 436.91 234.01 432.48 238.84 431.68C243.67 430.88 253.34 439.73 254.95 444.56C256.56 449.39 254.5 450.47 254.5 450.47L222.33 449.4L218.31 436.91Z" fill="#9E9E9E" stroke="#263238" stroke-miterlimit="10"/>
<path d="M224 435.35C224 435.35 235.85 439.79 238.81 441.57C241.77 443.35 240.88 446.9 239.11 448.67C236.975 450.455 234.428 451.679 231.7 452.23C228.939 452.387 226.171 452.387 223.41 452.23C219.86 451.93 216.6 452.53 213.64 452.53C210.68 452.53 201.79 451.64 201.79 451.64L199.12 449.86C199.12 449.86 194.12 451.34 190.24 452.86C186.36 454.38 187.57 451.08 190.53 448.71C193.49 446.34 200.9 440.42 202.09 439.83C203.28 439.24 218.38 434.83 218.38 434.83L224 435.35Z" fill="#9E9E9E" stroke="#263238" stroke-miterlimit="10"/>
<path d="M228.44 436.53C228.44 436.53 220.73 432.98 218.66 432.98C216.59 432.98 201.78 437.98 199.71 439.49C197.64 441 195.56 455.19 197.04 456.08C198.52 456.97 199.71 454.3 200.04 452.53C200.37 450.76 204.49 441.27 204.49 441.27L201.49 456.38C201.49 456.38 202.68 458.74 203.86 456.67C205.04 454.6 212.45 440.38 213.04 439.49C213.816 438.664 214.717 437.966 215.71 437.42C215.71 437.42 214.23 443.94 213.04 450.16C211.85 456.38 212.75 458.16 214.53 458.45C216.31 458.74 217.19 454.6 218.08 452.53C218.97 450.46 222.82 438.6 222.82 438.6" fill="#9E9E9E"/>
<path d="M228.44 436.53C228.44 436.53 220.73 432.98 218.66 432.98C216.59 432.98 201.78 437.98 199.71 439.49C197.64 441 195.56 455.19 197.04 456.08C198.52 456.97 199.71 454.3 200.04 452.53C200.37 450.76 204.49 441.27 204.49 441.27L201.49 456.38C201.49 456.38 202.68 458.74 203.86 456.67C205.04 454.6 212.45 440.38 213.04 439.49C213.816 438.664 214.717 437.966 215.71 437.42C215.71 437.42 214.23 443.94 213.04 450.16C211.85 456.38 212.75 458.16 214.53 458.45C216.31 458.74 217.19 454.6 218.08 452.53C218.97 450.46 222.82 438.6 222.82 438.6" stroke="#263238" stroke-miterlimit="10"/>
<path d="M237 442.46C237 442.46 228.12 451.64 226.93 453.71C225.74 455.78 225.75 456.08 229.01 456.08C232.27 456.08 242.34 449.56 243.22 448.67C244.1 447.78 243.82 445.12 241.74 443.34C241.078 442.825 240.302 442.477 239.477 442.324C238.652 442.171 237.803 442.217 237 442.46Z" fill="#9E9E9E" stroke="#263238" stroke-miterlimit="10"/>
<path d="M292.46 441.44C292.46 441.44 280.61 445.27 277.7 447.44C274.79 449.61 270.59 452 271.5 452.73C272.41 453.46 275.33 452.73 276.24 452C277.15 451.27 281.34 450.54 281.34 450.54C281.34 450.54 286.26 447.62 290.09 445.26C293.92 442.9 296.83 440.34 292.46 441.44Z" fill="#9E9E9E" stroke="#263238" stroke-miterlimit="10"/>
<path d="M357.87 421.38C357.87 421.38 324.87 427.38 312.93 431.57C300.99 435.76 296.24 438.68 290.27 442.9C284.3 447.12 272.2 455.09 274 456.49C275.8 457.89 282.07 452.98 283.13 451.93C284.19 450.88 291.9 447.72 291.9 447.72L297.06 445.08C297.06 445.08 289.29 454.65 286.49 457.08C283.69 459.51 285.58 461.03 287.69 460.33C289.8 459.63 293.78 455.44 293.78 455.44L306.61 447C306.61 447 301.34 454.38 298.88 456.48C296.42 458.58 301.69 460.35 302.75 458.59C303.81 456.83 309.07 452.27 309.07 452.27C309.07 452.27 317.84 447.71 319.95 445.95C322.06 444.19 327.32 439.28 327.32 439.28L366.64 442.44C366.64 442.44 369.1 441.04 367.7 432.96C366.3 424.88 357.87 421.38 357.87 421.38Z" fill="#9E9E9E" stroke="#263238" stroke-miterlimit="10"/>
<path d="M384.55 359.24L403.86 407L372.61 417.88L381.39 443.51C381.39 443.51 403.83 443.57 421.39 442.51C438.95 441.45 451.27 430.86 448.46 418.23C445.65 405.6 435.12 387.33 426.69 365.56C418.26 343.79 420.87 330.81 417.01 324.14C413.15 317.47 402.26 315.71 402.26 315.71L396.26 314.71" fill="#EDCF83"/>
<path opacity="0.2" d="M445.5 431.51V426.51H448.11C448.22 426.18 448.31 425.85 448.39 425.51H445.5V413H447C446.89 412.68 446.77 412.34 446.66 412H445.5V408.95C445.18 408.12 444.85 407.27 444.5 406.42V412H434V399.5H441.54C441.39 399.17 441.25 398.84 441.1 398.5H434V386H435.4C435.24 385.67 435.09 385.34 434.94 385H434V382.91C433.67 382.17 433.33 381.43 433 380.68V385H422.5V372.5H429.5C429.36 372.17 429.22 371.84 429.09 371.5H422.5V359H424.37C424.26 358.67 424.16 358.33 424.06 358H422.5V352.3C422.12 350.72 421.79 349.21 421.5 347.76V358H411V345.5H421.08L420.9 344.5H411V332H419.21L419.06 331H411V318.74C410.123 318.269 409.222 317.846 408.3 317.47H399.5V315.23L398.5 315.05V317.47H395.55L395.28 318.47H398.5V331H392L391.74 332H398.51V344.5H388.44L388.17 345.5H398.5V358H388V346.14L387 349.93V357.93H384.88L384.62 358.93H387V365.26L388 367.73V359H398.5V371.5H389.5L389.9 372.5H398.5V385H395L395.41 386H398.55V393.77L399.55 396.24V386H410V398.5H400.41L400.82 399.5H410V412H399.5V408.54L398.5 408.89V412H389.56L386.68 413H387V425.5H376.5V416.5L375.5 416.85V425.45H375.21L376.5 429.21V426.45H387V443.45H388V426.45H398.5V443.32H399.5V426.47H410V443H411V426.47H421.5V442.47L422.5 442.39V426.47H433V440.19L434 439.81V426.47H444.5V432.75C444.85 432.34 445.19 431.93 445.5 431.51ZM398.5 425.51H388V413H398.5V425.51ZM410 425.51H399.5V413H410V425.51ZM410 385.01H399.5V372.51H410V385.01ZM410 371.51H399.5V359H410V371.51ZM410 358.01H399.5V345.51H410V358.01ZM410 344.51H399.5V332H410V344.51ZM410 331.01H399.5V318.51H410V331.01ZM421.5 425.51H411V413H421.5V425.51ZM421.5 412.01H411V399.51H421.5V412.01ZM421.5 398.51H411V386H421.5V398.51ZM421.5 385.01H411V372.51H421.5V385.01ZM421.5 371.51H411V359H421.5V371.51ZM433 425.51H422.5V413H433V425.51ZM433 412.01H422.5V399.51H433V412.01ZM433 398.51H422.5V386H433V398.51ZM434 425.51V413H444.5V425.5L434 425.51Z" fill="#263238"/>
<path d="M384.55 359.24L403.86 407L372.61 417.88L381.39 443.51C381.39 443.51 403.83 443.57 421.39 442.51C438.95 441.45 451.27 430.86 448.46 418.23C445.65 405.6 435.12 387.33 426.69 365.56C418.26 343.79 420.87 330.81 417.01 324.14C413.15 317.47 402.26 315.71 402.26 315.71L396.26 314.71" stroke="#263238" stroke-miterlimit="10"/>
<path d="M422.66 402.14C416.289 403.32 410.007 404.94 403.86 406.99C403.86 406.99 417.2 398.21 424.57 397.51" stroke="#263238" stroke-miterlimit="10"/>
<path d="M431.6 401.72C430.216 401.521 428.814 401.474 427.42 401.58" stroke="#263238" stroke-miterlimit="10"/>
<path d="M381.74 414C381.74 414 388.84 420.79 390.94 426.05C393.04 431.31 392.27 445.6 390.87 447C389.47 448.4 363.34 448.23 359.04 442.86C357.92 441.46 365.59 438.23 361.73 430.5C357.87 422.77 356.11 422.08 356.11 422.08C356.11 422.08 352.95 420.32 358.92 416.46C364.89 412.6 378.58 409.8 381.74 414Z" fill="#263238" stroke="#263238" stroke-miterlimit="10"/>
<path d="M443.99 468.14H418.07L414.83 416.9H447.23L443.99 468.14Z" fill="#263238" stroke="#263238" stroke-linejoin="round"/>
<path d="M448.67 416.98H413.4V424.44H448.67V416.98Z" fill="white" stroke="#263238" stroke-linejoin="round"/>
<path d="M448.67 417.26H413.4L416.92 412.84H445.14L448.67 417.26Z" fill="white" stroke="#263238" stroke-linejoin="round"/>
<path d="M444.94 453.11L446.23 432.7H415.83L417.12 453.11H444.94Z" fill="white" stroke="#263238" stroke-linejoin="round"/>
<path d="M294.62 471.55L326.56 463.11V467.43L294.62 476.38V471.55Z" fill="#263238" stroke="#263238" stroke-linejoin="round"/>
<path d="M326.56 463.11H159.57L127.29 471.55H294.62L326.56 463.11Z" fill="white" stroke="#263238" stroke-linejoin="round"/>
<path d="M294.62 375.05H127.29V476.38H294.62V375.05Z" fill="white" stroke="#263238" stroke-linejoin="round"/>
<path d="M294.62 389.71C258.22 391.44 236.54 424.99 204.33 447.47C174.97 467.97 138.71 471.47 127.33 472.02V476.38H294.62V389.71Z" fill="#263238" stroke="#263238" stroke-linejoin="round"/>
<path d="M294.62 471.55H127.29V476.38H294.62V471.55Z" fill="white" stroke="#263238" stroke-miterlimit="10"/>
<path d="M77.75 438.12C77.75 438.12 63.81 415.82 75 403.27C86.19 390.72 104.27 396.76 108 408.38C111.73 420 103.82 439.52 103.82 439.52L77.75 438.12Z" fill="#EDCF83" stroke="#263238" stroke-linecap="round" stroke-linejoin="round"/>
<path d="M78.21 412.56C75.89 412.56 67.06 409.31 64.27 405.13C61.48 400.95 61 391.65 68.92 391.65C76.84 391.65 79.61 405.59 79.61 405.59L80.07 410.7" fill="#EDCF83"/>
<path d="M78.21 412.56C75.89 412.56 67.06 409.31 64.27 405.13C61.48 400.95 61 391.65 68.92 391.65C76.84 391.65 79.61 405.59 79.61 405.59L80.07 410.7" stroke="#263238" stroke-linecap="round" stroke-linejoin="round"/>
<path d="M85.36 403.88C83.28 402.88 76.83 396 76.2 391.01C75.57 386.02 79.31 377.5 86.38 381.01C93.45 384.52 89.72 398.26 89.72 398.26L87.85 403.04" fill="#EDCF83"/>
<path d="M85.36 403.88C83.28 402.88 76.83 396 76.2 391.01C75.57 386.02 79.31 377.5 86.38 381.01C93.45 384.52 89.72 398.26 89.72 398.26L87.85 403.04" stroke="#263238" stroke-linecap="round" stroke-linejoin="round"/>
<path d="M93.8 406.22C92.64 404.22 91.08 394.93 93.32 390.43C95.56 385.93 103.4 380.91 107.32 387.77C111.24 394.63 100.53 403.97 100.53 403.97L96.32 406.91" fill="#EDCF83"/>
<path d="M93.8 406.22C92.64 404.22 91.08 394.93 93.32 390.43C95.56 385.93 103.4 380.91 107.32 387.77C111.24 394.63 100.53 403.97 100.53 403.97L96.32 406.91" stroke="#263238" stroke-linecap="round" stroke-linejoin="round"/>
<path d="M96.57 422.88C96.19 420.58 97.93 411.34 101.57 407.88C105.21 404.42 114.32 402.43 115.63 410.22C116.94 418.01 103.63 423.08 103.63 423.08L98.63 424.38" fill="#EDCF83"/>
<path d="M96.57 422.88C96.19 420.58 97.93 411.34 101.57 407.88C105.21 404.42 114.32 402.43 115.63 410.22C116.94 418.01 103.63 423.08 103.63 423.08L98.63 424.38" stroke="#263238" stroke-linecap="round" stroke-linejoin="round"/>
<path d="M65.29 399.52L66.86 401.99" stroke="white" stroke-linecap="round" stroke-linejoin="round"/>
<path d="M69.78 405.58L72.24 407.59" stroke="white" stroke-linecap="round" stroke-linejoin="round"/>
<path d="M67.09 394.81L69.55 398.4" stroke="white" stroke-linecap="round" stroke-linejoin="round"/>
<path d="M72.92 401.32L75.61 406.25" stroke="white" stroke-linecap="round" stroke-linejoin="round"/>
<path d="M79.19 389.43L80.09 392.12" stroke="white" stroke-linecap="round" stroke-linejoin="round"/>
<path d="M82.33 397.05L83.9 399.3" stroke="white" stroke-linecap="round" stroke-linejoin="round"/>
<path d="M81.66 384.05L83.68 388.53" stroke="white" stroke-linecap="round" stroke-linejoin="round"/>
<path d="M73.81 415.67L74.49 419.7" stroke="white" stroke-linecap="round" stroke-linejoin="round"/>
<path d="M75.83 423.51L76.73 426.88" stroke="white" stroke-linecap="round" stroke-linejoin="round"/>
<path d="M78.07 415.89L78.97 420.37" stroke="white" stroke-linecap="round" stroke-linejoin="round"/>
<path d="M80.99 423.51L81.66 426.88" stroke="white" stroke-linecap="round" stroke-linejoin="round"/>
<path d="M82.56 410.06L83.9 416.34" stroke="white" stroke-linecap="round" stroke-linejoin="round"/>
<path d="M85.7 422.39L85.92 425.31" stroke="white" stroke-linecap="round" stroke-linejoin="round"/>
<path d="M88.16 408.04L89.28 413.87" stroke="white" stroke-linecap="round" stroke-linejoin="round"/>
<path d="M89.28 419.93L89.73 425.98" stroke="white" stroke-linecap="round" stroke-linejoin="round"/>
<path d="M94.67 410.28V415.22" stroke="white" stroke-linecap="round" stroke-linejoin="round"/>
<path d="M93.99 421.5L94.22 425.31" stroke="white" stroke-linecap="round" stroke-linejoin="round"/>
<path d="M100.27 386.96L99.15 389.66" stroke="white" stroke-linecap="round" stroke-linejoin="round"/>
<path d="M98.7 392.79L97.58 396.61" stroke="white" stroke-linecap="round" stroke-linejoin="round"/>
<path d="M105.2 392.12L103.41 395.71" stroke="white" stroke-linecap="round" stroke-linejoin="round"/>
<path d="M99.6 399.75L97.58 401.99" stroke="white" stroke-linecap="round" stroke-linejoin="round"/>
<path d="M95.34 391.9L94.67 394.81" stroke="white" stroke-linecap="round" stroke-linejoin="round"/>
<path d="M105.2 408.04L102.74 412.08" stroke="white" stroke-linecap="round" stroke-linejoin="round"/>
<path d="M101.17 414.54L99.82 418.13" stroke="white" stroke-linecap="round" stroke-linejoin="round"/>
<path d="M103.19 419.93L107.22 417.68" stroke="white" stroke-linecap="round" stroke-linejoin="round"/>
<path d="M109.69 408.04L107.67 411.41" stroke="white" stroke-linecap="round" stroke-linejoin="round"/>
<path d="M111.71 411.85L109.02 413.87" stroke="white" stroke-linecap="round" stroke-linejoin="round"/>
<path d="M108.81 430.34H70.69V468.46H108.81V430.34Z" fill="#263238" stroke="#263238" stroke-linecap="round" stroke-linejoin="round"/>
</svg>
