<svg width="111" height="386" viewBox="0 0 111 386" fill="none" xmlns="http://www.w3.org/2000/svg">
<g opacity="0.5">
<path d="M84.1429 131.247C89.5329 131.867 91.8729 133.137 95.5829 140.347C99.2929 147.557 104.903 173.967 106.523 179.457C108.143 184.947 108.613 186.947 107.523 192.937C106.403 199.177 102.153 210.167 100.303 216.217C99.4529 219.007 98.833 221.737 98.163 224.607C97.493 227.477 96.0229 230.307 94.9329 233.177C94.3704 234.527 93.4594 235.704 92.293 236.587C91.553 237.167 90.6029 237.177 89.9029 237.717C89.2029 238.257 88.993 239.227 88.043 239.647C87.093 240.067 85.813 239.737 84.883 240.217C83.9597 240.846 82.994 241.411 81.9929 241.907C81.0937 242.126 80.2604 242.558 79.563 243.167C78.943 243.787 78.3029 245.167 77.2429 245.047C76.1829 244.927 75.9129 243.707 75.9029 242.697C76.0426 240.752 76.7993 238.902 78.063 237.417C79.363 235.867 80.283 234.027 81.753 232.637C83.0409 231.224 83.9944 229.539 84.543 227.707C84.983 226.487 84.943 224.907 83.313 225.547C81.393 226.307 79.313 227.997 77.093 227.547C75.553 227.197 75.523 225.967 76.483 224.987C78.0581 223.369 79.512 221.638 80.8329 219.807C82.1829 217.947 83.323 215.957 84.723 214.137C85.4776 213.189 86.2927 212.29 87.163 211.447C89.563 209.077 89.633 205.677 90.043 202.547C90.623 198.167 91.043 193.777 91.503 189.377C91.7125 188.585 91.7902 187.764 91.733 186.947L82.4629 161.187L84.1429 131.247Z" fill="#FFA8A7"/>
<path d="M83.7831 130.747C87.5031 130.557 92.943 132.427 95.493 136.857C98.043 141.287 102.913 161.207 104.623 168.027C106.333 174.847 107.853 180.857 107.853 180.857C107.853 180.857 102.063 185.647 90.363 184.857L81.363 161.247L83.7831 130.747Z" fill="#EDCF83"/>
<path opacity="0.2" d="M83.7831 130.747C87.5031 130.557 92.943 132.427 95.493 136.857C98.043 141.287 102.913 161.207 104.623 168.027C106.333 174.847 107.853 180.857 107.853 180.857C107.853 180.857 102.063 185.647 90.363 184.857L81.363 161.247L83.7831 130.747Z" fill="white"/>
<path d="M90.0931 184.247C90.9131 184.577 102.783 183.987 107.363 179.047L106.923 177.307C106.923 177.307 108.603 177.117 109.013 179.467C109.18 180.872 109.451 182.262 109.823 183.627C110.313 185.317 110.753 187.177 109.333 188.827C107.913 190.477 103.653 191.407 98.5331 191.087C93.4131 190.767 91.3031 188.837 90.5331 188.177C90.3213 187.975 90.1657 187.721 90.0816 187.44C89.9974 187.16 89.9876 186.862 90.0531 186.577C90.0531 186.577 88.9231 184.867 90.0931 184.247Z" fill="#EDCF83"/>
<g opacity="0.2">
<path opacity="0.2" d="M109.523 182.407C109.463 182.157 109.423 181.927 109.383 181.687C109.213 181.847 109.063 182.017 108.893 182.167C105.443 185.136 100.965 186.634 96.4229 186.337C96.4229 186.337 96.3629 186.427 96.4229 186.437C99.5666 187.058 102.828 186.581 105.663 185.087C106.897 184.47 108.05 183.7 109.093 182.797L109.523 182.407Z" fill="black"/>
<path opacity="0.2" d="M103.963 188.787C104.103 188.787 104.123 188.437 103.963 188.457C101.208 188.782 98.4189 188.661 95.7029 188.097C94.4794 187.869 93.2781 187.534 92.1129 187.097C91.5625 186.877 91.025 186.627 90.5029 186.347C90.2329 186.197 89.9829 186.017 89.7229 185.837C89.8186 186.093 89.9427 186.338 90.0929 186.567C90.0879 186.627 90.0879 186.687 90.0929 186.747C90.6494 187.061 91.2275 187.335 91.8229 187.567C93.1125 188.098 94.4527 188.497 95.8229 188.757C98.5125 189.254 101.27 189.265 103.963 188.787Z" fill="black"/>
</g>
<path d="M59.0628 338.087C59.0628 340.577 58.9728 342.817 60.1728 345.447C61.8928 349.217 64.9628 350.737 66.8028 352.127C68.8797 353.729 70.7329 355.603 72.3128 357.697C73.8942 360 75.8436 362.027 78.0828 363.697C79.8228 364.957 83.9428 365.807 87.7228 364.967C90.7828 364.277 92.1528 362.967 91.7228 359.457C91.2928 355.947 77.6528 354.297 77.6528 354.297L59.0628 338.087Z" fill="#263238"/>
<path d="M90.0429 348.387C90.9829 348.657 90.7729 350.597 90.9729 352.697C91.1429 354.467 92.1829 357.047 91.4329 361.007C90.8229 362.187 89.4329 362.947 87.2029 363.317C84.0529 363.857 79.1529 362.497 76.9829 360.217C74.2629 357.367 72.3729 354.817 68.5629 351.397C65.2529 348.397 62.0128 347.617 60.0828 341.257C58.8528 337.167 59.3728 335.387 62.0828 333.937C65.7828 331.937 70.7529 332.767 75.4229 337.347C77.3429 339.247 89.1029 348.127 90.0429 348.387Z" fill="#37474F"/>
<path d="M62.2827 345.897C62.2827 345.897 63.3327 337.817 73.6627 335.817L74.1627 336.217C72.4732 334.264 70.1016 333.03 67.5327 332.767C63.4627 332.497 61.1627 333.447 59.5327 335.957C57.9027 338.467 60.3527 344.547 62.2827 345.897Z" fill="#FAFAFA"/>
<path d="M75.4128 337.347C75.2428 337.347 75.0628 337.267 74.8828 337.217C73.1412 337.47 71.4973 338.179 70.1172 339.271C68.7371 340.363 67.6697 341.8 67.0228 343.437C66.6128 344.617 68.2728 345.357 69.1428 344.387C70.9128 339.917 75.2428 338.577 76.9928 338.207C76.5284 337.818 75.9913 337.526 75.4128 337.347Z" fill="#F0F0F0"/>
<path d="M78.0728 339.087C76.4366 339.415 74.9102 340.152 73.6356 341.229C72.3609 342.306 71.3795 343.688 70.7828 345.247C70.3728 346.427 72.0328 347.167 72.8928 346.247C73.4791 344.86 74.3651 343.62 75.4871 342.615C76.6091 341.611 77.9395 340.867 79.3828 340.437C78.9528 339.897 78.5028 339.467 78.0728 339.087Z" fill="#F0F0F0"/>
<path d="M90.3927 336.727L89.9527 350.147C89.4227 352.067 79.4127 353.397 76.9527 348.827C76.7327 348.437 75.5327 341.827 75.5327 341.827L90.3927 336.727Z" fill="#FFA8A7"/>
<path d="M6.34292 375.357C5.92322 376.745 5.88865 378.221 6.24291 379.627C6.65291 380.477 9.24292 383.307 14.4429 384.337C19.6429 385.367 26.8529 384.337 29.9329 384.147C33.0129 383.957 42.7429 385.147 45.8229 385.557C50.6729 386.217 54.4029 385.157 56.2129 383.397C56.5098 383.049 56.7286 382.641 56.8546 382.201C56.9805 381.761 57.0106 381.299 56.9429 380.847C56.9303 379.676 56.7587 378.512 56.4329 377.387L6.34292 375.357Z" fill="#263238"/>
<path d="M55.6229 372.307C55.7229 372.717 55.8029 373.117 55.8829 373.527C56.3564 375.588 56.5082 377.71 56.3329 379.817C55.7129 381.357 53.9929 382.197 52.6029 382.637C48.9629 383.797 46.1729 383.637 42.1329 382.847C38.0608 382.256 33.9468 382.001 29.8329 382.087C26.6529 382.307 22.2629 382.917 19.0829 382.627C16.3771 382.509 13.7072 381.962 11.1729 381.007C9.04293 380.097 6.87292 378.937 6.35292 376.747C5.72292 372.137 7.66292 370.107 9.85292 368.827C12.0429 367.547 15.1329 367.637 18.4429 367.417C21.4429 367.217 23.6429 367.207 26.3129 367.007C28.6254 366.885 30.9217 366.55 33.1729 366.007C35.1729 365.377 35.1729 363.057 35.9929 363.007C36.5529 363.007 51.4729 362.577 52.7529 362.687C54.2229 362.807 54.6729 367.377 54.8529 368.377C55.0029 369.147 55.0229 369.987 55.2329 370.737C55.3729 371.284 55.5029 371.807 55.6229 372.307Z" fill="#37474F"/>
<path d="M14.4428 382.007C14.0228 378.687 13.4428 371.497 19.5828 367.347H20.3528C17.5928 366.548 14.6628 366.548 11.9028 367.347C7.01279 368.647 4.85279 372.597 6.06279 376.767C6.06279 376.727 7.1528 380.777 14.4428 382.007Z" fill="#FAFAFA"/>
<path d="M32.2728 366.297C30.2728 368.047 29.6128 372.027 29.6128 372.027C29.3528 373.517 26.6128 373.737 26.9028 372.307C27.3189 370.319 28.117 368.431 29.2528 366.747C30.1791 366.258 31.2442 366.099 32.2728 366.297Z" fill="#F0F0F0"/>
<path d="M26.7829 366.977C25.2918 368.436 24.319 370.343 24.0129 372.407C23.7329 373.837 21.4829 373.817 21.6429 372.407C21.6429 372.407 21.9029 368.877 24.0129 367.227C24.4202 366.965 24.8848 366.805 25.3672 366.762C25.8496 366.718 26.3353 366.792 26.7829 366.977Z" fill="#F0F0F0"/>
<path d="M54.6229 330.847C54.6229 330.847 52.9729 361.597 53.0329 363.537C53.0929 365.477 50.8529 368.427 44.9129 368.327C40.7329 368.267 38.2229 367.467 36.0729 364.957L34.9329 339.497L54.6229 330.847Z" fill="#FFA8A7"/>
<path d="M91.9828 294.737C92.0519 288.586 91.206 282.459 89.4728 276.557C89.4728 276.557 90.4728 252.757 90.9028 234.507C95.2628 217.797 93.9028 206.427 87.2528 194.797C87.2528 194.797 36.5128 205.267 33.2528 205.957C32.8659 206.15 32.5034 206.388 32.1728 206.667C28.7828 232.197 30.2628 278.357 31.1728 287.387C32.0828 296.417 31.3828 301.167 32.5728 322.227C33.3928 336.817 35.5028 358.307 35.5028 358.307C42.1528 361.727 53.5628 358.757 53.5628 358.757C53.5628 358.757 59.6628 311.757 59.0228 301.267C58.2528 288.507 57.4628 285.267 57.4628 285.267C57.4628 285.267 61.4628 260.627 62.1828 253.957C62.1828 253.957 64.0828 273.797 66.3728 292.507C68.1628 307.177 75.9628 344.997 75.9628 344.997C78.2159 345.959 80.6474 346.432 83.0968 346.386C85.5462 346.339 87.9579 345.774 90.1728 344.727C90.1728 344.727 91.9828 305.097 91.9828 294.737Z" fill="#455A64"/>
<path opacity="0.18" d="M62.1428 253.957L64.8828 230.867C70.8453 228.712 76.15 225.054 80.2828 220.247C80.2828 220.247 79.5028 229.187 67.8328 233.957L64.8328 252.887L64.5228 276.607L62.1428 253.957Z" fill="black"/>
<path d="M44.6628 98.1569C43.2628 98.7869 39.1428 105.607 39.1428 106.397C39.1428 107.467 43.3028 109.077 43.3028 109.077C43.9504 105.464 44.4044 101.818 44.6628 98.1569Z" fill="#F28F8F"/>
<path d="M50.013 86.7669C46.863 87.9069 44.703 89.0869 43.933 95.6169C43.733 97.3569 44.653 99.8069 43.833 102.047C40.283 111.647 43.833 120.277 45.573 122.267C46.753 123.607 53.463 124.787 57.103 124.127C61.653 123.307 71.703 119.867 76.953 113.357C83.123 105.707 85.423 94.8569 79.813 89.8869C71.923 82.8869 53.363 85.5469 50.013 86.7669Z" fill="#FFA8A7"/>
<path d="M72.493 116.877L74.253 129.087C76.983 129.677 77.253 132.897 75.883 135.337L76.513 138.777L57.893 142.187L55.583 124.247L72.493 116.877Z" fill="#FFA8A7"/>
<path d="M45.9128 122.547C47.4028 123.547 50.8128 124.547 55.5828 124.287L55.2128 122.037C53.7609 122.357 52.2918 122.594 50.8128 122.747C49.1784 122.915 47.5282 122.848 45.9128 122.547Z" fill="#F28F8F"/>
<path d="M43.783 82.2469C41.063 85.8869 40.783 91.1769 44.873 93.3169C43.793 97.8869 46.823 101.717 50.433 101.017C50.663 103.227 51.323 105.087 53.433 106.017C54.703 106.577 55.133 106.017 55.703 105.017C56.503 103.617 57.543 101.447 60.703 102.177C64.273 103.007 64.703 108.537 62.273 111.897C61.7971 112.612 61.1542 113.201 60.3998 113.612C59.6454 114.023 58.8021 114.245 57.943 114.257C57.4753 114.204 57.024 114.053 56.619 113.814C56.2139 113.574 55.8642 113.251 55.593 112.867C55.6217 114.826 56.156 116.745 57.1441 118.438C58.1323 120.13 59.5407 121.539 61.233 122.527C65.2258 122.788 69.2355 122.532 73.163 121.767C76.443 118.767 78.593 117.047 81.273 114.187C89.273 105.597 88.813 94.0169 83.973 91.3769C85.343 83.6269 77.383 77.5069 69.083 75.8769C57.323 73.5469 48.543 75.8469 43.783 82.2469Z" fill="#37474F"/>
<path d="M74.093 94.4969C73.9748 96.416 74.4821 98.3217 75.5386 99.9281C76.5952 101.535 78.1441 102.755 79.953 103.407C77.553 106.307 78.633 112.177 81.203 114.157C89.203 105.567 88.743 93.9869 83.903 91.3469C84.1696 89.907 84.1219 88.4265 83.763 87.0069C82.646 86.7262 81.4926 86.6183 80.343 86.6869C75.283 86.9369 74.293 91.0769 74.093 94.4969Z" fill="#263238"/>
<path d="M34.7029 184.697C35.3344 180.419 35.4385 176.08 35.0129 171.777C29.8029 166.647 28.7029 159.627 31.6329 152.727C35.3229 143.997 38.8629 136.087 42.5829 134.417C48.5829 132.687 56.4729 131.187 56.4729 131.187C59.5968 132.151 62.8938 132.421 66.1329 131.977C74.8629 130.887 74.3129 130.027 74.2529 129.087C74.2529 129.087 80.2529 130.087 83.2529 130.637C85.1529 130.977 89.4329 132.687 91.0529 140.577C94.5629 157.647 88.3529 166.087 87.8329 176.077C87.5429 179.077 90.8329 199.347 91.9429 204.947C92.7629 210.297 87.0329 214.117 75.7929 216.707C64.5529 219.297 52.9729 217.707 42.0529 208.307C33.5229 216.837 31.2729 212.477 31.2729 212.477C31.2729 212.477 34.0529 189.907 34.7029 184.697Z" fill="#EDCF83"/>
<path d="M84.9779 95.6694C87.9003 92.3557 87.9693 87.6409 85.1319 85.1386C82.2946 82.6362 77.6254 83.294 74.7029 86.6076C71.7805 89.9213 71.7115 94.6362 74.5489 97.1385C77.3862 99.6408 82.0554 98.9831 84.9779 95.6694Z" fill="#EDCF83"/>
<path d="M74.7829 92.7969C74.6864 94.9709 75.3329 97.113 76.6161 98.8706C77.8994 100.628 79.7427 101.897 81.8429 102.467C79.0229 105.877 79.6829 112.107 84.2029 115.647C81.4429 118.407 81.3029 124.317 85.5129 128.257C82.4429 131.597 84.6529 137.697 87.3929 139.837C84.8629 142.187 86.5829 145.167 87.2429 146.957C87.4782 147.518 87.5411 148.136 87.4236 148.732C87.306 149.329 87.0133 149.877 86.5829 150.307C86.5829 150.307 89.0129 150.617 90.9829 147.747C92.4029 145.667 93.7529 142.647 91.2229 139.987C93.9529 136.537 94.8829 131.857 91.9629 128.197C97.5129 122.197 95.4329 115.197 92.6229 114.607C96.2329 110.537 96.4729 102.757 91.9629 100.057C96.7929 90.2968 90.9629 82.9169 82.3329 84.7469C77.3929 85.8069 75.0129 89.3769 74.7829 92.7969Z" fill="#37474F"/>
<path d="M50.033 132.547C55.5556 135.572 61.9671 136.557 68.1429 135.327C79.1429 133.327 78.093 129.567 78.093 129.567C76.9783 128.418 75.9925 127.15 75.153 125.787C74.153 123.977 73.473 123.687 73.473 123.687L73.623 124.927C73.623 124.927 72.343 127.037 66.133 127.677C62.7552 128.089 59.3352 128.001 55.983 127.417C54.883 127.417 53.523 130.527 50.033 132.547Z" fill="#EDCF83"/>
<path opacity="0.2" d="M50.033 132.547C55.5556 135.572 61.9671 136.557 68.1429 135.327C79.1429 133.327 78.093 129.567 78.093 129.567C76.9783 128.418 75.9925 127.15 75.153 125.787C74.153 123.977 73.473 123.687 73.473 123.687L73.623 124.927C73.623 124.927 72.343 127.037 66.133 127.677C62.7552 128.089 59.3352 128.001 55.983 127.417C54.883 127.417 53.523 130.527 50.033 132.547Z" fill="white"/>
<path d="M21.783 144.597C22.323 141.467 23.273 139.107 24.173 139.017C25.873 138.847 28.893 137.497 30.533 132.637C31.0732 131.736 31.7476 130.924 32.533 130.227C34.883 127.737 35.613 126.887 35.293 125.907C34.8433 124.671 34.2021 123.514 33.393 122.477C33.0599 122.082 32.5869 121.831 32.073 121.777C32.7483 121.064 33.4699 120.395 34.233 119.777C35.013 119.077 35.553 118.567 36.043 118.157C37.043 117.347 38.713 116.947 39.783 115.867C41.463 114.177 40.233 112.697 39.323 112.987C37.7146 113.376 36.1316 113.864 34.583 114.447C31.303 116.357 28.433 117.947 26.873 118.777C25.033 119.777 22.613 120.847 21.623 121.437C21.043 121.777 14.243 129.997 13.813 131.107C13.383 132.217 4.813 152.167 3.503 156.107C1.393 162.647 0.393011 173.367 2.57301 175.557L18.573 164.827C18.573 164.827 21.263 147.527 21.783 144.597Z" fill="#FFA8A7"/>
<path d="M35.203 129.567C35.573 130.257 35.123 131.217 34.403 131.937C33.6172 132.72 32.6528 133.3 31.593 133.627C31.2783 133.639 30.9664 133.563 30.6925 133.408C30.4186 133.252 30.1937 133.023 30.043 132.747L35.203 129.567Z" fill="#F28F8F"/>
<path d="M35.2929 125.907C36.5929 127.737 36.4229 128.727 34.2929 130.837C32.1629 132.947 31.0729 133.667 29.4929 132.377C30.5596 131.758 31.5642 131.038 32.4929 130.227C33.3129 129.367 35.1729 127.607 35.2429 126.967C35.3066 126.617 35.3234 126.261 35.2929 125.907Z" fill="#FFA8A7"/>
<path d="M21.4128 136.857C22.8119 136.574 24.0658 135.805 24.9529 134.687C25.4223 134.166 25.8192 133.584 26.1328 132.957C26.4262 132.291 26.7881 131.658 27.2128 131.067C27.6547 130.453 28.1836 129.908 28.7828 129.447C29.0737 129.205 29.3887 128.994 29.7228 128.817C30.0337 128.663 30.3343 128.489 30.6228 128.297C31.2095 127.915 31.7647 127.487 32.2828 127.017C32.7929 126.598 33.2001 126.068 33.4728 125.467C33.5308 125.354 33.5609 125.229 33.5609 125.102C33.5609 124.975 33.5308 124.85 33.4728 124.737C33.326 124.486 33.1013 124.289 32.8328 124.177C32.2154 123.976 31.5502 123.976 30.9328 124.177C29.5898 124.596 28.311 125.198 27.1328 125.967C24.5461 127.253 21.7716 128.121 18.9128 128.537C20.3004 128.192 21.6662 127.765 23.0028 127.257C24.3421 126.785 25.6371 126.196 26.8728 125.497C28.0644 124.652 29.3801 123.997 30.7728 123.557C31.5267 123.312 32.3389 123.312 33.0928 123.557C33.5078 123.712 33.8595 124 34.0928 124.377C34.2164 124.573 34.2917 124.796 34.3126 125.027C34.3334 125.259 34.2992 125.491 34.2128 125.707C33.8937 126.414 33.4144 127.037 32.8128 127.527C32.2581 128.009 31.6663 128.447 31.0428 128.837C30.7216 129.041 30.3876 129.225 30.0428 129.387C29.7437 129.541 29.4591 129.721 29.1928 129.927C28.6525 130.36 28.1628 130.854 27.7328 131.397C27.2986 131.95 26.9232 132.546 26.6128 133.177C26.2539 133.817 25.8099 134.406 25.2928 134.927C24.2851 136.031 22.9014 136.719 21.4128 136.857Z" fill="#F28F8F"/>
<path d="M21.9028 124.077C22.4116 124.327 22.872 124.666 23.2628 125.077C23.4643 125.282 23.6451 125.506 23.8028 125.747C23.9705 125.998 24.1113 126.266 24.2228 126.547L23.5728 126.707C23.533 126.46 23.4659 126.219 23.3728 125.987C23.2735 125.742 23.1495 125.507 23.0028 125.287C22.7116 124.821 22.339 124.411 21.9028 124.077Z" fill="#F28F8F"/>
<path d="M27.3228 131.367C27.6311 131.629 27.9894 131.827 28.3761 131.947C28.7628 132.067 29.1699 132.108 29.5728 132.067C30.3536 131.852 31.051 131.406 31.5728 130.787C32.1628 130.207 32.7527 129.617 33.3127 129.007C33.8791 128.429 34.3944 127.804 34.8528 127.137C34.9428 127.02 34.9889 126.875 34.9828 126.727C34.9865 126.545 34.9663 126.363 34.9228 126.187C34.8337 125.799 34.7167 125.418 34.5728 125.047C34.2689 124.297 33.8833 123.582 33.4228 122.917C33.2466 122.585 32.9749 122.313 32.6427 122.137C32.2892 122.017 31.9062 122.017 31.5527 122.137C30.7739 122.412 30.0545 122.833 29.4327 123.377C29.9806 122.72 30.6625 122.188 31.4327 121.817C31.8562 121.624 32.3336 121.585 32.7827 121.707C33.2138 121.887 33.5824 122.189 33.8427 122.577C34.384 123.25 34.8314 123.993 35.1728 124.787C35.3484 125.187 35.489 125.602 35.5927 126.027C35.6399 126.257 35.6667 126.492 35.6728 126.727C35.6766 126.998 35.5962 127.263 35.4427 127.487C34.9582 128.208 34.4021 128.878 33.7827 129.487C33.1827 130.087 32.5728 130.667 31.9228 131.207C31.2976 131.832 30.5003 132.257 29.6328 132.427C29.1936 132.43 28.7591 132.337 28.36 132.154C27.9608 131.97 27.6067 131.702 27.3228 131.367Z" fill="#F28F8F"/>
<path d="M26.4329 125.737C26.5932 125.155 26.8428 124.602 27.1729 124.097C27.4773 123.597 27.8586 123.148 28.3029 122.767C27.9582 123.215 27.685 123.715 27.4929 124.247C27.289 124.754 27.1675 125.291 27.1329 125.837L26.4329 125.737Z" fill="#F28F8F"/>
<path d="M43.1228 134.957C39.3328 136.397 37.4328 136.537 30.4728 142.957C23.5128 149.377 8.98276 159.567 6.18276 164.387C3.09276 169.697 1.10277 172.727 2.57277 175.617C4.31277 179.027 11.2928 178.347 18.5728 174.867C24.1728 172.177 41.4328 159.817 44.8828 156.717C48.3328 153.617 53.0028 134.957 43.1228 134.957Z" fill="#FFA8A7"/>
<path d="M15.5229 154.607C13.3829 153.767 9.16287 156.857 6.60287 159.357C3.67468 162.263 1.48674 165.83 0.222869 169.757C-0.657131 172.917 1.35287 175.997 1.35287 175.997C1.88611 177.165 2.82887 178.097 4.00287 178.617C4.62286 179.022 5.33288 179.268 6.07046 179.335C6.80805 179.401 7.55063 179.285 8.23288 178.997C9.22817 179.449 10.3495 179.542 11.4055 179.259C12.4615 178.976 13.3865 178.336 14.0229 177.447L15.5229 154.607Z" fill="#EDCF83"/>
<path opacity="0.2" d="M9.49285 179.347L9.29287 179.177C8.97466 178.866 8.68048 178.532 8.41286 178.177C7.88449 177.433 7.45739 176.623 7.14284 175.767C6.40556 173.449 6.03773 171.029 6.05285 168.597C6.05285 168.507 5.96287 168.597 5.95287 168.597C5.59818 171.023 5.79643 173.498 6.53286 175.837C6.86355 176.802 7.32447 177.717 7.90285 178.557C8.02285 178.727 8.17284 178.877 8.30285 179.047C8.68569 179.195 9.08537 179.296 9.49285 179.347Z" fill="black"/>
<path opacity="0.2" d="M5.46286 163.457C5.46286 163.457 5.46287 163.287 5.41287 163.347C3.50732 165.493 2.13665 168.06 1.41287 170.837C1.05912 172.127 0.814912 173.445 0.682861 174.777C0.859419 175.2 1.07012 175.608 1.31287 175.997C1.31433 176.024 1.31433 176.05 1.31287 176.077C1.40401 174.211 1.71278 172.361 2.23288 170.567C3.02292 168.077 4.10723 165.69 5.46286 163.457Z" fill="black"/>
<path d="M43.543 134.147C39.913 134.417 35.143 135.697 32.813 139.307C30.483 142.917 12.193 157.247 12.193 157.247C9.29545 160.763 7.73665 165.191 7.79298 169.747C7.97298 177.217 12.703 177.817 12.703 177.817C12.703 177.817 17.343 176.817 24.603 172.207C31.863 167.597 45.913 157.427 45.913 157.427C48.5122 153.345 49.9344 148.625 50.023 143.787C50.113 135.877 43.543 134.147 43.543 134.147Z" fill="#EDCF83"/>
<path opacity="0.2" d="M43.543 134.147C39.913 134.417 35.143 135.697 32.813 139.307C30.483 142.917 12.193 157.247 12.193 157.247C9.29545 160.763 7.73665 165.191 7.79298 169.747C7.97298 177.217 12.703 177.817 12.703 177.817C12.703 177.817 17.343 176.817 24.603 172.207C31.863 167.597 45.913 157.427 45.913 157.427C48.5122 153.345 49.9344 148.625 50.023 143.787C50.113 135.877 43.543 134.147 43.543 134.147Z" fill="white"/>
</g>
<g opacity="0.5">
<path d="M79.7825 51.8369C78.8625 59.3569 75.2625 63.6369 70.6825 65.8369L66.3025 63.2969C67.4071 61.8553 68.145 60.1668 68.4525 58.3769C68.7793 56.6888 68.8164 54.9575 68.5625 53.2569L75.4025 49.2569C75.0725 51.6869 79.7825 51.8369 79.7825 51.8369Z" fill="#EDCF83"/>
<path opacity="0.2" d="M79.7825 51.8369C78.8625 59.3569 75.2625 63.6369 70.6825 65.8369L66.3025 63.2969C67.4071 61.8553 68.145 60.1668 68.4525 58.3769C68.7793 56.6888 68.8164 54.9575 68.5625 53.2569L75.4025 49.2569C75.0725 51.6869 79.7825 51.8369 79.7825 51.8369Z" fill="black"/>
<path d="M90.1526 5.00691V43.4069C90.1145 44.1208 89.908 44.8154 89.5499 45.4342C89.1919 46.0529 88.6925 46.5781 88.0926 46.9669L79.7826 51.8369C78.8626 59.3569 75.2626 63.6369 70.6826 65.8369C73.2026 62.6869 73.3226 58.0869 72.9426 55.8369L68.4526 58.4169L62.4526 61.8469C61.8165 62.1725 61.1122 62.3423 60.3976 62.3423C59.683 62.3423 58.9787 62.1725 58.3426 61.8469L56.6626 60.8469C56.0753 60.4477 55.5888 59.9173 55.2417 59.2977C54.8946 58.6781 54.6964 57.9863 54.6626 57.2769V18.8769C54.702 18.1645 54.908 17.4713 55.264 16.853C55.6201 16.2347 56.1162 15.7086 56.7126 15.3169L82.3626 0.486908C83.0003 0.166733 83.704 0 84.4176 0C85.1312 0 85.8349 0.166733 86.4726 0.486908L88.1426 1.48691C88.7274 1.87781 89.2134 2.39926 89.5623 3.01013C89.9111 3.621 90.1132 4.30457 90.1526 5.00691Z" fill="#EDCF83"/>
<path opacity="0.2" d="M54.6025 57.2469C54.6415 57.9606 54.8483 58.655 55.2063 59.2736C55.5642 59.8922 56.0632 60.4176 56.6625 60.8069L58.3325 61.8069C58.9118 62.0988 59.5463 62.2648 60.1943 62.2941C60.8423 62.3234 61.4892 62.2153 62.0925 61.9769C61.0925 62.3369 60.3825 61.7969 60.3825 60.6269V22.2469C60.4101 21.5388 60.6202 20.8498 60.9925 20.2469L55.2025 16.9069C54.8374 17.5125 54.631 18.2004 54.6025 18.9069V57.2469Z" fill="black"/>
<path opacity="0.3" d="M90.0824 4.4269C89.8424 3.5469 89.0824 3.27689 88.0824 3.81689L62.4424 18.6669C61.8243 19.0518 61.3229 19.5981 60.9924 20.2469L55.2124 16.9069C55.5549 16.2798 56.0546 15.7525 56.6624 15.3769L82.3124 0.536896C82.9485 0.211298 83.6528 0.0415039 84.3674 0.0415039C85.082 0.0415039 85.7863 0.211298 86.4224 0.536896L88.1024 1.5369C88.6074 1.86346 89.0425 2.28711 89.3824 2.78323C89.7223 3.27934 89.9602 3.83805 90.0824 4.4269Z" fill="white"/>
<path d="M74.5826 16.9869C75.5163 16.41 76.5635 16.0416 77.6526 15.9069C78.5158 15.7983 79.3911 15.9664 80.1526 16.3869C80.9041 16.8633 81.488 17.5625 81.8227 18.3869C82.2605 19.4444 82.4685 20.5829 82.4326 21.7269C82.4358 22.7373 82.3183 23.7444 82.0826 24.7269C81.8542 25.6468 81.5602 26.5491 81.2027 27.4269C80.8327 28.2869 80.4426 29.1069 80.0226 29.8669C79.6026 30.6269 79.1826 31.3969 78.7826 32.1269C78.3827 32.8569 78.0326 33.6069 77.7126 34.3369C77.4045 35.0374 77.1829 35.7728 77.0526 36.5269C77.0011 36.8695 76.9105 37.205 76.7826 37.5269C76.6885 37.7936 76.5093 38.022 76.2726 38.1769L72.7227 40.1769C72.6463 40.2431 72.5487 40.2795 72.4477 40.2795C72.3466 40.2795 72.249 40.2431 72.1727 40.1769C72.0048 39.9762 71.9222 39.7178 71.9427 39.4569C71.9404 38.4902 72.0716 37.5277 72.3326 36.5969C72.6027 35.678 72.9368 34.7791 73.3326 33.9069C73.7138 33.0561 74.1376 32.225 74.6027 31.4169C75.0527 30.6069 75.4826 29.8569 75.8626 29.1369C76.2372 28.4711 76.5712 27.7831 76.8626 27.0769C77.1093 26.4802 77.2417 25.8425 77.2527 25.1969C77.2527 24.3269 77.0326 23.7769 76.6126 23.5269C76.1926 23.2769 75.5226 23.4169 74.6126 23.9269C73.8601 24.3284 73.2179 24.9088 72.7426 25.6169C72.3924 26.1802 72.1136 26.7848 71.9127 27.4169C71.7427 27.9969 71.5926 28.5169 71.4626 28.9969C71.4118 29.2044 71.3202 29.3996 71.1931 29.5713C71.0661 29.743 70.9062 29.8876 70.7227 29.9969L67.1727 31.9969C67.1081 32.0464 67.029 32.0732 66.9477 32.0732C66.8663 32.0732 66.7872 32.0464 66.7227 31.9969C66.6513 31.9134 66.5976 31.8163 66.565 31.7114C66.5323 31.6066 66.5213 31.4962 66.5327 31.3869C66.5819 30.1608 66.78 28.9452 67.1226 27.7669C67.5042 26.3519 68.0338 24.981 68.7027 23.6769C69.3925 22.3036 70.2344 21.0122 71.2126 19.8269C72.1585 18.6877 73.2996 17.726 74.5826 16.9869ZM77.1126 46.0869C77.1109 46.4332 77.0324 46.7747 76.8827 47.0869C76.774 47.3679 76.5776 47.6064 76.3227 47.7669L72.6627 49.8769C72.5873 49.9451 72.4893 49.9828 72.3877 49.9828C72.286 49.9828 72.188 49.9451 72.1126 49.8769C72.0279 49.7805 71.9637 49.6678 71.9242 49.5457C71.8846 49.4236 71.8705 49.2947 71.8827 49.1669V44.6469C71.8857 44.3008 71.9642 43.9596 72.1126 43.6469C72.2275 43.3752 72.4186 43.1426 72.6627 42.9769L76.3227 40.8569C76.4006 40.79 76.4999 40.7533 76.6027 40.7533C76.7054 40.7533 76.8047 40.79 76.8827 40.8569C77.0506 41.0576 77.1331 41.3161 77.1126 41.5769V46.0869Z" fill="#FAFAFA"/>
</g>
<path d="M84.1429 131.247C89.5329 131.867 91.8729 133.137 95.5829 140.347C99.2929 147.557 104.903 173.967 106.523 179.457C108.143 184.947 108.613 186.947 107.523 192.937C106.403 199.177 102.153 210.167 100.303 216.217C99.4529 219.007 98.833 221.737 98.163 224.607C97.493 227.477 96.0229 230.307 94.9329 233.177C94.3704 234.527 93.4594 235.704 92.293 236.587C91.553 237.167 90.6029 237.177 89.9029 237.717C89.2029 238.257 88.993 239.227 88.043 239.647C87.093 240.067 85.813 239.737 84.883 240.217C83.9597 240.846 82.994 241.411 81.9929 241.907C81.0937 242.126 80.2604 242.558 79.563 243.167C78.943 243.787 78.3029 245.167 77.2429 245.047C76.1829 244.927 75.9129 243.707 75.9029 242.697C76.0426 240.752 76.7993 238.902 78.063 237.417C79.363 235.867 80.283 234.027 81.753 232.637C83.0409 231.224 83.9944 229.539 84.543 227.707C84.983 226.487 84.943 224.907 83.313 225.547C81.393 226.307 79.313 227.997 77.093 227.547C75.553 227.197 75.523 225.967 76.483 224.987C78.0581 223.369 79.512 221.638 80.8329 219.807C82.1829 217.947 83.323 215.957 84.723 214.137C85.4776 213.189 86.2927 212.29 87.163 211.447C89.563 209.077 89.633 205.677 90.043 202.547C90.623 198.167 91.043 193.777 91.503 189.377C91.7125 188.585 91.7902 187.764 91.733 186.947L82.4629 161.187L84.1429 131.247Z" fill="#FFA8A7"/>
<path d="M83.7831 130.747C87.5031 130.557 92.943 132.427 95.493 136.857C98.043 141.287 102.913 161.207 104.623 168.027C106.333 174.847 107.853 180.857 107.853 180.857C107.853 180.857 102.063 185.647 90.363 184.857L81.363 161.247L83.7831 130.747Z" fill="#EDCF83"/>
<path opacity="0.2" d="M83.7831 130.747C87.5031 130.557 92.943 132.427 95.493 136.857C98.043 141.287 102.913 161.207 104.623 168.027C106.333 174.847 107.853 180.857 107.853 180.857C107.853 180.857 102.063 185.647 90.363 184.857L81.363 161.247L83.7831 130.747Z" fill="white"/>
<path d="M90.0931 184.247C90.9131 184.577 102.783 183.987 107.363 179.047L106.923 177.307C106.923 177.307 108.603 177.117 109.013 179.467C109.18 180.872 109.451 182.262 109.823 183.627C110.313 185.317 110.753 187.177 109.333 188.827C107.913 190.477 103.653 191.407 98.5331 191.087C93.4131 190.767 91.3031 188.837 90.5331 188.177C90.3213 187.975 90.1657 187.721 90.0816 187.44C89.9974 187.16 89.9876 186.862 90.0531 186.577C90.0531 186.577 88.9231 184.867 90.0931 184.247Z" fill="#EDCF83"/>
<g opacity="0.2">
<path opacity="0.2" d="M109.523 182.407C109.463 182.157 109.423 181.927 109.383 181.687C109.213 181.847 109.063 182.017 108.893 182.167C105.443 185.136 100.965 186.634 96.4229 186.337C96.4229 186.337 96.3629 186.427 96.4229 186.437C99.5666 187.058 102.828 186.581 105.663 185.087C106.897 184.47 108.05 183.7 109.093 182.797L109.523 182.407Z" fill="black"/>
<path opacity="0.2" d="M103.963 188.787C104.103 188.787 104.123 188.437 103.963 188.457C101.208 188.782 98.4189 188.661 95.7029 188.097C94.4794 187.869 93.2781 187.534 92.1129 187.097C91.5625 186.877 91.025 186.627 90.5029 186.347C90.2329 186.197 89.9829 186.017 89.7229 185.837C89.8186 186.093 89.9427 186.338 90.0929 186.567C90.0879 186.627 90.0879 186.687 90.0929 186.747C90.6494 187.061 91.2275 187.335 91.8229 187.567C93.1125 188.098 94.4527 188.497 95.8229 188.757C98.5125 189.254 101.27 189.265 103.963 188.787Z" fill="black"/>
</g>
<path d="M59.0628 338.087C59.0628 340.577 58.9728 342.817 60.1728 345.447C61.8928 349.217 64.9628 350.737 66.8028 352.127C68.8797 353.729 70.7329 355.603 72.3128 357.697C73.8942 360 75.8436 362.027 78.0828 363.697C79.8228 364.957 83.9428 365.807 87.7228 364.967C90.7828 364.277 92.1528 362.967 91.7228 359.457C91.2928 355.947 77.6528 354.297 77.6528 354.297L59.0628 338.087Z" fill="#263238"/>
<path d="M90.0429 348.387C90.9829 348.657 90.7729 350.597 90.9729 352.697C91.1429 354.467 92.1829 357.047 91.4329 361.007C90.8229 362.187 89.4329 362.947 87.2029 363.317C84.0529 363.857 79.1529 362.497 76.9829 360.217C74.2629 357.367 72.3729 354.817 68.5629 351.397C65.2529 348.397 62.0128 347.617 60.0828 341.257C58.8528 337.167 59.3728 335.387 62.0828 333.937C65.7828 331.937 70.7529 332.767 75.4229 337.347C77.3429 339.247 89.1029 348.127 90.0429 348.387Z" fill="#37474F"/>
<path d="M62.2827 345.897C62.2827 345.897 63.3327 337.817 73.6627 335.817L74.1627 336.217C72.4732 334.264 70.1016 333.03 67.5327 332.767C63.4627 332.497 61.1627 333.447 59.5327 335.957C57.9027 338.467 60.3527 344.547 62.2827 345.897Z" fill="#FAFAFA"/>
<path d="M75.4128 337.347C75.2428 337.347 75.0628 337.267 74.8828 337.217C73.1412 337.47 71.4973 338.179 70.1172 339.271C68.7371 340.363 67.6697 341.8 67.0228 343.437C66.6128 344.617 68.2728 345.357 69.1428 344.387C70.9128 339.917 75.2428 338.577 76.9928 338.207C76.5284 337.818 75.9913 337.526 75.4128 337.347Z" fill="#F0F0F0"/>
<path d="M78.0728 339.087C76.4366 339.415 74.9102 340.152 73.6356 341.229C72.3609 342.306 71.3795 343.688 70.7828 345.247C70.3728 346.427 72.0328 347.167 72.8928 346.247C73.4791 344.86 74.3651 343.62 75.4871 342.615C76.6091 341.611 77.9395 340.867 79.3828 340.437C78.9528 339.897 78.5028 339.467 78.0728 339.087Z" fill="#F0F0F0"/>
<path d="M90.3927 336.727L89.9527 350.147C89.4227 352.067 79.4127 353.397 76.9527 348.827C76.7327 348.437 75.5327 341.827 75.5327 341.827L90.3927 336.727Z" fill="#FFA8A7"/>
<path d="M6.34292 375.357C5.92322 376.745 5.88865 378.221 6.24291 379.627C6.65291 380.477 9.24292 383.307 14.4429 384.337C19.6429 385.367 26.8529 384.337 29.9329 384.147C33.0129 383.957 42.7429 385.147 45.8229 385.557C50.6729 386.217 54.4029 385.157 56.2129 383.397C56.5098 383.049 56.7286 382.641 56.8546 382.201C56.9805 381.761 57.0106 381.299 56.9429 380.847C56.9303 379.676 56.7587 378.512 56.4329 377.387L6.34292 375.357Z" fill="#263238"/>
<path d="M55.6229 372.307C55.7229 372.717 55.8029 373.117 55.8829 373.527C56.3564 375.588 56.5082 377.71 56.3329 379.817C55.7129 381.357 53.9929 382.197 52.6029 382.637C48.9629 383.797 46.1729 383.637 42.1329 382.847C38.0608 382.256 33.9468 382.001 29.8329 382.087C26.6529 382.307 22.2629 382.917 19.0829 382.627C16.3771 382.509 13.7072 381.962 11.1729 381.007C9.04293 380.097 6.87292 378.937 6.35292 376.747C5.72292 372.137 7.66292 370.107 9.85292 368.827C12.0429 367.547 15.1329 367.637 18.4429 367.417C21.4429 367.217 23.6429 367.207 26.3129 367.007C28.6254 366.885 30.9217 366.55 33.1729 366.007C35.1729 365.377 35.1729 363.057 35.9929 363.007C36.5529 363.007 51.4729 362.577 52.7529 362.687C54.2229 362.807 54.6729 367.377 54.8529 368.377C55.0029 369.147 55.0229 369.987 55.2329 370.737C55.3729 371.284 55.5029 371.807 55.6229 372.307Z" fill="#37474F"/>
<path d="M14.4428 382.007C14.0228 378.687 13.4428 371.497 19.5828 367.347H20.3528C17.5928 366.548 14.6628 366.548 11.9028 367.347C7.01279 368.647 4.85279 372.597 6.06279 376.767C6.06279 376.727 7.1528 380.777 14.4428 382.007Z" fill="#FAFAFA"/>
<path d="M32.2728 366.297C30.2728 368.047 29.6128 372.027 29.6128 372.027C29.3528 373.517 26.6128 373.737 26.9028 372.307C27.3189 370.319 28.117 368.431 29.2528 366.747C30.1791 366.258 31.2442 366.099 32.2728 366.297Z" fill="#F0F0F0"/>
<path d="M26.7829 366.977C25.2918 368.436 24.319 370.343 24.0129 372.407C23.7329 373.837 21.4829 373.817 21.6429 372.407C21.6429 372.407 21.9029 368.877 24.0129 367.227C24.4202 366.965 24.8848 366.805 25.3672 366.762C25.8496 366.718 26.3353 366.792 26.7829 366.977Z" fill="#F0F0F0"/>
<path d="M54.6229 330.847C54.6229 330.847 52.9729 361.597 53.0329 363.537C53.0929 365.477 50.8529 368.427 44.9129 368.327C40.7329 368.267 38.2229 367.467 36.0729 364.957L34.9329 339.497L54.6229 330.847Z" fill="#FFA8A7"/>
<path d="M91.9828 294.737C92.0519 288.586 91.206 282.459 89.4728 276.557C89.4728 276.557 90.4728 252.757 90.9028 234.507C95.2628 217.797 93.9028 206.427 87.2528 194.797C87.2528 194.797 36.5128 205.267 33.2528 205.957C32.8659 206.15 32.5034 206.388 32.1728 206.667C28.7828 232.197 30.2628 278.357 31.1728 287.387C32.0828 296.417 31.3828 301.167 32.5728 322.227C33.3928 336.817 35.5028 358.307 35.5028 358.307C42.1528 361.727 53.5628 358.757 53.5628 358.757C53.5628 358.757 59.6628 311.757 59.0228 301.267C58.2528 288.507 57.4628 285.267 57.4628 285.267C57.4628 285.267 61.4628 260.627 62.1828 253.957C62.1828 253.957 64.0828 273.797 66.3728 292.507C68.1628 307.177 75.9628 344.997 75.9628 344.997C78.2159 345.959 80.6474 346.432 83.0968 346.386C85.5462 346.339 87.9579 345.774 90.1728 344.727C90.1728 344.727 91.9828 305.097 91.9828 294.737Z" fill="#455A64"/>
<path opacity="0.18" d="M62.1428 253.957L64.8828 230.867C70.8453 228.712 76.15 225.054 80.2828 220.247C80.2828 220.247 79.5028 229.187 67.8328 233.957L64.8328 252.887L64.5228 276.607L62.1428 253.957Z" fill="black"/>
<path d="M44.6628 98.1569C43.2628 98.7869 39.1428 105.607 39.1428 106.397C39.1428 107.467 43.3028 109.077 43.3028 109.077C43.9504 105.464 44.4044 101.818 44.6628 98.1569Z" fill="#F28F8F"/>
<path d="M50.013 86.7669C46.863 87.9069 44.703 89.0869 43.933 95.6169C43.733 97.3569 44.653 99.8069 43.833 102.047C40.283 111.647 43.833 120.277 45.573 122.267C46.753 123.607 53.463 124.787 57.103 124.127C61.653 123.307 71.703 119.867 76.953 113.357C83.123 105.707 85.423 94.8569 79.813 89.8869C71.923 82.8869 53.363 85.5469 50.013 86.7669Z" fill="#FFA8A7"/>
<path d="M72.493 116.877L74.253 129.087C76.983 129.677 77.253 132.897 75.883 135.337L76.513 138.777L57.893 142.187L55.583 124.247L72.493 116.877Z" fill="#FFA8A7"/>
<path d="M45.9128 122.547C47.4028 123.547 50.8128 124.547 55.5828 124.287L55.2128 122.037C53.7609 122.357 52.2918 122.594 50.8128 122.747C49.1784 122.915 47.5282 122.848 45.9128 122.547Z" fill="#F28F8F"/>
<path d="M43.783 82.2469C41.063 85.8869 40.783 91.1769 44.873 93.3169C43.793 97.8869 46.823 101.717 50.433 101.017C50.663 103.227 51.323 105.087 53.433 106.017C54.703 106.577 55.133 106.017 55.703 105.017C56.503 103.617 57.543 101.447 60.703 102.177C64.273 103.007 64.703 108.537 62.273 111.897C61.7971 112.612 61.1542 113.201 60.3998 113.612C59.6454 114.023 58.8021 114.245 57.943 114.257C57.4753 114.204 57.024 114.053 56.619 113.814C56.2139 113.574 55.8642 113.251 55.593 112.867C55.6217 114.826 56.156 116.745 57.1441 118.438C58.1323 120.13 59.5407 121.539 61.233 122.527C65.2258 122.788 69.2355 122.532 73.163 121.767C76.443 118.767 78.593 117.047 81.273 114.187C89.273 105.597 88.813 94.0169 83.973 91.3769C85.343 83.6269 77.383 77.5069 69.083 75.8769C57.323 73.5469 48.543 75.8469 43.783 82.2469Z" fill="#37474F"/>
<path d="M74.093 94.4969C73.9748 96.416 74.4821 98.3217 75.5386 99.9281C76.5952 101.535 78.1441 102.755 79.953 103.407C77.553 106.307 78.633 112.177 81.203 114.157C89.203 105.567 88.743 93.9869 83.903 91.3469C84.1696 89.907 84.1219 88.4265 83.763 87.0069C82.646 86.7262 81.4926 86.6183 80.343 86.6869C75.283 86.9369 74.293 91.0769 74.093 94.4969Z" fill="#263238"/>
<path d="M34.7029 184.697C35.3344 180.419 35.4385 176.08 35.0129 171.777C29.8029 166.647 28.7029 159.627 31.6329 152.727C35.3229 143.997 38.8629 136.087 42.5829 134.417C48.5829 132.687 56.4729 131.187 56.4729 131.187C59.5968 132.151 62.8938 132.421 66.1329 131.977C74.8629 130.887 74.3129 130.027 74.2529 129.087C74.2529 129.087 80.2529 130.087 83.2529 130.637C85.1529 130.977 89.4329 132.687 91.0529 140.577C94.5629 157.647 88.3529 166.087 87.8329 176.077C87.5429 179.077 90.8329 199.347 91.9429 204.947C92.7629 210.297 87.0329 214.117 75.7929 216.707C64.5529 219.297 52.9729 217.707 42.0529 208.307C33.5229 216.837 31.2729 212.477 31.2729 212.477C31.2729 212.477 34.0529 189.907 34.7029 184.697Z" fill="#EDCF83"/>
<path d="M84.9779 95.6694C87.9003 92.3557 87.9693 87.6409 85.1319 85.1386C82.2946 82.6362 77.6254 83.294 74.7029 86.6076C71.7805 89.9213 71.7115 94.6362 74.5489 97.1385C77.3862 99.6408 82.0554 98.9831 84.9779 95.6694Z" fill="#EDCF83"/>
<path d="M74.7829 92.7969C74.6864 94.9709 75.3329 97.113 76.6161 98.8706C77.8994 100.628 79.7427 101.897 81.8429 102.467C79.0229 105.877 79.6829 112.107 84.2029 115.647C81.4429 118.407 81.3029 124.317 85.5129 128.257C82.4429 131.597 84.6529 137.697 87.3929 139.837C84.8629 142.187 86.5829 145.167 87.2429 146.957C87.4782 147.518 87.5411 148.136 87.4236 148.732C87.306 149.329 87.0133 149.877 86.5829 150.307C86.5829 150.307 89.0129 150.617 90.9829 147.747C92.4029 145.667 93.7529 142.647 91.2229 139.987C93.9529 136.537 94.8829 131.857 91.9629 128.197C97.5129 122.197 95.4329 115.197 92.6229 114.607C96.2329 110.537 96.4729 102.757 91.9629 100.057C96.7929 90.2968 90.9629 82.9169 82.3329 84.7469C77.3929 85.8069 75.0129 89.3769 74.7829 92.7969Z" fill="#37474F"/>
<path d="M50.033 132.547C55.5556 135.572 61.9671 136.557 68.1429 135.327C79.1429 133.327 78.093 129.567 78.093 129.567C76.9783 128.418 75.9925 127.15 75.153 125.787C74.153 123.977 73.473 123.687 73.473 123.687L73.623 124.927C73.623 124.927 72.343 127.037 66.133 127.677C62.7552 128.089 59.3352 128.001 55.983 127.417C54.883 127.417 53.523 130.527 50.033 132.547Z" fill="#EDCF83"/>
<path opacity="0.2" d="M50.033 132.547C55.5556 135.572 61.9671 136.557 68.1429 135.327C79.1429 133.327 78.093 129.567 78.093 129.567C76.9783 128.418 75.9925 127.15 75.153 125.787C74.153 123.977 73.473 123.687 73.473 123.687L73.623 124.927C73.623 124.927 72.343 127.037 66.133 127.677C62.7552 128.089 59.3352 128.001 55.983 127.417C54.883 127.417 53.523 130.527 50.033 132.547Z" fill="white"/>
<path d="M21.783 144.597C22.323 141.467 23.273 139.107 24.173 139.017C25.873 138.847 28.893 137.497 30.533 132.637C31.0732 131.736 31.7476 130.924 32.533 130.227C34.883 127.737 35.613 126.887 35.293 125.907C34.8433 124.671 34.2021 123.514 33.393 122.477C33.0599 122.082 32.5869 121.831 32.073 121.777C32.7483 121.064 33.4699 120.395 34.233 119.777C35.013 119.077 35.553 118.567 36.043 118.157C37.043 117.347 38.713 116.947 39.783 115.867C41.463 114.177 40.233 112.697 39.323 112.987C37.7146 113.376 36.1316 113.864 34.583 114.447C31.303 116.357 28.433 117.947 26.873 118.777C25.033 119.777 22.613 120.847 21.623 121.437C21.043 121.777 14.243 129.997 13.813 131.107C13.383 132.217 4.813 152.167 3.503 156.107C1.393 162.647 0.393011 173.367 2.57301 175.557L18.573 164.827C18.573 164.827 21.263 147.527 21.783 144.597Z" fill="#FFA8A7"/>
<path d="M35.203 129.567C35.573 130.257 35.123 131.217 34.403 131.937C33.6172 132.72 32.6528 133.3 31.593 133.627C31.2783 133.639 30.9664 133.563 30.6925 133.408C30.4186 133.252 30.1937 133.023 30.043 132.747L35.203 129.567Z" fill="#F28F8F"/>
<path d="M35.2929 125.907C36.5929 127.737 36.4229 128.727 34.2929 130.837C32.1629 132.947 31.0729 133.667 29.4929 132.377C30.5596 131.758 31.5642 131.038 32.4929 130.227C33.3129 129.367 35.1729 127.607 35.2429 126.967C35.3066 126.617 35.3234 126.261 35.2929 125.907Z" fill="#FFA8A7"/>
<path d="M21.4128 136.857C22.8119 136.574 24.0658 135.805 24.9529 134.687C25.4223 134.166 25.8192 133.584 26.1328 132.957C26.4262 132.291 26.7881 131.658 27.2128 131.067C27.6547 130.453 28.1836 129.908 28.7828 129.447C29.0737 129.205 29.3887 128.994 29.7228 128.817C30.0337 128.663 30.3343 128.489 30.6228 128.297C31.2095 127.915 31.7647 127.487 32.2828 127.017C32.7929 126.598 33.2001 126.068 33.4728 125.467C33.5308 125.354 33.5609 125.229 33.5609 125.102C33.5609 124.975 33.5308 124.85 33.4728 124.737C33.326 124.486 33.1013 124.289 32.8328 124.177C32.2154 123.976 31.5502 123.976 30.9328 124.177C29.5898 124.596 28.311 125.198 27.1328 125.967C24.5461 127.253 21.7716 128.121 18.9128 128.537C20.3004 128.192 21.6662 127.765 23.0028 127.257C24.3421 126.785 25.6371 126.196 26.8728 125.497C28.0644 124.652 29.3801 123.997 30.7728 123.557C31.5267 123.312 32.3389 123.312 33.0928 123.557C33.5078 123.712 33.8595 124 34.0928 124.377C34.2164 124.573 34.2917 124.796 34.3126 125.027C34.3334 125.259 34.2992 125.491 34.2128 125.707C33.8937 126.414 33.4144 127.037 32.8128 127.527C32.2581 128.009 31.6663 128.447 31.0428 128.837C30.7216 129.041 30.3876 129.225 30.0428 129.387C29.7437 129.541 29.4591 129.721 29.1928 129.927C28.6525 130.36 28.1628 130.854 27.7328 131.397C27.2986 131.95 26.9232 132.546 26.6128 133.177C26.2539 133.817 25.8099 134.406 25.2928 134.927C24.2851 136.031 22.9014 136.719 21.4128 136.857Z" fill="#F28F8F"/>
<path d="M21.9028 124.077C22.4116 124.327 22.872 124.666 23.2628 125.077C23.4643 125.282 23.6451 125.506 23.8028 125.747C23.9705 125.998 24.1113 126.266 24.2228 126.547L23.5728 126.707C23.533 126.46 23.4659 126.219 23.3728 125.987C23.2735 125.742 23.1495 125.507 23.0028 125.287C22.7116 124.821 22.339 124.411 21.9028 124.077Z" fill="#F28F8F"/>
<path d="M27.3228 131.367C27.6311 131.629 27.9894 131.827 28.3761 131.947C28.7628 132.067 29.1699 132.108 29.5728 132.067C30.3536 131.852 31.051 131.406 31.5728 130.787C32.1628 130.207 32.7527 129.617 33.3127 129.007C33.8791 128.429 34.3944 127.804 34.8528 127.137C34.9428 127.02 34.9889 126.875 34.9828 126.727C34.9865 126.545 34.9663 126.363 34.9228 126.187C34.8337 125.799 34.7167 125.418 34.5728 125.047C34.2689 124.297 33.8833 123.582 33.4228 122.917C33.2466 122.585 32.9749 122.313 32.6427 122.137C32.2892 122.017 31.9062 122.017 31.5527 122.137C30.7739 122.412 30.0545 122.833 29.4327 123.377C29.9806 122.72 30.6625 122.188 31.4327 121.817C31.8562 121.624 32.3336 121.585 32.7827 121.707C33.2138 121.887 33.5824 122.189 33.8427 122.577C34.384 123.25 34.8314 123.993 35.1728 124.787C35.3484 125.187 35.489 125.602 35.5927 126.027C35.6399 126.257 35.6667 126.492 35.6728 126.727C35.6766 126.998 35.5962 127.263 35.4427 127.487C34.9582 128.208 34.4021 128.878 33.7827 129.487C33.1827 130.087 32.5728 130.667 31.9228 131.207C31.2976 131.832 30.5003 132.257 29.6328 132.427C29.1936 132.43 28.7591 132.337 28.36 132.154C27.9608 131.97 27.6067 131.702 27.3228 131.367Z" fill="#F28F8F"/>
<path d="M26.4329 125.737C26.5932 125.155 26.8428 124.602 27.1729 124.097C27.4773 123.597 27.8586 123.148 28.3029 122.767C27.9582 123.215 27.685 123.715 27.4929 124.247C27.289 124.754 27.1675 125.291 27.1329 125.837L26.4329 125.737Z" fill="#F28F8F"/>
<path d="M43.1228 134.957C39.3328 136.397 37.4328 136.537 30.4728 142.957C23.5128 149.377 8.98276 159.567 6.18276 164.387C3.09276 169.697 1.10277 172.727 2.57277 175.617C4.31277 179.027 11.2928 178.347 18.5728 174.867C24.1728 172.177 41.4328 159.817 44.8828 156.717C48.3328 153.617 53.0028 134.957 43.1228 134.957Z" fill="#FFA8A7"/>
<path d="M15.5229 154.607C13.3829 153.767 9.16287 156.857 6.60287 159.357C3.67468 162.263 1.48674 165.83 0.222869 169.757C-0.657131 172.917 1.35287 175.997 1.35287 175.997C1.88611 177.165 2.82887 178.097 4.00287 178.617C4.62286 179.022 5.33288 179.268 6.07046 179.335C6.80805 179.401 7.55063 179.285 8.23288 178.997C9.22817 179.449 10.3495 179.542 11.4055 179.259C12.4615 178.976 13.3865 178.336 14.0229 177.447L15.5229 154.607Z" fill="#EDCF83"/>
<path opacity="0.2" d="M9.49285 179.347L9.29287 179.177C8.97466 178.866 8.68048 178.532 8.41286 178.177C7.88449 177.433 7.45739 176.623 7.14284 175.767C6.40556 173.449 6.03773 171.029 6.05285 168.597C6.05285 168.507 5.96287 168.597 5.95287 168.597C5.59818 171.023 5.79643 173.498 6.53286 175.837C6.86355 176.802 7.32447 177.717 7.90285 178.557C8.02285 178.727 8.17284 178.877 8.30285 179.047C8.68569 179.195 9.08537 179.296 9.49285 179.347Z" fill="black"/>
<path opacity="0.2" d="M5.46286 163.457C5.46286 163.457 5.46287 163.287 5.41287 163.347C3.50732 165.493 2.13665 168.06 1.41287 170.837C1.05912 172.127 0.814912 173.445 0.682861 174.777C0.859419 175.2 1.07012 175.608 1.31287 175.997C1.31433 176.024 1.31433 176.05 1.31287 176.077C1.40401 174.211 1.71278 172.361 2.23288 170.567C3.02292 168.077 4.10723 165.69 5.46286 163.457Z" fill="black"/>
<path d="M43.543 134.147C39.913 134.417 35.143 135.697 32.813 139.307C30.483 142.917 12.193 157.247 12.193 157.247C9.29545 160.763 7.73665 165.191 7.79298 169.747C7.97298 177.217 12.703 177.817 12.703 177.817C12.703 177.817 17.343 176.817 24.603 172.207C31.863 167.597 45.913 157.427 45.913 157.427C48.5122 153.345 49.9344 148.625 50.023 143.787C50.113 135.877 43.543 134.147 43.543 134.147Z" fill="#EDCF83"/>
<path opacity="0.2" d="M43.543 134.147C39.913 134.417 35.143 135.697 32.813 139.307C30.483 142.917 12.193 157.247 12.193 157.247C9.29545 160.763 7.73665 165.191 7.79298 169.747C7.97298 177.217 12.703 177.817 12.703 177.817C12.703 177.817 17.343 176.817 24.603 172.207C31.863 167.597 45.913 157.427 45.913 157.427C48.5122 153.345 49.9344 148.625 50.023 143.787C50.113 135.877 43.543 134.147 43.543 134.147Z" fill="white"/>
<path d="M79.7825 51.8369C78.8625 59.3569 75.2625 63.6369 70.6825 65.8369L66.3025 63.2969C67.4071 61.8553 68.145 60.1668 68.4525 58.3769C68.7793 56.6888 68.8164 54.9575 68.5625 53.2569L75.4025 49.2569C75.0725 51.6869 79.7825 51.8369 79.7825 51.8369Z" fill="#EDCF83"/>
<path opacity="0.2" d="M79.7825 51.8369C78.8625 59.3569 75.2625 63.6369 70.6825 65.8369L66.3025 63.2969C67.4071 61.8553 68.145 60.1668 68.4525 58.3769C68.7793 56.6888 68.8164 54.9575 68.5625 53.2569L75.4025 49.2569C75.0725 51.6869 79.7825 51.8369 79.7825 51.8369Z" fill="black"/>
<path d="M90.1526 5.00691V43.4069C90.1145 44.1208 89.908 44.8154 89.5499 45.4342C89.1919 46.0529 88.6925 46.5781 88.0926 46.9669L79.7826 51.8369C78.8626 59.3569 75.2626 63.6369 70.6826 65.8369C73.2026 62.6869 73.3226 58.0869 72.9426 55.8369L68.4526 58.4169L62.4526 61.8469C61.8165 62.1725 61.1122 62.3423 60.3976 62.3423C59.683 62.3423 58.9787 62.1725 58.3426 61.8469L56.6626 60.8469C56.0753 60.4477 55.5888 59.9173 55.2417 59.2977C54.8946 58.6781 54.6964 57.9863 54.6626 57.2769V18.8769C54.702 18.1645 54.908 17.4713 55.264 16.853C55.6201 16.2347 56.1162 15.7086 56.7126 15.3169L82.3626 0.486908C83.0003 0.166733 83.704 0 84.4176 0C85.1312 0 85.8349 0.166733 86.4726 0.486908L88.1426 1.48691C88.7274 1.87781 89.2134 2.39926 89.5623 3.01013C89.9111 3.621 90.1132 4.30457 90.1526 5.00691Z" fill="#EDCF83"/>
<path opacity="0.2" d="M54.6025 57.2469C54.6415 57.9606 54.8483 58.655 55.2063 59.2736C55.5642 59.8922 56.0632 60.4176 56.6625 60.8069L58.3325 61.8069C58.9118 62.0988 59.5463 62.2648 60.1943 62.2941C60.8423 62.3234 61.4892 62.2153 62.0925 61.9769C61.0925 62.3369 60.3825 61.7969 60.3825 60.6269V22.2469C60.4101 21.5388 60.6202 20.8498 60.9925 20.2469L55.2025 16.9069C54.8374 17.5125 54.631 18.2004 54.6025 18.9069V57.2469Z" fill="black"/>
<path opacity="0.3" d="M90.0824 4.4269C89.8424 3.5469 89.0824 3.27689 88.0824 3.81689L62.4424 18.6669C61.8243 19.0518 61.3229 19.5981 60.9924 20.2469L55.2124 16.9069C55.5549 16.2798 56.0546 15.7525 56.6624 15.3769L82.3124 0.536896C82.9485 0.211298 83.6528 0.0415039 84.3674 0.0415039C85.082 0.0415039 85.7863 0.211298 86.4224 0.536896L88.1024 1.5369C88.6074 1.86346 89.0425 2.28711 89.3824 2.78323C89.7223 3.27934 89.9602 3.83805 90.0824 4.4269Z" fill="white"/>
<path d="M74.5826 16.9869C75.5163 16.41 76.5635 16.0416 77.6526 15.9069C78.5158 15.7983 79.3911 15.9664 80.1526 16.3869C80.9041 16.8633 81.488 17.5625 81.8227 18.3869C82.2605 19.4444 82.4685 20.5829 82.4326 21.7269C82.4358 22.7373 82.3183 23.7444 82.0826 24.7269C81.8542 25.6468 81.5602 26.5491 81.2027 27.4269C80.8327 28.2869 80.4426 29.1069 80.0226 29.8669C79.6026 30.6269 79.1826 31.3969 78.7826 32.1269C78.3827 32.8569 78.0326 33.6069 77.7126 34.3369C77.4045 35.0374 77.1829 35.7728 77.0526 36.5269C77.0011 36.8695 76.9105 37.205 76.7826 37.5269C76.6885 37.7936 76.5093 38.022 76.2726 38.1769L72.7227 40.1769C72.6463 40.2431 72.5487 40.2795 72.4477 40.2795C72.3466 40.2795 72.249 40.2431 72.1727 40.1769C72.0048 39.9762 71.9222 39.7178 71.9427 39.4569C71.9404 38.4902 72.0716 37.5277 72.3326 36.5969C72.6027 35.678 72.9368 34.7791 73.3326 33.9069C73.7138 33.0561 74.1376 32.225 74.6027 31.4169C75.0527 30.6069 75.4826 29.8569 75.8626 29.1369C76.2372 28.4711 76.5712 27.7831 76.8626 27.0769C77.1093 26.4802 77.2417 25.8425 77.2527 25.1969C77.2527 24.3269 77.0326 23.7769 76.6126 23.5269C76.1926 23.2769 75.5226 23.4169 74.6126 23.9269C73.8601 24.3284 73.2179 24.9088 72.7426 25.6169C72.3924 26.1802 72.1136 26.7848 71.9127 27.4169C71.7427 27.9969 71.5926 28.5169 71.4626 28.9969C71.4118 29.2044 71.3202 29.3996 71.1931 29.5713C71.0661 29.743 70.9062 29.8876 70.7227 29.9969L67.1727 31.9969C67.1081 32.0464 67.029 32.0732 66.9477 32.0732C66.8663 32.0732 66.7872 32.0464 66.7227 31.9969C66.6513 31.9134 66.5976 31.8163 66.565 31.7114C66.5323 31.6066 66.5213 31.4962 66.5327 31.3869C66.5819 30.1608 66.78 28.9452 67.1226 27.7669C67.5042 26.3519 68.0338 24.981 68.7027 23.6769C69.3925 22.3036 70.2344 21.0122 71.2126 19.8269C72.1585 18.6877 73.2996 17.726 74.5826 16.9869ZM77.1126 46.0869C77.1109 46.4332 77.0324 46.7747 76.8827 47.0869C76.774 47.3679 76.5776 47.6064 76.3227 47.7669L72.6627 49.8769C72.5873 49.9451 72.4893 49.9828 72.3877 49.9828C72.286 49.9828 72.188 49.9451 72.1126 49.8769C72.0279 49.7805 71.9637 49.6678 71.9242 49.5457C71.8846 49.4236 71.8705 49.2947 71.8827 49.1669V44.6469C71.8857 44.3008 71.9642 43.9596 72.1126 43.6469C72.2275 43.3752 72.4186 43.1426 72.6627 42.9769L76.3227 40.8569C76.4006 40.79 76.4999 40.7533 76.6027 40.7533C76.7054 40.7533 76.8047 40.79 76.8827 40.8569C77.0506 41.0576 77.1331 41.3161 77.1126 41.5769V46.0869Z" fill="#FAFAFA"/>
</svg>
